<svg width="1363" height="163" viewBox="0 0 1363 163" fill="none" xmlns="http://www.w3.org/2000/svg">
<path d="M0 15C0 6.71573 6.71573 0 15 0H37V163H15C6.71573 163 0 156.284 0 148V15Z" fill="#424242"/>
<rect width="1097" height="163" transform="translate(37)" fill="#F0F0F0"/>
<path d="M101.906 53.9219L94.3945 51.2383V48.0859L104.602 52.375V54.6367L101.906 53.9219ZM94.3945 56.1719L101.918 53.4297L104.602 52.7852V55.0352L94.3945 59.3242V56.1719ZM123.867 58.2578V61H115.277V58.2578H123.867ZM116.414 43.9375V61H112.898V43.9375H116.414ZM131.508 61.2344C130.523 61.2344 129.641 61.0781 128.859 60.7656C128.078 60.4453 127.414 60.0039 126.867 59.4414C126.328 58.8789 125.914 58.2266 125.625 57.4844C125.336 56.7344 125.191 55.9375 125.191 55.0938V54.625C125.191 53.6641 125.328 52.7852 125.602 51.9883C125.875 51.1914 126.266 50.5 126.773 49.9141C127.289 49.3281 127.914 48.8789 128.648 48.5664C129.383 48.2461 130.211 48.0859 131.133 48.0859C132.031 48.0859 132.828 48.2344 133.523 48.5312C134.219 48.8281 134.801 49.25 135.27 49.7969C135.746 50.3438 136.105 51 136.348 51.7656C136.59 52.5234 136.711 53.3672 136.711 54.2969V55.7031H126.633V53.4531H133.395V53.1953C133.395 52.7266 133.309 52.3086 133.137 51.9414C132.973 51.5664 132.723 51.2695 132.387 51.0508C132.051 50.832 131.621 50.7227 131.098 50.7227C130.652 50.7227 130.27 50.8203 129.949 51.0156C129.629 51.2109 129.367 51.4844 129.164 51.8359C128.969 52.1875 128.82 52.6016 128.719 53.0781C128.625 53.5469 128.578 54.0625 128.578 54.625V55.0938C128.578 55.6016 128.648 56.0703 128.789 56.5C128.938 56.9297 129.145 57.3008 129.41 57.6133C129.684 57.9258 130.012 58.168 130.395 58.3398C130.785 58.5117 131.227 58.5977 131.719 58.5977C132.328 58.5977 132.895 58.4805 133.418 58.2461C133.949 58.0039 134.406 57.6406 134.789 57.1562L136.43 58.9375C136.164 59.3203 135.801 59.6875 135.34 60.0391C134.887 60.3906 134.34 60.6797 133.699 60.9062C133.059 61.125 132.328 61.2344 131.508 61.2344ZM138.633 43H142.008V58.0938L141.668 61H138.633V43ZM150.035 54.5312V54.7773C150.035 55.7227 149.934 56.5898 149.73 57.3789C149.535 58.168 149.23 58.8516 148.816 59.4297C148.402 60 147.887 60.4453 147.27 60.7656C146.66 61.0781 145.941 61.2344 145.113 61.2344C144.34 61.2344 143.668 61.0781 143.098 60.7656C142.535 60.4531 142.062 60.0117 141.68 59.4414C141.297 58.8711 140.988 58.2031 140.754 57.4375C140.52 56.6719 140.344 55.8359 140.227 54.9297V54.3906C140.344 53.4844 140.52 52.6484 140.754 51.8828C140.988 51.1172 141.297 50.4492 141.68 49.8789C142.062 49.3086 142.535 48.8672 143.098 48.5547C143.66 48.2422 144.324 48.0859 145.09 48.0859C145.926 48.0859 146.652 48.2461 147.27 48.5664C147.895 48.8789 148.41 49.3242 148.816 49.9023C149.23 50.4727 149.535 51.1523 149.73 51.9414C149.934 52.7227 150.035 53.5859 150.035 54.5312ZM146.66 54.7773V54.5312C146.66 54.0156 146.621 53.5312 146.543 53.0781C146.473 52.6172 146.348 52.2148 146.168 51.8711C145.988 51.5195 145.742 51.2422 145.43 51.0391C145.125 50.8359 144.73 50.7344 144.246 50.7344C143.785 50.7344 143.395 50.8125 143.074 50.9688C142.754 51.125 142.488 51.3438 142.277 51.625C142.074 51.9062 141.922 52.2422 141.82 52.6328C141.719 53.0156 141.656 53.4375 141.633 53.8984V55.4336C141.656 56.0508 141.758 56.5977 141.938 57.0742C142.125 57.543 142.406 57.9141 142.781 58.1875C143.164 58.4531 143.66 58.5859 144.27 58.5859C144.746 58.5859 145.141 58.4922 145.453 58.3047C145.766 58.1172 146.008 57.8516 146.18 57.5078C146.359 57.1641 146.484 56.7617 146.555 56.3008C146.625 55.832 146.66 55.3242 146.66 54.7773ZM158.977 58.1406V52.4922C158.977 52.0859 158.91 51.7383 158.777 51.4492C158.645 51.1523 158.438 50.9219 158.156 50.7578C157.883 50.5938 157.527 50.5117 157.09 50.5117C156.715 50.5117 156.391 50.5781 156.117 50.7109C155.844 50.8359 155.633 51.0195 155.484 51.2617C155.336 51.4961 155.262 51.7734 155.262 52.0938H151.887C151.887 51.5547 152.012 51.043 152.262 50.5586C152.512 50.0742 152.875 49.6484 153.352 49.2812C153.828 48.9062 154.395 48.6133 155.051 48.4023C155.715 48.1914 156.457 48.0859 157.277 48.0859C158.262 48.0859 159.137 48.25 159.902 48.5781C160.668 48.9062 161.27 49.3984 161.707 50.0547C162.152 50.7109 162.375 51.5312 162.375 52.5156V57.9414C162.375 58.6367 162.418 59.207 162.504 59.6523C162.59 60.0898 162.715 60.4727 162.879 60.8008V61H159.469C159.305 60.6562 159.18 60.2266 159.094 59.7109C159.016 59.1875 158.977 58.6641 158.977 58.1406ZM159.422 53.2773L159.445 55.1875H157.559C157.113 55.1875 156.727 55.2383 156.398 55.3398C156.07 55.4414 155.801 55.5859 155.59 55.7734C155.379 55.9531 155.223 56.1641 155.121 56.4062C155.027 56.6484 154.98 56.9141 154.98 57.2031C154.98 57.4922 155.047 57.7539 155.18 57.9883C155.312 58.2148 155.504 58.3945 155.754 58.5273C156.004 58.6523 156.297 58.7148 156.633 58.7148C157.141 58.7148 157.582 58.6133 157.957 58.4102C158.332 58.207 158.621 57.957 158.824 57.6602C159.035 57.3633 159.145 57.082 159.152 56.8164L160.043 58.2461C159.918 58.5664 159.746 58.8984 159.527 59.2422C159.316 59.5859 159.047 59.9102 158.719 60.2148C158.391 60.5117 157.996 60.7578 157.535 60.9531C157.074 61.1406 156.527 61.2344 155.895 61.2344C155.09 61.2344 154.359 61.0742 153.703 60.7539C153.055 60.4258 152.539 59.9766 152.156 59.4062C151.781 58.8281 151.594 58.1719 151.594 57.4375C151.594 56.7734 151.719 56.1836 151.969 55.668C152.219 55.1523 152.586 54.7188 153.07 54.3672C153.562 54.0078 154.176 53.7383 154.91 53.5586C155.645 53.3711 156.496 53.2773 157.465 53.2773H159.422ZM168.281 51.0273V61H164.906V48.3203H168.07L168.281 51.0273ZM167.789 54.2148H166.875C166.875 53.2773 166.996 52.4336 167.238 51.6836C167.48 50.9258 167.82 50.2812 168.258 49.75C168.695 49.2109 169.215 48.8008 169.816 48.5195C170.426 48.2305 171.105 48.0859 171.855 48.0859C172.449 48.0859 172.992 48.1719 173.484 48.3438C173.977 48.5156 174.398 48.7891 174.75 49.1641C175.109 49.5391 175.383 50.0352 175.57 50.6523C175.766 51.2695 175.863 52.0234 175.863 52.9141V61H172.465V52.9023C172.465 52.3398 172.387 51.9023 172.23 51.5898C172.074 51.2773 171.844 51.0586 171.539 50.9336C171.242 50.8008 170.875 50.7344 170.438 50.7344C169.984 50.7344 169.59 50.8242 169.254 51.0039C168.926 51.1836 168.652 51.4336 168.434 51.7539C168.223 52.0664 168.062 52.4336 167.953 52.8555C167.844 53.2773 167.789 53.7305 167.789 54.2148ZM177.891 54.7891V54.543C177.891 53.6133 178.023 52.7578 178.289 51.9766C178.555 51.1875 178.941 50.5039 179.449 49.9258C179.957 49.3477 180.582 48.8984 181.324 48.5781C182.066 48.25 182.918 48.0859 183.879 48.0859C184.84 48.0859 185.695 48.25 186.445 48.5781C187.195 48.8984 187.824 49.3477 188.332 49.9258C188.848 50.5039 189.238 51.1875 189.504 51.9766C189.77 52.7578 189.902 53.6133 189.902 54.543V54.7891C189.902 55.7109 189.77 56.5664 189.504 57.3555C189.238 58.1367 188.848 58.8203 188.332 59.4062C187.824 59.9844 187.199 60.4336 186.457 60.7539C185.715 61.0742 184.863 61.2344 183.902 61.2344C182.941 61.2344 182.086 61.0742 181.336 60.7539C180.594 60.4336 179.965 59.9844 179.449 59.4062C178.941 58.8203 178.555 58.1367 178.289 57.3555C178.023 56.5664 177.891 55.7109 177.891 54.7891ZM181.266 54.543V54.7891C181.266 55.3203 181.312 55.8164 181.406 56.2773C181.5 56.7383 181.648 57.1445 181.852 57.4961C182.062 57.8398 182.336 58.1094 182.672 58.3047C183.008 58.5 183.418 58.5977 183.902 58.5977C184.371 58.5977 184.773 58.5 185.109 58.3047C185.445 58.1094 185.715 57.8398 185.918 57.4961C186.121 57.1445 186.27 56.7383 186.363 56.2773C186.465 55.8164 186.516 55.3203 186.516 54.7891V54.543C186.516 54.0273 186.465 53.543 186.363 53.0898C186.27 52.6289 186.117 52.2227 185.906 51.8711C185.703 51.5117 185.434 51.2305 185.098 51.0273C184.762 50.8242 184.355 50.7227 183.879 50.7227C183.402 50.7227 182.996 50.8242 182.66 51.0273C182.332 51.2305 182.062 51.5117 181.852 51.8711C181.648 52.2227 181.5 52.6289 181.406 53.0898C181.312 53.543 181.266 54.0273 181.266 54.543ZM195.281 51.0273V61H191.906V48.3203H195.07L195.281 51.0273ZM194.789 54.2148H193.875C193.875 53.2773 193.996 52.4336 194.238 51.6836C194.48 50.9258 194.82 50.2812 195.258 49.75C195.695 49.2109 196.215 48.8008 196.816 48.5195C197.426 48.2305 198.105 48.0859 198.855 48.0859C199.449 48.0859 199.992 48.1719 200.484 48.3438C200.977 48.5156 201.398 48.7891 201.75 49.1641C202.109 49.5391 202.383 50.0352 202.57 50.6523C202.766 51.2695 202.863 52.0234 202.863 52.9141V61H199.465V52.9023C199.465 52.3398 199.387 51.9023 199.23 51.5898C199.074 51.2773 198.844 51.0586 198.539 50.9336C198.242 50.8008 197.875 50.7344 197.438 50.7344C196.984 50.7344 196.59 50.8242 196.254 51.0039C195.926 51.1836 195.652 51.4336 195.434 51.7539C195.223 52.0664 195.062 52.4336 194.953 52.8555C194.844 53.2773 194.789 53.7305 194.789 54.2148ZM211.617 43.9375H217.98C219.285 43.9375 220.406 44.1328 221.344 44.5234C222.289 44.9141 223.016 45.4922 223.523 46.2578C224.031 47.0234 224.285 47.9648 224.285 49.082C224.285 49.9961 224.129 50.7812 223.816 51.4375C223.512 52.0859 223.078 52.6289 222.516 53.0664C221.961 53.4961 221.309 53.8398 220.559 54.0977L219.445 54.6836H213.914L213.891 51.9414H218.004C218.621 51.9414 219.133 51.832 219.539 51.6133C219.945 51.3945 220.25 51.0898 220.453 50.6992C220.664 50.3086 220.77 49.8555 220.77 49.3398C220.77 48.793 220.668 48.3203 220.465 47.9219C220.262 47.5234 219.953 47.2188 219.539 47.0078C219.125 46.7969 218.605 46.6914 217.98 46.6914H215.133V61H211.617V43.9375ZM221.156 61L217.266 53.3945L220.98 53.3711L224.918 60.8359V61H221.156ZM232.617 61.2344C231.633 61.2344 230.75 61.0781 229.969 60.7656C229.188 60.4453 228.523 60.0039 227.977 59.4414C227.438 58.8789 227.023 58.2266 226.734 57.4844C226.445 56.7344 226.301 55.9375 226.301 55.0938V54.625C226.301 53.6641 226.438 52.7852 226.711 51.9883C226.984 51.1914 227.375 50.5 227.883 49.9141C228.398 49.3281 229.023 48.8789 229.758 48.5664C230.492 48.2461 231.32 48.0859 232.242 48.0859C233.141 48.0859 233.938 48.2344 234.633 48.5312C235.328 48.8281 235.91 49.25 236.379 49.7969C236.855 50.3438 237.215 51 237.457 51.7656C237.699 52.5234 237.82 53.3672 237.82 54.2969V55.7031H227.742V53.4531H234.504V53.1953C234.504 52.7266 234.418 52.3086 234.246 51.9414C234.082 51.5664 233.832 51.2695 233.496 51.0508C233.16 50.832 232.73 50.7227 232.207 50.7227C231.762 50.7227 231.379 50.8203 231.059 51.0156C230.738 51.2109 230.477 51.4844 230.273 51.8359C230.078 52.1875 229.93 52.6016 229.828 53.0781C229.734 53.5469 229.688 54.0625 229.688 54.625V55.0938C229.688 55.6016 229.758 56.0703 229.898 56.5C230.047 56.9297 230.254 57.3008 230.52 57.6133C230.793 57.9258 231.121 58.168 231.504 58.3398C231.895 58.5117 232.336 58.5977 232.828 58.5977C233.438 58.5977 234.004 58.4805 234.527 58.2461C235.059 58.0039 235.516 57.6406 235.898 57.1562L237.539 58.9375C237.273 59.3203 236.91 59.6875 236.449 60.0391C235.996 60.3906 235.449 60.6797 234.809 60.9062C234.168 61.125 233.438 61.2344 232.617 61.2344ZM246.586 58.1406V52.4922C246.586 52.0859 246.52 51.7383 246.387 51.4492C246.254 51.1523 246.047 50.9219 245.766 50.7578C245.492 50.5938 245.137 50.5117 244.699 50.5117C244.324 50.5117 244 50.5781 243.727 50.7109C243.453 50.8359 243.242 51.0195 243.094 51.2617C242.945 51.4961 242.871 51.7734 242.871 52.0938H239.496C239.496 51.5547 239.621 51.043 239.871 50.5586C240.121 50.0742 240.484 49.6484 240.961 49.2812C241.438 48.9062 242.004 48.6133 242.66 48.4023C243.324 48.1914 244.066 48.0859 244.887 48.0859C245.871 48.0859 246.746 48.25 247.512 48.5781C248.277 48.9062 248.879 49.3984 249.316 50.0547C249.762 50.7109 249.984 51.5312 249.984 52.5156V57.9414C249.984 58.6367 250.027 59.207 250.113 59.6523C250.199 60.0898 250.324 60.4727 250.488 60.8008V61H247.078C246.914 60.6562 246.789 60.2266 246.703 59.7109C246.625 59.1875 246.586 58.6641 246.586 58.1406ZM247.031 53.2773L247.055 55.1875H245.168C244.723 55.1875 244.336 55.2383 244.008 55.3398C243.68 55.4414 243.41 55.5859 243.199 55.7734C242.988 55.9531 242.832 56.1641 242.73 56.4062C242.637 56.6484 242.59 56.9141 242.59 57.2031C242.59 57.4922 242.656 57.7539 242.789 57.9883C242.922 58.2148 243.113 58.3945 243.363 58.5273C243.613 58.6523 243.906 58.7148 244.242 58.7148C244.75 58.7148 245.191 58.6133 245.566 58.4102C245.941 58.207 246.23 57.957 246.434 57.6602C246.645 57.3633 246.754 57.082 246.762 56.8164L247.652 58.2461C247.527 58.5664 247.355 58.8984 247.137 59.2422C246.926 59.5859 246.656 59.9102 246.328 60.2148C246 60.5117 245.605 60.7578 245.145 60.9531C244.684 61.1406 244.137 61.2344 243.504 61.2344C242.699 61.2344 241.969 61.0742 241.312 60.7539C240.664 60.4258 240.148 59.9766 239.766 59.4062C239.391 58.8281 239.203 58.1719 239.203 57.4375C239.203 56.7734 239.328 56.1836 239.578 55.668C239.828 55.1523 240.195 54.7188 240.68 54.3672C241.172 54.0078 241.785 53.7383 242.52 53.5586C243.254 53.3711 244.105 53.2773 245.074 53.2773H247.031ZM256.148 43V61H252.762V43H256.148ZM276.574 58.2578V61H267.492V58.2578H276.574ZM268.641 43.9375V61H265.125V43.9375H268.641ZM275.391 50.8867V53.5586H267.492V50.8867H275.391ZM276.562 43.9375V46.6914H267.492V43.9375H276.562ZM285.27 57.4961C285.27 57.2539 285.199 57.0352 285.059 56.8398C284.918 56.6445 284.656 56.4648 284.273 56.3008C283.898 56.1289 283.355 55.9727 282.645 55.832C282.004 55.6914 281.406 55.5156 280.852 55.3047C280.305 55.0859 279.828 54.8242 279.422 54.5195C279.023 54.2148 278.711 53.8555 278.484 53.4414C278.258 53.0195 278.145 52.5391 278.145 52C278.145 51.4688 278.258 50.9688 278.484 50.5C278.719 50.0312 279.051 49.6172 279.48 49.2578C279.918 48.8906 280.449 48.6055 281.074 48.4023C281.707 48.1914 282.418 48.0859 283.207 48.0859C284.309 48.0859 285.254 48.2617 286.043 48.6133C286.84 48.9648 287.449 49.4492 287.871 50.0664C288.301 50.6758 288.516 51.3711 288.516 52.1523H285.141C285.141 51.8242 285.07 51.5312 284.93 51.2734C284.797 51.0078 284.586 50.8008 284.297 50.6523C284.016 50.4961 283.648 50.418 283.195 50.418C282.82 50.418 282.496 50.4844 282.223 50.6172C281.949 50.7422 281.738 50.9141 281.59 51.1328C281.449 51.3438 281.379 51.5781 281.379 51.8359C281.379 52.0312 281.418 52.207 281.496 52.3633C281.582 52.5117 281.719 52.6484 281.906 52.7734C282.094 52.8984 282.336 53.0156 282.633 53.125C282.938 53.2266 283.312 53.3203 283.758 53.4062C284.672 53.5938 285.488 53.8398 286.207 54.1445C286.926 54.4414 287.496 54.8477 287.918 55.3633C288.34 55.8711 288.551 56.5391 288.551 57.3672C288.551 57.9297 288.426 58.4453 288.176 58.9141C287.926 59.3828 287.566 59.793 287.098 60.1445C286.629 60.4883 286.066 60.7578 285.41 60.9531C284.762 61.1406 284.031 61.2344 283.219 61.2344C282.039 61.2344 281.039 61.0234 280.219 60.6016C279.406 60.1797 278.789 59.6445 278.367 58.9961C277.953 58.3398 277.746 57.668 277.746 56.9805H280.945C280.961 57.4414 281.078 57.8125 281.297 58.0938C281.523 58.375 281.809 58.5781 282.152 58.7031C282.504 58.8281 282.883 58.8906 283.289 58.8906C283.727 58.8906 284.09 58.832 284.379 58.7148C284.668 58.5898 284.887 58.4258 285.035 58.2227C285.191 58.0117 285.27 57.7695 285.27 57.4961ZM296.953 48.3203V50.7109H289.57V48.3203H296.953ZM291.398 45.1914H294.773V57.1797C294.773 57.5469 294.82 57.8281 294.914 58.0234C295.016 58.2188 295.164 58.3555 295.359 58.4336C295.555 58.5039 295.801 58.5391 296.098 58.5391C296.309 58.5391 296.496 58.5312 296.66 58.5156C296.832 58.4922 296.977 58.4688 297.094 58.4453L297.105 60.9297C296.816 61.0234 296.504 61.0977 296.168 61.1523C295.832 61.207 295.461 61.2344 295.055 61.2344C294.312 61.2344 293.664 61.1133 293.109 60.8711C292.562 60.6211 292.141 60.2227 291.844 59.6758C291.547 59.1289 291.398 58.4102 291.398 57.5195V45.1914ZM305.719 58.1406V52.4922C305.719 52.0859 305.652 51.7383 305.52 51.4492C305.387 51.1523 305.18 50.9219 304.898 50.7578C304.625 50.5938 304.27 50.5117 303.832 50.5117C303.457 50.5117 303.133 50.5781 302.859 50.7109C302.586 50.8359 302.375 51.0195 302.227 51.2617C302.078 51.4961 302.004 51.7734 302.004 52.0938H298.629C298.629 51.5547 298.754 51.043 299.004 50.5586C299.254 50.0742 299.617 49.6484 300.094 49.2812C300.57 48.9062 301.137 48.6133 301.793 48.4023C302.457 48.1914 303.199 48.0859 304.02 48.0859C305.004 48.0859 305.879 48.25 306.645 48.5781C307.41 48.9062 308.012 49.3984 308.449 50.0547C308.895 50.7109 309.117 51.5312 309.117 52.5156V57.9414C309.117 58.6367 309.16 59.207 309.246 59.6523C309.332 60.0898 309.457 60.4727 309.621 60.8008V61H306.211C306.047 60.6562 305.922 60.2266 305.836 59.7109C305.758 59.1875 305.719 58.6641 305.719 58.1406ZM306.164 53.2773L306.188 55.1875H304.301C303.855 55.1875 303.469 55.2383 303.141 55.3398C302.812 55.4414 302.543 55.5859 302.332 55.7734C302.121 55.9531 301.965 56.1641 301.863 56.4062C301.77 56.6484 301.723 56.9141 301.723 57.2031C301.723 57.4922 301.789 57.7539 301.922 57.9883C302.055 58.2148 302.246 58.3945 302.496 58.5273C302.746 58.6523 303.039 58.7148 303.375 58.7148C303.883 58.7148 304.324 58.6133 304.699 58.4102C305.074 58.207 305.363 57.957 305.566 57.6602C305.777 57.3633 305.887 57.082 305.895 56.8164L306.785 58.2461C306.66 58.5664 306.488 58.8984 306.27 59.2422C306.059 59.5859 305.789 59.9102 305.461 60.2148C305.133 60.5117 304.738 60.7578 304.277 60.9531C303.816 61.1406 303.27 61.2344 302.637 61.2344C301.832 61.2344 301.102 61.0742 300.445 60.7539C299.797 60.4258 299.281 59.9766 298.898 59.4062C298.523 58.8281 298.336 58.1719 298.336 57.4375C298.336 56.7734 298.461 56.1836 298.711 55.668C298.961 55.1523 299.328 54.7188 299.812 54.3672C300.305 54.0078 300.918 53.7383 301.652 53.5586C302.387 53.3711 303.238 53.2773 304.207 53.2773H306.164ZM317.93 48.3203V50.7109H310.547V48.3203H317.93ZM312.375 45.1914H315.75V57.1797C315.75 57.5469 315.797 57.8281 315.891 58.0234C315.992 58.2188 316.141 58.3555 316.336 58.4336C316.531 58.5039 316.777 58.5391 317.074 58.5391C317.285 58.5391 317.473 58.5312 317.637 58.5156C317.809 58.4922 317.953 58.4688 318.07 58.4453L318.082 60.9297C317.793 61.0234 317.48 61.0977 317.145 61.1523C316.809 61.207 316.438 61.2344 316.031 61.2344C315.289 61.2344 314.641 61.1133 314.086 60.8711C313.539 60.6211 313.117 60.2227 312.82 59.6758C312.523 59.1289 312.375 58.4102 312.375 57.5195V45.1914ZM325.688 61.2344C324.703 61.2344 323.82 61.0781 323.039 60.7656C322.258 60.4453 321.594 60.0039 321.047 59.4414C320.508 58.8789 320.094 58.2266 319.805 57.4844C319.516 56.7344 319.371 55.9375 319.371 55.0938V54.625C319.371 53.6641 319.508 52.7852 319.781 51.9883C320.055 51.1914 320.445 50.5 320.953 49.9141C321.469 49.3281 322.094 48.8789 322.828 48.5664C323.562 48.2461 324.391 48.0859 325.312 48.0859C326.211 48.0859 327.008 48.2344 327.703 48.5312C328.398 48.8281 328.98 49.25 329.449 49.7969C329.926 50.3438 330.285 51 330.527 51.7656C330.77 52.5234 330.891 53.3672 330.891 54.2969V55.7031H320.812V53.4531H327.574V53.1953C327.574 52.7266 327.488 52.3086 327.316 51.9414C327.152 51.5664 326.902 51.2695 326.566 51.0508C326.23 50.832 325.801 50.7227 325.277 50.7227C324.832 50.7227 324.449 50.8203 324.129 51.0156C323.809 51.2109 323.547 51.4844 323.344 51.8359C323.148 52.1875 323 52.6016 322.898 53.0781C322.805 53.5469 322.758 54.0625 322.758 54.625V55.0938C322.758 55.6016 322.828 56.0703 322.969 56.5C323.117 56.9297 323.324 57.3008 323.59 57.6133C323.863 57.9258 324.191 58.168 324.574 58.3398C324.965 58.5117 325.406 58.5977 325.898 58.5977C326.508 58.5977 327.074 58.4805 327.598 58.2461C328.129 58.0039 328.586 57.6406 328.969 57.1562L330.609 58.9375C330.344 59.3203 329.98 59.6875 329.52 60.0391C329.066 60.3906 328.52 60.6797 327.879 60.9062C327.238 61.125 326.508 61.2344 325.688 61.2344ZM342.738 43.9375V61H339.234V43.9375H342.738ZM349.125 51.0273V61H345.75V48.3203H348.914L349.125 51.0273ZM348.633 54.2148H347.719C347.719 53.2773 347.84 52.4336 348.082 51.6836C348.324 50.9258 348.664 50.2812 349.102 49.75C349.539 49.2109 350.059 48.8008 350.66 48.5195C351.27 48.2305 351.949 48.0859 352.699 48.0859C353.293 48.0859 353.836 48.1719 354.328 48.3438C354.82 48.5156 355.242 48.7891 355.594 49.1641C355.953 49.5391 356.227 50.0352 356.414 50.6523C356.609 51.2695 356.707 52.0234 356.707 52.9141V61H353.309V52.9023C353.309 52.3398 353.23 51.9023 353.074 51.5898C352.918 51.2773 352.688 51.0586 352.383 50.9336C352.086 50.8008 351.719 50.7344 351.281 50.7344C350.828 50.7344 350.434 50.8242 350.098 51.0039C349.77 51.1836 349.496 51.4336 349.277 51.7539C349.066 52.0664 348.906 52.4336 348.797 52.8555C348.688 53.2773 348.633 53.7305 348.633 54.2148ZM366.129 57.4961C366.129 57.2539 366.059 57.0352 365.918 56.8398C365.777 56.6445 365.516 56.4648 365.133 56.3008C364.758 56.1289 364.215 55.9727 363.504 55.832C362.863 55.6914 362.266 55.5156 361.711 55.3047C361.164 55.0859 360.688 54.8242 360.281 54.5195C359.883 54.2148 359.57 53.8555 359.344 53.4414C359.117 53.0195 359.004 52.5391 359.004 52C359.004 51.4688 359.117 50.9688 359.344 50.5C359.578 50.0312 359.91 49.6172 360.34 49.2578C360.777 48.8906 361.309 48.6055 361.934 48.4023C362.566 48.1914 363.277 48.0859 364.066 48.0859C365.168 48.0859 366.113 48.2617 366.902 48.6133C367.699 48.9648 368.309 49.4492 368.73 50.0664C369.16 50.6758 369.375 51.3711 369.375 52.1523H366C366 51.8242 365.93 51.5312 365.789 51.2734C365.656 51.0078 365.445 50.8008 365.156 50.6523C364.875 50.4961 364.508 50.418 364.055 50.418C363.68 50.418 363.355 50.4844 363.082 50.6172C362.809 50.7422 362.598 50.9141 362.449 51.1328C362.309 51.3438 362.238 51.5781 362.238 51.8359C362.238 52.0312 362.277 52.207 362.355 52.3633C362.441 52.5117 362.578 52.6484 362.766 52.7734C362.953 52.8984 363.195 53.0156 363.492 53.125C363.797 53.2266 364.172 53.3203 364.617 53.4062C365.531 53.5938 366.348 53.8398 367.066 54.1445C367.785 54.4414 368.355 54.8477 368.777 55.3633C369.199 55.8711 369.41 56.5391 369.41 57.3672C369.41 57.9297 369.285 58.4453 369.035 58.9141C368.785 59.3828 368.426 59.793 367.957 60.1445C367.488 60.4883 366.926 60.7578 366.27 60.9531C365.621 61.1406 364.891 61.2344 364.078 61.2344C362.898 61.2344 361.898 61.0234 361.078 60.6016C360.266 60.1797 359.648 59.6445 359.227 58.9961C358.812 58.3398 358.605 57.668 358.605 56.9805H361.805C361.82 57.4414 361.938 57.8125 362.156 58.0938C362.383 58.375 362.668 58.5781 363.012 58.7031C363.363 58.8281 363.742 58.8906 364.148 58.8906C364.586 58.8906 364.949 58.832 365.238 58.7148C365.527 58.5898 365.746 58.4258 365.895 58.2227C366.051 58.0117 366.129 57.7695 366.129 57.4961ZM375.164 48.3203V61H371.777V48.3203H375.164ZM371.566 45.0156C371.566 44.5234 371.738 44.1172 372.082 43.7969C372.426 43.4766 372.887 43.3164 373.465 43.3164C374.035 43.3164 374.492 43.4766 374.836 43.7969C375.188 44.1172 375.363 44.5234 375.363 45.0156C375.363 45.5078 375.188 45.9141 374.836 46.2344C374.492 46.5547 374.035 46.7148 373.465 46.7148C372.887 46.7148 372.426 46.5547 372.082 46.2344C371.738 45.9141 371.566 45.5078 371.566 45.0156ZM385.98 48.3203H389.039V60.5781C389.039 61.7344 388.781 62.7148 388.266 63.5195C387.758 64.332 387.047 64.9453 386.133 65.3594C385.219 65.7812 384.156 65.9922 382.945 65.9922C382.414 65.9922 381.852 65.9219 381.258 65.7812C380.672 65.6406 380.109 65.4219 379.57 65.125C379.039 64.8281 378.594 64.4531 378.234 64L379.723 62.0078C380.113 62.4609 380.566 62.8125 381.082 63.0625C381.598 63.3203 382.168 63.4492 382.793 63.4492C383.402 63.4492 383.918 63.3359 384.34 63.1094C384.762 62.8906 385.086 62.5664 385.312 62.1367C385.539 61.7148 385.652 61.2031 385.652 60.6016V51.25L385.98 48.3203ZM377.449 54.8125V54.5664C377.449 53.5977 377.566 52.7188 377.801 51.9297C378.043 51.1328 378.383 50.4492 378.82 49.8789C379.266 49.3086 379.805 48.8672 380.438 48.5547C381.07 48.2422 381.785 48.0859 382.582 48.0859C383.426 48.0859 384.133 48.2422 384.703 48.5547C385.273 48.8672 385.742 49.3125 386.109 49.8906C386.477 50.4609 386.762 51.1367 386.965 51.918C387.176 52.6914 387.34 53.5391 387.457 54.4609V55C387.34 55.8828 387.164 56.7031 386.93 57.4609C386.695 58.2188 386.387 58.8828 386.004 59.4531C385.621 60.0156 385.145 60.4531 384.574 60.7656C384.012 61.0781 383.34 61.2344 382.559 61.2344C381.777 61.2344 381.07 61.0742 380.438 60.7539C379.812 60.4336 379.277 59.9844 378.832 59.4062C378.387 58.8281 378.043 58.1484 377.801 57.3672C377.566 56.5859 377.449 55.7344 377.449 54.8125ZM380.824 54.5664V54.8125C380.824 55.3359 380.875 55.8242 380.977 56.2773C381.078 56.7305 381.234 57.1328 381.445 57.4844C381.664 57.8281 381.934 58.0977 382.254 58.293C382.582 58.4805 382.969 58.5742 383.414 58.5742C384.031 58.5742 384.535 58.4453 384.926 58.1875C385.316 57.9219 385.609 57.5586 385.805 57.0977C386 56.6367 386.113 56.1055 386.145 55.5039V53.9688C386.129 53.4766 386.062 53.0352 385.945 52.6445C385.828 52.2461 385.664 51.9062 385.453 51.625C385.242 51.3438 384.969 51.125 384.633 50.9688C384.297 50.8125 383.898 50.7344 383.438 50.7344C382.992 50.7344 382.605 50.8359 382.277 51.0391C381.957 51.2344 381.688 51.5039 381.469 51.8477C381.258 52.1914 381.098 52.5977 380.988 53.0664C380.879 53.5273 380.824 54.0273 380.824 54.5664ZM394.957 43V61H391.582V43H394.957ZM394.477 54.2148H393.551C393.559 53.332 393.676 52.5195 393.902 51.7773C394.129 51.0273 394.453 50.3789 394.875 49.832C395.297 49.2773 395.801 48.8477 396.387 48.543C396.98 48.2383 397.637 48.0859 398.355 48.0859C398.98 48.0859 399.547 48.1758 400.055 48.3555C400.57 48.5273 401.012 48.8086 401.379 49.1992C401.754 49.582 402.043 50.0859 402.246 50.7109C402.449 51.3359 402.551 52.0938 402.551 52.9844V61H399.152V52.9609C399.152 52.3984 399.07 51.957 398.906 51.6367C398.75 51.3086 398.52 51.0781 398.215 50.9453C397.918 50.8047 397.551 50.7344 397.113 50.7344C396.629 50.7344 396.215 50.8242 395.871 51.0039C395.535 51.1836 395.266 51.4336 395.062 51.7539C394.859 52.0664 394.711 52.4336 394.617 52.8555C394.523 53.2773 394.477 53.7305 394.477 54.2148ZM411.328 48.3203V50.7109H403.945V48.3203H411.328ZM405.773 45.1914H409.148V57.1797C409.148 57.5469 409.195 57.8281 409.289 58.0234C409.391 58.2188 409.539 58.3555 409.734 58.4336C409.93 58.5039 410.176 58.5391 410.473 58.5391C410.684 58.5391 410.871 58.5312 411.035 58.5156C411.207 58.4922 411.352 58.4688 411.469 58.4453L411.48 60.9297C411.191 61.0234 410.879 61.0977 410.543 61.1523C410.207 61.207 409.836 61.2344 409.43 61.2344C408.688 61.2344 408.039 61.1133 407.484 60.8711C406.938 60.6211 406.516 60.2227 406.219 59.6758C405.922 59.1289 405.773 58.4102 405.773 57.5195V45.1914ZM420.105 57.4961C420.105 57.2539 420.035 57.0352 419.895 56.8398C419.754 56.6445 419.492 56.4648 419.109 56.3008C418.734 56.1289 418.191 55.9727 417.48 55.832C416.84 55.6914 416.242 55.5156 415.688 55.3047C415.141 55.0859 414.664 54.8242 414.258 54.5195C413.859 54.2148 413.547 53.8555 413.32 53.4414C413.094 53.0195 412.98 52.5391 412.98 52C412.98 51.4688 413.094 50.9688 413.32 50.5C413.555 50.0312 413.887 49.6172 414.316 49.2578C414.754 48.8906 415.285 48.6055 415.91 48.4023C416.543 48.1914 417.254 48.0859 418.043 48.0859C419.145 48.0859 420.09 48.2617 420.879 48.6133C421.676 48.9648 422.285 49.4492 422.707 50.0664C423.137 50.6758 423.352 51.3711 423.352 52.1523H419.977C419.977 51.8242 419.906 51.5312 419.766 51.2734C419.633 51.0078 419.422 50.8008 419.133 50.6523C418.852 50.4961 418.484 50.418 418.031 50.418C417.656 50.418 417.332 50.4844 417.059 50.6172C416.785 50.7422 416.574 50.9141 416.426 51.1328C416.285 51.3438 416.215 51.5781 416.215 51.8359C416.215 52.0312 416.254 52.207 416.332 52.3633C416.418 52.5117 416.555 52.6484 416.742 52.7734C416.93 52.8984 417.172 53.0156 417.469 53.125C417.773 53.2266 418.148 53.3203 418.594 53.4062C419.508 53.5938 420.324 53.8398 421.043 54.1445C421.762 54.4414 422.332 54.8477 422.754 55.3633C423.176 55.8711 423.387 56.5391 423.387 57.3672C423.387 57.9297 423.262 58.4453 423.012 58.9141C422.762 59.3828 422.402 59.793 421.934 60.1445C421.465 60.4883 420.902 60.7578 420.246 60.9531C419.598 61.1406 418.867 61.2344 418.055 61.2344C416.875 61.2344 415.875 61.0234 415.055 60.6016C414.242 60.1797 413.625 59.6445 413.203 58.9961C412.789 58.3398 412.582 57.668 412.582 56.9805H415.781C415.797 57.4414 415.914 57.8125 416.133 58.0938C416.359 58.375 416.645 58.5781 416.988 58.7031C417.34 58.8281 417.719 58.8906 418.125 58.8906C418.562 58.8906 418.926 58.832 419.215 58.7148C419.504 58.5898 419.723 58.4258 419.871 58.2227C420.027 58.0117 420.105 57.7695 420.105 57.4961Z" fill="#888888"/>
<path d="M112.125 84.875V119H103.898V84.875H112.125ZM122.391 84.875V91.2266H93.8672V84.875H122.391ZM134.695 112.625V102.172C134.695 101.453 134.594 100.836 134.391 100.32C134.188 99.8047 133.867 99.4062 133.43 99.125C132.992 98.8281 132.406 98.6797 131.672 98.6797C131.078 98.6797 130.57 98.7812 130.148 98.9844C129.727 99.1875 129.406 99.4922 129.188 99.8984C128.969 100.305 128.859 100.82 128.859 101.445H120.961C120.961 100.273 121.219 99.1875 121.734 98.1875C122.266 97.1719 123.016 96.2891 123.984 95.5391C124.969 94.7891 126.141 94.2109 127.5 93.8047C128.875 93.3828 130.406 93.1719 132.094 93.1719C134.109 93.1719 135.906 93.5078 137.484 94.1797C139.078 94.8516 140.336 95.8594 141.258 97.2031C142.18 98.5312 142.641 100.203 142.641 102.219V112.602C142.641 114.258 142.734 115.516 142.922 116.375C143.109 117.219 143.375 117.961 143.719 118.602V119H135.797C135.422 118.219 135.141 117.266 134.953 116.141C134.781 115 134.695 113.828 134.695 112.625ZM135.656 103.508L135.703 107.727H132.211C131.477 107.727 130.852 107.828 130.336 108.031C129.836 108.234 129.43 108.516 129.117 108.875C128.82 109.219 128.602 109.609 128.461 110.047C128.336 110.484 128.273 110.945 128.273 111.43C128.273 111.898 128.383 112.32 128.602 112.695C128.836 113.055 129.148 113.336 129.539 113.539C129.93 113.742 130.367 113.844 130.852 113.844C131.727 113.844 132.469 113.68 133.078 113.352C133.703 113.008 134.18 112.594 134.508 112.109C134.836 111.625 135 111.172 135 110.75L136.734 113.984C136.422 114.609 136.062 115.242 135.656 115.883C135.266 116.523 134.773 117.117 134.18 117.664C133.602 118.195 132.891 118.633 132.047 118.977C131.203 119.305 130.18 119.469 128.977 119.469C127.414 119.469 125.977 119.148 124.664 118.508C123.367 117.867 122.328 116.977 121.547 115.836C120.766 114.68 120.375 113.352 120.375 111.852C120.375 110.539 120.609 109.367 121.078 108.336C121.562 107.305 122.289 106.43 123.258 105.711C124.227 104.992 125.461 104.445 126.961 104.07C128.461 103.695 130.227 103.508 132.258 103.508H135.656ZM147.094 83H154.992V112.766L154.172 119H147.094V83ZM170.555 106.039V106.531C170.555 108.453 170.359 110.203 169.969 111.781C169.578 113.359 168.977 114.727 168.164 115.883C167.352 117.023 166.328 117.906 165.094 118.531C163.859 119.156 162.398 119.469 160.711 119.469C159.18 119.469 157.867 119.141 156.773 118.484C155.68 117.812 154.766 116.891 154.031 115.719C153.297 114.531 152.703 113.164 152.25 111.617C151.797 110.055 151.438 108.383 151.172 106.602V106.016C151.438 104.25 151.797 102.594 152.25 101.047C152.703 99.4844 153.297 98.1172 154.031 96.9453C154.766 95.7578 155.672 94.8359 156.75 94.1797C157.844 93.5078 159.148 93.1719 160.664 93.1719C162.367 93.1719 163.836 93.4922 165.07 94.1328C166.32 94.7734 167.352 95.6719 168.164 96.8281C168.977 97.9844 169.578 99.3438 169.969 100.906C170.359 102.469 170.555 104.18 170.555 106.039ZM162.656 106.531V106.039C162.656 105.117 162.602 104.25 162.492 103.438C162.383 102.625 162.188 101.906 161.906 101.281C161.625 100.656 161.227 100.164 160.711 99.8047C160.195 99.4453 159.523 99.2656 158.695 99.2656C157.852 99.2656 157.141 99.4062 156.562 99.6875C156 99.9688 155.547 100.375 155.203 100.906C154.875 101.422 154.641 102.062 154.5 102.828C154.359 103.578 154.297 104.43 154.312 105.383V107.234C154.281 108.531 154.398 109.641 154.664 110.562C154.93 111.484 155.391 112.188 156.047 112.672C156.703 113.156 157.602 113.398 158.742 113.398C159.586 113.398 160.266 113.234 160.781 112.906C161.312 112.578 161.711 112.109 161.977 111.5C162.242 110.891 162.422 110.164 162.516 109.32C162.609 108.477 162.656 107.547 162.656 106.531ZM182.414 83V119H174.492V83H182.414ZM199.57 119.469C197.508 119.469 195.664 119.148 194.039 118.508C192.414 117.852 191.039 116.953 189.914 115.812C188.805 114.672 187.953 113.359 187.359 111.875C186.781 110.391 186.492 108.82 186.492 107.164V106.273C186.492 104.414 186.75 102.695 187.266 101.117C187.781 99.5234 188.547 98.1328 189.562 96.9453C190.578 95.7578 191.852 94.8359 193.383 94.1797C194.914 93.5078 196.695 93.1719 198.727 93.1719C200.523 93.1719 202.133 93.4609 203.555 94.0391C204.977 94.6172 206.18 95.4453 207.164 96.5234C208.164 97.6016 208.922 98.9062 209.438 100.438C209.969 101.969 210.234 103.688 210.234 105.594V108.805H189.516V103.859H202.523V103.25C202.539 102.406 202.391 101.688 202.078 101.094C201.781 100.5 201.344 100.047 200.766 99.7344C200.188 99.4219 199.484 99.2656 198.656 99.2656C197.797 99.2656 197.086 99.4531 196.523 99.8281C195.977 100.203 195.547 100.719 195.234 101.375C194.938 102.016 194.727 102.758 194.602 103.602C194.477 104.445 194.414 105.336 194.414 106.273V107.164C194.414 108.102 194.539 108.953 194.789 109.719C195.055 110.484 195.43 111.141 195.914 111.688C196.414 112.219 197.008 112.633 197.695 112.93C198.398 113.227 199.195 113.375 200.086 113.375C201.164 113.375 202.227 113.172 203.273 112.766C204.32 112.359 205.219 111.688 205.969 110.75L209.555 115.016C209.039 115.75 208.305 116.461 207.352 117.148C206.414 117.836 205.289 118.398 203.977 118.836C202.664 119.258 201.195 119.469 199.57 119.469ZM224.414 106.578V106.086C224.414 104.227 224.68 102.516 225.211 100.953C225.742 99.375 226.523 98.0078 227.555 96.8516C228.586 95.6953 229.859 94.7969 231.375 94.1562C232.891 93.5 234.641 93.1719 236.625 93.1719C238.625 93.1719 240.383 93.5 241.898 94.1562C243.43 94.7969 244.711 95.6953 245.742 96.8516C246.773 98.0078 247.555 99.375 248.086 100.953C248.617 102.516 248.883 104.227 248.883 106.086V106.578C248.883 108.422 248.617 110.133 248.086 111.711C247.555 113.273 246.773 114.641 245.742 115.812C244.711 116.969 243.438 117.867 241.922 118.508C240.406 119.148 238.656 119.469 236.672 119.469C234.688 119.469 232.93 119.148 231.398 118.508C229.867 117.867 228.586 116.969 227.555 115.812C226.523 114.641 225.742 113.273 225.211 111.711C224.68 110.133 224.414 108.422 224.414 106.578ZM232.312 106.086V106.578C232.312 107.531 232.383 108.422 232.523 109.25C232.664 110.078 232.898 110.805 233.227 111.43C233.555 112.039 234 112.516 234.562 112.859C235.125 113.203 235.828 113.375 236.672 113.375C237.5 113.375 238.188 113.203 238.734 112.859C239.297 112.516 239.742 112.039 240.07 111.43C240.398 110.805 240.633 110.078 240.773 109.25C240.914 108.422 240.984 107.531 240.984 106.578V106.086C240.984 105.164 240.914 104.297 240.773 103.484C240.633 102.656 240.398 101.93 240.07 101.305C239.742 100.664 239.297 100.164 238.734 99.8047C238.172 99.4453 237.469 99.2656 236.625 99.2656C235.797 99.2656 235.102 99.4453 234.539 99.8047C233.992 100.164 233.555 100.664 233.227 101.305C232.898 101.93 232.664 102.656 232.523 103.484C232.383 104.297 232.312 105.164 232.312 106.086ZM262.078 119H254.133V91.5781C254.133 89.6094 254.531 87.9531 255.328 86.6094C256.125 85.2656 257.25 84.25 258.703 83.5625C260.156 82.8594 261.875 82.5078 263.859 82.5078C264.547 82.5078 265.195 82.5547 265.805 82.6484C266.414 82.7422 267.008 82.8594 267.586 83L267.609 88.8125C267.328 88.7344 267.039 88.6797 266.742 88.6484C266.445 88.6172 266.078 88.6016 265.641 88.6016C264.875 88.6016 264.227 88.7188 263.695 88.9531C263.164 89.1719 262.758 89.5078 262.477 89.9609C262.211 90.3984 262.078 90.9375 262.078 91.5781V119ZM267 93.6406V99.125H250.477V93.6406H267ZM301.57 107.445H309.773C309.664 109.82 309.023 111.914 307.852 113.727C306.68 115.539 305.055 116.953 302.977 117.969C300.914 118.969 298.477 119.469 295.664 119.469C293.383 119.469 291.344 119.086 289.547 118.32C287.766 117.555 286.25 116.453 285 115.016C283.766 113.578 282.82 111.836 282.164 109.789C281.523 107.742 281.203 105.438 281.203 102.875V101.023C281.203 98.4609 281.539 96.1562 282.211 94.1094C282.898 92.0469 283.867 90.2969 285.117 88.8594C286.383 87.4062 287.898 86.2969 289.664 85.5312C291.43 84.7656 293.391 84.3828 295.547 84.3828C298.516 84.3828 301.023 84.9141 303.07 85.9766C305.117 87.0391 306.703 88.5 307.828 90.3594C308.953 92.2031 309.617 94.3047 309.82 96.6641H301.617C301.586 95.3828 301.367 94.3125 300.961 93.4531C300.555 92.5781 299.914 91.9219 299.039 91.4844C298.164 91.0469 297 90.8281 295.547 90.8281C294.531 90.8281 293.648 91.0156 292.898 91.3906C292.148 91.7656 291.523 92.3594 291.023 93.1719C290.523 93.9844 290.148 95.0391 289.898 96.3359C289.664 97.6172 289.547 99.1641 289.547 100.977V102.875C289.547 104.688 289.656 106.234 289.875 107.516C290.094 108.797 290.445 109.844 290.93 110.656C291.414 111.469 292.039 112.07 292.805 112.461C293.586 112.836 294.539 113.023 295.664 113.023C296.914 113.023 297.969 112.828 298.828 112.438C299.688 112.031 300.352 111.422 300.82 110.609C301.289 109.781 301.539 108.727 301.57 107.445ZM312.305 106.578V106.086C312.305 104.227 312.57 102.516 313.102 100.953C313.633 99.375 314.414 98.0078 315.445 96.8516C316.477 95.6953 317.75 94.7969 319.266 94.1562C320.781 93.5 322.531 93.1719 324.516 93.1719C326.516 93.1719 328.273 93.5 329.789 94.1562C331.32 94.7969 332.602 95.6953 333.633 96.8516C334.664 98.0078 335.445 99.375 335.977 100.953C336.508 102.516 336.773 104.227 336.773 106.086V106.578C336.773 108.422 336.508 110.133 335.977 111.711C335.445 113.273 334.664 114.641 333.633 115.812C332.602 116.969 331.328 117.867 329.812 118.508C328.297 119.148 326.547 119.469 324.562 119.469C322.578 119.469 320.82 119.148 319.289 118.508C317.758 117.867 316.477 116.969 315.445 115.812C314.414 114.641 313.633 113.273 313.102 111.711C312.57 110.133 312.305 108.422 312.305 106.578ZM320.203 106.086V106.578C320.203 107.531 320.273 108.422 320.414 109.25C320.555 110.078 320.789 110.805 321.117 111.43C321.445 112.039 321.891 112.516 322.453 112.859C323.016 113.203 323.719 113.375 324.562 113.375C325.391 113.375 326.078 113.203 326.625 112.859C327.188 112.516 327.633 112.039 327.961 111.43C328.289 110.805 328.523 110.078 328.664 109.25C328.805 108.422 328.875 107.531 328.875 106.578V106.086C328.875 105.164 328.805 104.297 328.664 103.484C328.523 102.656 328.289 101.93 327.961 101.305C327.633 100.664 327.188 100.164 326.625 99.8047C326.062 99.4453 325.359 99.2656 324.516 99.2656C323.688 99.2656 322.992 99.4453 322.43 99.8047C321.883 100.164 321.445 100.664 321.117 101.305C320.789 101.93 320.555 102.656 320.414 103.484C320.273 104.297 320.203 105.164 320.203 106.086ZM348.047 99.0547V119H340.148V93.6406H347.555L348.047 99.0547ZM347.109 105.453L345.258 105.5C345.258 103.562 345.492 101.836 345.961 100.32C346.43 98.7891 347.094 97.4922 347.953 96.4297C348.812 95.3672 349.836 94.5625 351.023 94.0156C352.227 93.4531 353.562 93.1719 355.031 93.1719C356.203 93.1719 357.273 93.3438 358.242 93.6875C359.227 94.0312 360.07 94.5859 360.773 95.3516C361.492 96.1172 362.039 97.1328 362.414 98.3984C362.805 99.6484 363 101.195 363 103.039V119H355.055V103.016C355.055 102 354.914 101.227 354.633 100.695C354.352 100.148 353.945 99.7734 353.414 99.5703C352.883 99.3672 352.234 99.2656 351.469 99.2656C350.656 99.2656 349.969 99.4219 349.406 99.7344C348.844 100.047 348.391 100.484 348.047 101.047C347.719 101.594 347.477 102.242 347.32 102.992C347.18 103.742 347.109 104.562 347.109 105.453ZM380.742 93.6406V99.125H365.461V93.6406H380.742ZM368.672 87.3359H376.57V110.727C376.57 111.398 376.648 111.922 376.805 112.297C376.961 112.656 377.227 112.914 377.602 113.07C377.992 113.211 378.508 113.281 379.148 113.281C379.602 113.281 379.977 113.273 380.273 113.258C380.57 113.227 380.852 113.188 381.117 113.141V118.789C380.445 119.008 379.742 119.172 379.008 119.281C378.273 119.406 377.492 119.469 376.664 119.469C374.977 119.469 373.531 119.203 372.328 118.672C371.141 118.141 370.234 117.305 369.609 116.164C368.984 115.023 368.672 113.539 368.672 111.711V87.3359ZM396.164 119.469C394.102 119.469 392.258 119.148 390.633 118.508C389.008 117.852 387.633 116.953 386.508 115.812C385.398 114.672 384.547 113.359 383.953 111.875C383.375 110.391 383.086 108.82 383.086 107.164V106.273C383.086 104.414 383.344 102.695 383.859 101.117C384.375 99.5234 385.141 98.1328 386.156 96.9453C387.172 95.7578 388.445 94.8359 389.977 94.1797C391.508 93.5078 393.289 93.1719 395.32 93.1719C397.117 93.1719 398.727 93.4609 400.148 94.0391C401.57 94.6172 402.773 95.4453 403.758 96.5234C404.758 97.6016 405.516 98.9062 406.031 100.438C406.562 101.969 406.828 103.688 406.828 105.594V108.805H386.109V103.859H399.117V103.25C399.133 102.406 398.984 101.688 398.672 101.094C398.375 100.5 397.938 100.047 397.359 99.7344C396.781 99.4219 396.078 99.2656 395.25 99.2656C394.391 99.2656 393.68 99.4531 393.117 99.8281C392.57 100.203 392.141 100.719 391.828 101.375C391.531 102.016 391.32 102.758 391.195 103.602C391.07 104.445 391.008 105.336 391.008 106.273V107.164C391.008 108.102 391.133 108.953 391.383 109.719C391.648 110.484 392.023 111.141 392.508 111.688C393.008 112.219 393.602 112.633 394.289 112.93C394.992 113.227 395.789 113.375 396.68 113.375C397.758 113.375 398.82 113.172 399.867 112.766C400.914 112.359 401.812 111.688 402.562 110.75L406.148 115.016C405.633 115.75 404.898 116.461 403.945 117.148C403.008 117.836 401.883 118.398 400.57 118.836C399.258 119.258 397.789 119.469 396.164 119.469ZM417.797 99.0547V119H409.898V93.6406H417.305L417.797 99.0547ZM416.859 105.453L415.008 105.5C415.008 103.562 415.242 101.836 415.711 100.32C416.18 98.7891 416.844 97.4922 417.703 96.4297C418.562 95.3672 419.586 94.5625 420.773 94.0156C421.977 93.4531 423.312 93.1719 424.781 93.1719C425.953 93.1719 427.023 93.3438 427.992 93.6875C428.977 94.0312 429.82 94.5859 430.523 95.3516C431.242 96.1172 431.789 97.1328 432.164 98.3984C432.555 99.6484 432.75 101.195 432.75 103.039V119H424.805V103.016C424.805 102 424.664 101.227 424.383 100.695C424.102 100.148 423.695 99.7734 423.164 99.5703C422.633 99.3672 421.984 99.2656 421.219 99.2656C420.406 99.2656 419.719 99.4219 419.156 99.7344C418.594 100.047 418.141 100.484 417.797 101.047C417.469 101.594 417.227 102.242 417.07 102.992C416.93 103.742 416.859 104.562 416.859 105.453ZM450.492 93.6406V99.125H435.211V93.6406H450.492ZM438.422 87.3359H446.32V110.727C446.32 111.398 446.398 111.922 446.555 112.297C446.711 112.656 446.977 112.914 447.352 113.07C447.742 113.211 448.258 113.281 448.898 113.281C449.352 113.281 449.727 113.273 450.023 113.258C450.32 113.227 450.602 113.188 450.867 113.141V118.789C450.195 119.008 449.492 119.172 448.758 119.281C448.023 119.406 447.242 119.469 446.414 119.469C444.727 119.469 443.281 119.203 442.078 118.672C440.891 118.141 439.984 117.305 439.359 116.164C438.734 115.023 438.422 113.539 438.422 111.711V87.3359ZM466.922 111.875C466.922 111.438 466.773 111.062 466.477 110.75C466.195 110.422 465.695 110.125 464.977 109.859C464.258 109.578 463.25 109.297 461.953 109.016C460.719 108.75 459.555 108.398 458.461 107.961C457.383 107.523 456.438 106.992 455.625 106.367C454.812 105.742 454.172 105 453.703 104.141C453.25 103.281 453.023 102.297 453.023 101.188C453.023 100.109 453.25 99.0938 453.703 98.1406C454.172 97.1719 454.852 96.3203 455.742 95.5859C456.648 94.8359 457.75 94.25 459.047 93.8281C460.344 93.3906 461.82 93.1719 463.477 93.1719C465.758 93.1719 467.727 93.5234 469.383 94.2266C471.039 94.9141 472.312 95.8828 473.203 97.1328C474.109 98.3672 474.562 99.7969 474.562 101.422H466.664C466.664 100.781 466.555 100.234 466.336 99.7812C466.133 99.3281 465.797 98.9844 465.328 98.75C464.859 98.5 464.234 98.375 463.453 98.375C462.906 98.375 462.406 98.4766 461.953 98.6797C461.516 98.8828 461.164 99.1641 460.898 99.5234C460.633 99.8828 460.5 100.305 460.5 100.789C460.5 101.133 460.578 101.445 460.734 101.727C460.906 101.992 461.164 102.242 461.508 102.477C461.852 102.695 462.289 102.898 462.82 103.086C463.352 103.258 463.992 103.414 464.742 103.555C466.445 103.867 468.039 104.312 469.523 104.891C471.008 105.469 472.211 106.289 473.133 107.352C474.07 108.414 474.539 109.844 474.539 111.641C474.539 112.766 474.281 113.805 473.766 114.758C473.25 115.695 472.508 116.523 471.539 117.242C470.57 117.945 469.406 118.492 468.047 118.883C466.688 119.273 465.156 119.469 463.453 119.469C461.031 119.469 458.984 119.039 457.312 118.18C455.641 117.305 454.375 116.211 453.516 114.898C452.672 113.57 452.25 112.227 452.25 110.867H459.609C459.641 111.648 459.828 112.289 460.172 112.789C460.531 113.289 461.008 113.656 461.602 113.891C462.195 114.125 462.883 114.242 463.664 114.242C464.383 114.242 464.977 114.141 465.445 113.938C465.93 113.734 466.297 113.461 466.547 113.117C466.797 112.758 466.922 112.344 466.922 111.875Z" fill="black"/>
<path d="M1134 0H1348C1356.28 0 1363 6.71573 1363 15V148C1363 156.284 1356.28 163 1348 163H1134V0Z" fill="#8DB78F"/>
<path d="M1260.62 78.8078C1263.81 78.8078 1266.93 79.7552 1269.59 81.5302C1272.25 83.3052 1274.32 85.8281 1275.54 88.7798C1276.76 91.7315 1277.08 94.9795 1276.46 98.1131C1275.84 101.247 1274.3 104.125 1272.04 106.384C1269.78 108.643 1266.9 110.182 1263.77 110.805C1260.63 111.428 1257.39 111.108 1254.43 109.886C1251.48 108.663 1248.96 106.593 1247.18 103.936C1245.41 101.28 1244.46 98.1565 1244.46 94.9616C1244.46 90.6774 1246.16 86.5686 1249.19 83.5392C1252.22 80.5097 1256.33 78.8078 1260.62 78.8078V78.8078ZM1260.62 73.4232C1256.36 73.4232 1252.19 74.6864 1248.65 77.0531C1245.11 79.4198 1242.35 82.7836 1240.72 86.7192C1239.09 90.6549 1238.66 94.9855 1239.49 99.1636C1240.32 103.342 1242.37 107.179 1245.39 110.192C1248.4 113.204 1252.24 115.255 1256.41 116.086C1260.59 116.917 1264.92 116.491 1268.86 114.861C1272.79 113.23 1276.16 110.47 1278.52 106.928C1280.89 103.386 1282.15 99.2215 1282.15 94.9616C1282.15 89.2493 1279.88 83.7709 1275.85 79.7317C1271.81 75.6924 1266.33 73.4232 1260.62 73.4232Z" fill="white"/>
<path d="M1274.08 46.4999H1220.23C1218.8 46.4999 1217.43 47.0672 1216.42 48.0771C1215.41 49.0869 1214.85 50.4565 1214.85 51.8845V105.731C1214.85 107.159 1215.41 108.528 1216.42 109.538C1217.43 110.548 1218.8 111.115 1220.23 111.115H1231V105.731H1220.23V68.0383H1279.46V51.8845C1279.46 50.4565 1278.89 49.0869 1277.88 48.0771C1276.87 47.0672 1275.5 46.4999 1274.08 46.4999V46.4999ZM1220.23 62.6537V51.8845H1274.08V62.6537H1220.23Z" fill="white"/>
<path d="M1255.23 86.8848V103.039L1268.69 94.9617L1255.23 86.8848Z" fill="white"/>
</svg>
