<svg width="1363" height="163" viewBox="0 0 1363 163" fill="none" xmlns="http://www.w3.org/2000/svg">
<path d="M0 15C0 6.71573 6.71573 0 15 0H37V163H15C6.71573 163 0 156.284 0 148V15Z" fill="#424242"/>
<rect width="1097" height="163" transform="translate(37)" fill="#F0F0F0"/>
<path d="M101.906 53.9219L94.3945 51.2383V48.0859L104.602 52.375V54.6367L101.906 53.9219ZM94.3945 56.1719L101.918 53.4297L104.602 52.7852V55.0352L94.3945 59.3242V56.1719ZM123.867 58.2578V61H115.277V58.2578H123.867ZM116.414 43.9375V61H112.898V43.9375H116.414ZM131.508 61.2344C130.523 61.2344 129.641 61.0781 128.859 60.7656C128.078 60.4453 127.414 60.0039 126.867 59.4414C126.328 58.8789 125.914 58.2266 125.625 57.4844C125.336 56.7344 125.191 55.9375 125.191 55.0938V54.625C125.191 53.6641 125.328 52.7852 125.602 51.9883C125.875 51.1914 126.266 50.5 126.773 49.9141C127.289 49.3281 127.914 48.8789 128.648 48.5664C129.383 48.2461 130.211 48.0859 131.133 48.0859C132.031 48.0859 132.828 48.2344 133.523 48.5312C134.219 48.8281 134.801 49.25 135.27 49.7969C135.746 50.3438 136.105 51 136.348 51.7656C136.59 52.5234 136.711 53.3672 136.711 54.2969V55.7031H126.633V53.4531H133.395V53.1953C133.395 52.7266 133.309 52.3086 133.137 51.9414C132.973 51.5664 132.723 51.2695 132.387 51.0508C132.051 50.832 131.621 50.7227 131.098 50.7227C130.652 50.7227 130.27 50.8203 129.949 51.0156C129.629 51.2109 129.367 51.4844 129.164 51.8359C128.969 52.1875 128.82 52.6016 128.719 53.0781C128.625 53.5469 128.578 54.0625 128.578 54.625V55.0938C128.578 55.6016 128.648 56.0703 128.789 56.5C128.938 56.9297 129.145 57.3008 129.41 57.6133C129.684 57.9258 130.012 58.168 130.395 58.3398C130.785 58.5117 131.227 58.5977 131.719 58.5977C132.328 58.5977 132.895 58.4805 133.418 58.2461C133.949 58.0039 134.406 57.6406 134.789 57.1562L136.43 58.9375C136.164 59.3203 135.801 59.6875 135.34 60.0391C134.887 60.3906 134.34 60.6797 133.699 60.9062C133.059 61.125 132.328 61.2344 131.508 61.2344ZM138.633 43H142.008V58.0938L141.668 61H138.633V43ZM150.035 54.5312V54.7773C150.035 55.7227 149.934 56.5898 149.73 57.3789C149.535 58.168 149.23 58.8516 148.816 59.4297C148.402 60 147.887 60.4453 147.27 60.7656C146.66 61.0781 145.941 61.2344 145.113 61.2344C144.34 61.2344 143.668 61.0781 143.098 60.7656C142.535 60.4531 142.062 60.0117 141.68 59.4414C141.297 58.8711 140.988 58.2031 140.754 57.4375C140.52 56.6719 140.344 55.8359 140.227 54.9297V54.3906C140.344 53.4844 140.52 52.6484 140.754 51.8828C140.988 51.1172 141.297 50.4492 141.68 49.8789C142.062 49.3086 142.535 48.8672 143.098 48.5547C143.66 48.2422 144.324 48.0859 145.09 48.0859C145.926 48.0859 146.652 48.2461 147.27 48.5664C147.895 48.8789 148.41 49.3242 148.816 49.9023C149.23 50.4727 149.535 51.1523 149.73 51.9414C149.934 52.7227 150.035 53.5859 150.035 54.5312ZM146.66 54.7773V54.5312C146.66 54.0156 146.621 53.5312 146.543 53.0781C146.473 52.6172 146.348 52.2148 146.168 51.8711C145.988 51.5195 145.742 51.2422 145.43 51.0391C145.125 50.8359 144.73 50.7344 144.246 50.7344C143.785 50.7344 143.395 50.8125 143.074 50.9688C142.754 51.125 142.488 51.3438 142.277 51.625C142.074 51.9062 141.922 52.2422 141.82 52.6328C141.719 53.0156 141.656 53.4375 141.633 53.8984V55.4336C141.656 56.0508 141.758 56.5977 141.938 57.0742C142.125 57.543 142.406 57.9141 142.781 58.1875C143.164 58.4531 143.66 58.5859 144.27 58.5859C144.746 58.5859 145.141 58.4922 145.453 58.3047C145.766 58.1172 146.008 57.8516 146.18 57.5078C146.359 57.1641 146.484 56.7617 146.555 56.3008C146.625 55.832 146.66 55.3242 146.66 54.7773ZM158.977 58.1406V52.4922C158.977 52.0859 158.91 51.7383 158.777 51.4492C158.645 51.1523 158.438 50.9219 158.156 50.7578C157.883 50.5938 157.527 50.5117 157.09 50.5117C156.715 50.5117 156.391 50.5781 156.117 50.7109C155.844 50.8359 155.633 51.0195 155.484 51.2617C155.336 51.4961 155.262 51.7734 155.262 52.0938H151.887C151.887 51.5547 152.012 51.043 152.262 50.5586C152.512 50.0742 152.875 49.6484 153.352 49.2812C153.828 48.9062 154.395 48.6133 155.051 48.4023C155.715 48.1914 156.457 48.0859 157.277 48.0859C158.262 48.0859 159.137 48.25 159.902 48.5781C160.668 48.9062 161.27 49.3984 161.707 50.0547C162.152 50.7109 162.375 51.5312 162.375 52.5156V57.9414C162.375 58.6367 162.418 59.207 162.504 59.6523C162.59 60.0898 162.715 60.4727 162.879 60.8008V61H159.469C159.305 60.6562 159.18 60.2266 159.094 59.7109C159.016 59.1875 158.977 58.6641 158.977 58.1406ZM159.422 53.2773L159.445 55.1875H157.559C157.113 55.1875 156.727 55.2383 156.398 55.3398C156.07 55.4414 155.801 55.5859 155.59 55.7734C155.379 55.9531 155.223 56.1641 155.121 56.4062C155.027 56.6484 154.98 56.9141 154.98 57.2031C154.98 57.4922 155.047 57.7539 155.18 57.9883C155.312 58.2148 155.504 58.3945 155.754 58.5273C156.004 58.6523 156.297 58.7148 156.633 58.7148C157.141 58.7148 157.582 58.6133 157.957 58.4102C158.332 58.207 158.621 57.957 158.824 57.6602C159.035 57.3633 159.145 57.082 159.152 56.8164L160.043 58.2461C159.918 58.5664 159.746 58.8984 159.527 59.2422C159.316 59.5859 159.047 59.9102 158.719 60.2148C158.391 60.5117 157.996 60.7578 157.535 60.9531C157.074 61.1406 156.527 61.2344 155.895 61.2344C155.09 61.2344 154.359 61.0742 153.703 60.7539C153.055 60.4258 152.539 59.9766 152.156 59.4062C151.781 58.8281 151.594 58.1719 151.594 57.4375C151.594 56.7734 151.719 56.1836 151.969 55.668C152.219 55.1523 152.586 54.7188 153.07 54.3672C153.562 54.0078 154.176 53.7383 154.91 53.5586C155.645 53.3711 156.496 53.2773 157.465 53.2773H159.422ZM168.281 51.0273V61H164.906V48.3203H168.07L168.281 51.0273ZM167.789 54.2148H166.875C166.875 53.2773 166.996 52.4336 167.238 51.6836C167.48 50.9258 167.82 50.2812 168.258 49.75C168.695 49.2109 169.215 48.8008 169.816 48.5195C170.426 48.2305 171.105 48.0859 171.855 48.0859C172.449 48.0859 172.992 48.1719 173.484 48.3438C173.977 48.5156 174.398 48.7891 174.75 49.1641C175.109 49.5391 175.383 50.0352 175.57 50.6523C175.766 51.2695 175.863 52.0234 175.863 52.9141V61H172.465V52.9023C172.465 52.3398 172.387 51.9023 172.23 51.5898C172.074 51.2773 171.844 51.0586 171.539 50.9336C171.242 50.8008 170.875 50.7344 170.438 50.7344C169.984 50.7344 169.59 50.8242 169.254 51.0039C168.926 51.1836 168.652 51.4336 168.434 51.7539C168.223 52.0664 168.062 52.4336 167.953 52.8555C167.844 53.2773 167.789 53.7305 167.789 54.2148ZM177.891 54.7891V54.543C177.891 53.6133 178.023 52.7578 178.289 51.9766C178.555 51.1875 178.941 50.5039 179.449 49.9258C179.957 49.3477 180.582 48.8984 181.324 48.5781C182.066 48.25 182.918 48.0859 183.879 48.0859C184.84 48.0859 185.695 48.25 186.445 48.5781C187.195 48.8984 187.824 49.3477 188.332 49.9258C188.848 50.5039 189.238 51.1875 189.504 51.9766C189.77 52.7578 189.902 53.6133 189.902 54.543V54.7891C189.902 55.7109 189.77 56.5664 189.504 57.3555C189.238 58.1367 188.848 58.8203 188.332 59.4062C187.824 59.9844 187.199 60.4336 186.457 60.7539C185.715 61.0742 184.863 61.2344 183.902 61.2344C182.941 61.2344 182.086 61.0742 181.336 60.7539C180.594 60.4336 179.965 59.9844 179.449 59.4062C178.941 58.8203 178.555 58.1367 178.289 57.3555C178.023 56.5664 177.891 55.7109 177.891 54.7891ZM181.266 54.543V54.7891C181.266 55.3203 181.312 55.8164 181.406 56.2773C181.5 56.7383 181.648 57.1445 181.852 57.4961C182.062 57.8398 182.336 58.1094 182.672 58.3047C183.008 58.5 183.418 58.5977 183.902 58.5977C184.371 58.5977 184.773 58.5 185.109 58.3047C185.445 58.1094 185.715 57.8398 185.918 57.4961C186.121 57.1445 186.27 56.7383 186.363 56.2773C186.465 55.8164 186.516 55.3203 186.516 54.7891V54.543C186.516 54.0273 186.465 53.543 186.363 53.0898C186.27 52.6289 186.117 52.2227 185.906 51.8711C185.703 51.5117 185.434 51.2305 185.098 51.0273C184.762 50.8242 184.355 50.7227 183.879 50.7227C183.402 50.7227 182.996 50.8242 182.66 51.0273C182.332 51.2305 182.062 51.5117 181.852 51.8711C181.648 52.2227 181.5 52.6289 181.406 53.0898C181.312 53.543 181.266 54.0273 181.266 54.543ZM195.281 51.0273V61H191.906V48.3203H195.07L195.281 51.0273ZM194.789 54.2148H193.875C193.875 53.2773 193.996 52.4336 194.238 51.6836C194.48 50.9258 194.82 50.2812 195.258 49.75C195.695 49.2109 196.215 48.8008 196.816 48.5195C197.426 48.2305 198.105 48.0859 198.855 48.0859C199.449 48.0859 199.992 48.1719 200.484 48.3438C200.977 48.5156 201.398 48.7891 201.75 49.1641C202.109 49.5391 202.383 50.0352 202.57 50.6523C202.766 51.2695 202.863 52.0234 202.863 52.9141V61H199.465V52.9023C199.465 52.3398 199.387 51.9023 199.23 51.5898C199.074 51.2773 198.844 51.0586 198.539 50.9336C198.242 50.8008 197.875 50.7344 197.438 50.7344C196.984 50.7344 196.59 50.8242 196.254 51.0039C195.926 51.1836 195.652 51.4336 195.434 51.7539C195.223 52.0664 195.062 52.4336 194.953 52.8555C194.844 53.2773 194.789 53.7305 194.789 54.2148ZM211.617 43.9375H217.98C219.285 43.9375 220.406 44.1328 221.344 44.5234C222.289 44.9141 223.016 45.4922 223.523 46.2578C224.031 47.0234 224.285 47.9648 224.285 49.082C224.285 49.9961 224.129 50.7812 223.816 51.4375C223.512 52.0859 223.078 52.6289 222.516 53.0664C221.961 53.4961 221.309 53.8398 220.559 54.0977L219.445 54.6836H213.914L213.891 51.9414H218.004C218.621 51.9414 219.133 51.832 219.539 51.6133C219.945 51.3945 220.25 51.0898 220.453 50.6992C220.664 50.3086 220.77 49.8555 220.77 49.3398C220.77 48.793 220.668 48.3203 220.465 47.9219C220.262 47.5234 219.953 47.2188 219.539 47.0078C219.125 46.7969 218.605 46.6914 217.98 46.6914H215.133V61H211.617V43.9375ZM221.156 61L217.266 53.3945L220.98 53.3711L224.918 60.8359V61H221.156ZM232.617 61.2344C231.633 61.2344 230.75 61.0781 229.969 60.7656C229.188 60.4453 228.523 60.0039 227.977 59.4414C227.438 58.8789 227.023 58.2266 226.734 57.4844C226.445 56.7344 226.301 55.9375 226.301 55.0938V54.625C226.301 53.6641 226.438 52.7852 226.711 51.9883C226.984 51.1914 227.375 50.5 227.883 49.9141C228.398 49.3281 229.023 48.8789 229.758 48.5664C230.492 48.2461 231.32 48.0859 232.242 48.0859C233.141 48.0859 233.938 48.2344 234.633 48.5312C235.328 48.8281 235.91 49.25 236.379 49.7969C236.855 50.3438 237.215 51 237.457 51.7656C237.699 52.5234 237.82 53.3672 237.82 54.2969V55.7031H227.742V53.4531H234.504V53.1953C234.504 52.7266 234.418 52.3086 234.246 51.9414C234.082 51.5664 233.832 51.2695 233.496 51.0508C233.16 50.832 232.73 50.7227 232.207 50.7227C231.762 50.7227 231.379 50.8203 231.059 51.0156C230.738 51.2109 230.477 51.4844 230.273 51.8359C230.078 52.1875 229.93 52.6016 229.828 53.0781C229.734 53.5469 229.688 54.0625 229.688 54.625V55.0938C229.688 55.6016 229.758 56.0703 229.898 56.5C230.047 56.9297 230.254 57.3008 230.52 57.6133C230.793 57.9258 231.121 58.168 231.504 58.3398C231.895 58.5117 232.336 58.5977 232.828 58.5977C233.438 58.5977 234.004 58.4805 234.527 58.2461C235.059 58.0039 235.516 57.6406 235.898 57.1562L237.539 58.9375C237.273 59.3203 236.91 59.6875 236.449 60.0391C235.996 60.3906 235.449 60.6797 234.809 60.9062C234.168 61.125 233.438 61.2344 232.617 61.2344ZM246.586 58.1406V52.4922C246.586 52.0859 246.52 51.7383 246.387 51.4492C246.254 51.1523 246.047 50.9219 245.766 50.7578C245.492 50.5938 245.137 50.5117 244.699 50.5117C244.324 50.5117 244 50.5781 243.727 50.7109C243.453 50.8359 243.242 51.0195 243.094 51.2617C242.945 51.4961 242.871 51.7734 242.871 52.0938H239.496C239.496 51.5547 239.621 51.043 239.871 50.5586C240.121 50.0742 240.484 49.6484 240.961 49.2812C241.438 48.9062 242.004 48.6133 242.66 48.4023C243.324 48.1914 244.066 48.0859 244.887 48.0859C245.871 48.0859 246.746 48.25 247.512 48.5781C248.277 48.9062 248.879 49.3984 249.316 50.0547C249.762 50.7109 249.984 51.5312 249.984 52.5156V57.9414C249.984 58.6367 250.027 59.207 250.113 59.6523C250.199 60.0898 250.324 60.4727 250.488 60.8008V61H247.078C246.914 60.6562 246.789 60.2266 246.703 59.7109C246.625 59.1875 246.586 58.6641 246.586 58.1406ZM247.031 53.2773L247.055 55.1875H245.168C244.723 55.1875 244.336 55.2383 244.008 55.3398C243.68 55.4414 243.41 55.5859 243.199 55.7734C242.988 55.9531 242.832 56.1641 242.73 56.4062C242.637 56.6484 242.59 56.9141 242.59 57.2031C242.59 57.4922 242.656 57.7539 242.789 57.9883C242.922 58.2148 243.113 58.3945 243.363 58.5273C243.613 58.6523 243.906 58.7148 244.242 58.7148C244.75 58.7148 245.191 58.6133 245.566 58.4102C245.941 58.207 246.23 57.957 246.434 57.6602C246.645 57.3633 246.754 57.082 246.762 56.8164L247.652 58.2461C247.527 58.5664 247.355 58.8984 247.137 59.2422C246.926 59.5859 246.656 59.9102 246.328 60.2148C246 60.5117 245.605 60.7578 245.145 60.9531C244.684 61.1406 244.137 61.2344 243.504 61.2344C242.699 61.2344 241.969 61.0742 241.312 60.7539C240.664 60.4258 240.148 59.9766 239.766 59.4062C239.391 58.8281 239.203 58.1719 239.203 57.4375C239.203 56.7734 239.328 56.1836 239.578 55.668C239.828 55.1523 240.195 54.7188 240.68 54.3672C241.172 54.0078 241.785 53.7383 242.52 53.5586C243.254 53.3711 244.105 53.2773 245.074 53.2773H247.031ZM256.148 43V61H252.762V43H256.148ZM276.574 58.2578V61H267.492V58.2578H276.574ZM268.641 43.9375V61H265.125V43.9375H268.641ZM275.391 50.8867V53.5586H267.492V50.8867H275.391ZM276.562 43.9375V46.6914H267.492V43.9375H276.562ZM285.27 57.4961C285.27 57.2539 285.199 57.0352 285.059 56.8398C284.918 56.6445 284.656 56.4648 284.273 56.3008C283.898 56.1289 283.355 55.9727 282.645 55.832C282.004 55.6914 281.406 55.5156 280.852 55.3047C280.305 55.0859 279.828 54.8242 279.422 54.5195C279.023 54.2148 278.711 53.8555 278.484 53.4414C278.258 53.0195 278.145 52.5391 278.145 52C278.145 51.4688 278.258 50.9688 278.484 50.5C278.719 50.0312 279.051 49.6172 279.48 49.2578C279.918 48.8906 280.449 48.6055 281.074 48.4023C281.707 48.1914 282.418 48.0859 283.207 48.0859C284.309 48.0859 285.254 48.2617 286.043 48.6133C286.84 48.9648 287.449 49.4492 287.871 50.0664C288.301 50.6758 288.516 51.3711 288.516 52.1523H285.141C285.141 51.8242 285.07 51.5312 284.93 51.2734C284.797 51.0078 284.586 50.8008 284.297 50.6523C284.016 50.4961 283.648 50.418 283.195 50.418C282.82 50.418 282.496 50.4844 282.223 50.6172C281.949 50.7422 281.738 50.9141 281.59 51.1328C281.449 51.3438 281.379 51.5781 281.379 51.8359C281.379 52.0312 281.418 52.207 281.496 52.3633C281.582 52.5117 281.719 52.6484 281.906 52.7734C282.094 52.8984 282.336 53.0156 282.633 53.125C282.938 53.2266 283.312 53.3203 283.758 53.4062C284.672 53.5938 285.488 53.8398 286.207 54.1445C286.926 54.4414 287.496 54.8477 287.918 55.3633C288.34 55.8711 288.551 56.5391 288.551 57.3672C288.551 57.9297 288.426 58.4453 288.176 58.9141C287.926 59.3828 287.566 59.793 287.098 60.1445C286.629 60.4883 286.066 60.7578 285.41 60.9531C284.762 61.1406 284.031 61.2344 283.219 61.2344C282.039 61.2344 281.039 61.0234 280.219 60.6016C279.406 60.1797 278.789 59.6445 278.367 58.9961C277.953 58.3398 277.746 57.668 277.746 56.9805H280.945C280.961 57.4414 281.078 57.8125 281.297 58.0938C281.523 58.375 281.809 58.5781 282.152 58.7031C282.504 58.8281 282.883 58.8906 283.289 58.8906C283.727 58.8906 284.09 58.832 284.379 58.7148C284.668 58.5898 284.887 58.4258 285.035 58.2227C285.191 58.0117 285.27 57.7695 285.27 57.4961ZM296.953 48.3203V50.7109H289.57V48.3203H296.953ZM291.398 45.1914H294.773V57.1797C294.773 57.5469 294.82 57.8281 294.914 58.0234C295.016 58.2188 295.164 58.3555 295.359 58.4336C295.555 58.5039 295.801 58.5391 296.098 58.5391C296.309 58.5391 296.496 58.5312 296.66 58.5156C296.832 58.4922 296.977 58.4688 297.094 58.4453L297.105 60.9297C296.816 61.0234 296.504 61.0977 296.168 61.1523C295.832 61.207 295.461 61.2344 295.055 61.2344C294.312 61.2344 293.664 61.1133 293.109 60.8711C292.562 60.6211 292.141 60.2227 291.844 59.6758C291.547 59.1289 291.398 58.4102 291.398 57.5195V45.1914ZM305.719 58.1406V52.4922C305.719 52.0859 305.652 51.7383 305.52 51.4492C305.387 51.1523 305.18 50.9219 304.898 50.7578C304.625 50.5938 304.27 50.5117 303.832 50.5117C303.457 50.5117 303.133 50.5781 302.859 50.7109C302.586 50.8359 302.375 51.0195 302.227 51.2617C302.078 51.4961 302.004 51.7734 302.004 52.0938H298.629C298.629 51.5547 298.754 51.043 299.004 50.5586C299.254 50.0742 299.617 49.6484 300.094 49.2812C300.57 48.9062 301.137 48.6133 301.793 48.4023C302.457 48.1914 303.199 48.0859 304.02 48.0859C305.004 48.0859 305.879 48.25 306.645 48.5781C307.41 48.9062 308.012 49.3984 308.449 50.0547C308.895 50.7109 309.117 51.5312 309.117 52.5156V57.9414C309.117 58.6367 309.16 59.207 309.246 59.6523C309.332 60.0898 309.457 60.4727 309.621 60.8008V61H306.211C306.047 60.6562 305.922 60.2266 305.836 59.7109C305.758 59.1875 305.719 58.6641 305.719 58.1406ZM306.164 53.2773L306.188 55.1875H304.301C303.855 55.1875 303.469 55.2383 303.141 55.3398C302.812 55.4414 302.543 55.5859 302.332 55.7734C302.121 55.9531 301.965 56.1641 301.863 56.4062C301.77 56.6484 301.723 56.9141 301.723 57.2031C301.723 57.4922 301.789 57.7539 301.922 57.9883C302.055 58.2148 302.246 58.3945 302.496 58.5273C302.746 58.6523 303.039 58.7148 303.375 58.7148C303.883 58.7148 304.324 58.6133 304.699 58.4102C305.074 58.207 305.363 57.957 305.566 57.6602C305.777 57.3633 305.887 57.082 305.895 56.8164L306.785 58.2461C306.66 58.5664 306.488 58.8984 306.27 59.2422C306.059 59.5859 305.789 59.9102 305.461 60.2148C305.133 60.5117 304.738 60.7578 304.277 60.9531C303.816 61.1406 303.27 61.2344 302.637 61.2344C301.832 61.2344 301.102 61.0742 300.445 60.7539C299.797 60.4258 299.281 59.9766 298.898 59.4062C298.523 58.8281 298.336 58.1719 298.336 57.4375C298.336 56.7734 298.461 56.1836 298.711 55.668C298.961 55.1523 299.328 54.7188 299.812 54.3672C300.305 54.0078 300.918 53.7383 301.652 53.5586C302.387 53.3711 303.238 53.2773 304.207 53.2773H306.164ZM317.93 48.3203V50.7109H310.547V48.3203H317.93ZM312.375 45.1914H315.75V57.1797C315.75 57.5469 315.797 57.8281 315.891 58.0234C315.992 58.2188 316.141 58.3555 316.336 58.4336C316.531 58.5039 316.777 58.5391 317.074 58.5391C317.285 58.5391 317.473 58.5312 317.637 58.5156C317.809 58.4922 317.953 58.4688 318.07 58.4453L318.082 60.9297C317.793 61.0234 317.48 61.0977 317.145 61.1523C316.809 61.207 316.438 61.2344 316.031 61.2344C315.289 61.2344 314.641 61.1133 314.086 60.8711C313.539 60.6211 313.117 60.2227 312.82 59.6758C312.523 59.1289 312.375 58.4102 312.375 57.5195V45.1914ZM325.688 61.2344C324.703 61.2344 323.82 61.0781 323.039 60.7656C322.258 60.4453 321.594 60.0039 321.047 59.4414C320.508 58.8789 320.094 58.2266 319.805 57.4844C319.516 56.7344 319.371 55.9375 319.371 55.0938V54.625C319.371 53.6641 319.508 52.7852 319.781 51.9883C320.055 51.1914 320.445 50.5 320.953 49.9141C321.469 49.3281 322.094 48.8789 322.828 48.5664C323.562 48.2461 324.391 48.0859 325.312 48.0859C326.211 48.0859 327.008 48.2344 327.703 48.5312C328.398 48.8281 328.98 49.25 329.449 49.7969C329.926 50.3438 330.285 51 330.527 51.7656C330.77 52.5234 330.891 53.3672 330.891 54.2969V55.7031H320.812V53.4531H327.574V53.1953C327.574 52.7266 327.488 52.3086 327.316 51.9414C327.152 51.5664 326.902 51.2695 326.566 51.0508C326.23 50.832 325.801 50.7227 325.277 50.7227C324.832 50.7227 324.449 50.8203 324.129 51.0156C323.809 51.2109 323.547 51.4844 323.344 51.8359C323.148 52.1875 323 52.6016 322.898 53.0781C322.805 53.5469 322.758 54.0625 322.758 54.625V55.0938C322.758 55.6016 322.828 56.0703 322.969 56.5C323.117 56.9297 323.324 57.3008 323.59 57.6133C323.863 57.9258 324.191 58.168 324.574 58.3398C324.965 58.5117 325.406 58.5977 325.898 58.5977C326.508 58.5977 327.074 58.4805 327.598 58.2461C328.129 58.0039 328.586 57.6406 328.969 57.1562L330.609 58.9375C330.344 59.3203 329.98 59.6875 329.52 60.0391C329.066 60.3906 328.52 60.6797 327.879 60.9062C327.238 61.125 326.508 61.2344 325.688 61.2344ZM342.738 43.9375V61H339.234V43.9375H342.738ZM349.125 51.0273V61H345.75V48.3203H348.914L349.125 51.0273ZM348.633 54.2148H347.719C347.719 53.2773 347.84 52.4336 348.082 51.6836C348.324 50.9258 348.664 50.2812 349.102 49.75C349.539 49.2109 350.059 48.8008 350.66 48.5195C351.27 48.2305 351.949 48.0859 352.699 48.0859C353.293 48.0859 353.836 48.1719 354.328 48.3438C354.82 48.5156 355.242 48.7891 355.594 49.1641C355.953 49.5391 356.227 50.0352 356.414 50.6523C356.609 51.2695 356.707 52.0234 356.707 52.9141V61H353.309V52.9023C353.309 52.3398 353.23 51.9023 353.074 51.5898C352.918 51.2773 352.688 51.0586 352.383 50.9336C352.086 50.8008 351.719 50.7344 351.281 50.7344C350.828 50.7344 350.434 50.8242 350.098 51.0039C349.77 51.1836 349.496 51.4336 349.277 51.7539C349.066 52.0664 348.906 52.4336 348.797 52.8555C348.688 53.2773 348.633 53.7305 348.633 54.2148ZM366.129 57.4961C366.129 57.2539 366.059 57.0352 365.918 56.8398C365.777 56.6445 365.516 56.4648 365.133 56.3008C364.758 56.1289 364.215 55.9727 363.504 55.832C362.863 55.6914 362.266 55.5156 361.711 55.3047C361.164 55.0859 360.688 54.8242 360.281 54.5195C359.883 54.2148 359.57 53.8555 359.344 53.4414C359.117 53.0195 359.004 52.5391 359.004 52C359.004 51.4688 359.117 50.9688 359.344 50.5C359.578 50.0312 359.91 49.6172 360.34 49.2578C360.777 48.8906 361.309 48.6055 361.934 48.4023C362.566 48.1914 363.277 48.0859 364.066 48.0859C365.168 48.0859 366.113 48.2617 366.902 48.6133C367.699 48.9648 368.309 49.4492 368.73 50.0664C369.16 50.6758 369.375 51.3711 369.375 52.1523H366C366 51.8242 365.93 51.5312 365.789 51.2734C365.656 51.0078 365.445 50.8008 365.156 50.6523C364.875 50.4961 364.508 50.418 364.055 50.418C363.68 50.418 363.355 50.4844 363.082 50.6172C362.809 50.7422 362.598 50.9141 362.449 51.1328C362.309 51.3438 362.238 51.5781 362.238 51.8359C362.238 52.0312 362.277 52.207 362.355 52.3633C362.441 52.5117 362.578 52.6484 362.766 52.7734C362.953 52.8984 363.195 53.0156 363.492 53.125C363.797 53.2266 364.172 53.3203 364.617 53.4062C365.531 53.5938 366.348 53.8398 367.066 54.1445C367.785 54.4414 368.355 54.8477 368.777 55.3633C369.199 55.8711 369.41 56.5391 369.41 57.3672C369.41 57.9297 369.285 58.4453 369.035 58.9141C368.785 59.3828 368.426 59.793 367.957 60.1445C367.488 60.4883 366.926 60.7578 366.27 60.9531C365.621 61.1406 364.891 61.2344 364.078 61.2344C362.898 61.2344 361.898 61.0234 361.078 60.6016C360.266 60.1797 359.648 59.6445 359.227 58.9961C358.812 58.3398 358.605 57.668 358.605 56.9805H361.805C361.82 57.4414 361.938 57.8125 362.156 58.0938C362.383 58.375 362.668 58.5781 363.012 58.7031C363.363 58.8281 363.742 58.8906 364.148 58.8906C364.586 58.8906 364.949 58.832 365.238 58.7148C365.527 58.5898 365.746 58.4258 365.895 58.2227C366.051 58.0117 366.129 57.7695 366.129 57.4961ZM375.164 48.3203V61H371.777V48.3203H375.164ZM371.566 45.0156C371.566 44.5234 371.738 44.1172 372.082 43.7969C372.426 43.4766 372.887 43.3164 373.465 43.3164C374.035 43.3164 374.492 43.4766 374.836 43.7969C375.188 44.1172 375.363 44.5234 375.363 45.0156C375.363 45.5078 375.188 45.9141 374.836 46.2344C374.492 46.5547 374.035 46.7148 373.465 46.7148C372.887 46.7148 372.426 46.5547 372.082 46.2344C371.738 45.9141 371.566 45.5078 371.566 45.0156ZM385.98 48.3203H389.039V60.5781C389.039 61.7344 388.781 62.7148 388.266 63.5195C387.758 64.332 387.047 64.9453 386.133 65.3594C385.219 65.7812 384.156 65.9922 382.945 65.9922C382.414 65.9922 381.852 65.9219 381.258 65.7812C380.672 65.6406 380.109 65.4219 379.57 65.125C379.039 64.8281 378.594 64.4531 378.234 64L379.723 62.0078C380.113 62.4609 380.566 62.8125 381.082 63.0625C381.598 63.3203 382.168 63.4492 382.793 63.4492C383.402 63.4492 383.918 63.3359 384.34 63.1094C384.762 62.8906 385.086 62.5664 385.312 62.1367C385.539 61.7148 385.652 61.2031 385.652 60.6016V51.25L385.98 48.3203ZM377.449 54.8125V54.5664C377.449 53.5977 377.566 52.7188 377.801 51.9297C378.043 51.1328 378.383 50.4492 378.82 49.8789C379.266 49.3086 379.805 48.8672 380.438 48.5547C381.07 48.2422 381.785 48.0859 382.582 48.0859C383.426 48.0859 384.133 48.2422 384.703 48.5547C385.273 48.8672 385.742 49.3125 386.109 49.8906C386.477 50.4609 386.762 51.1367 386.965 51.918C387.176 52.6914 387.34 53.5391 387.457 54.4609V55C387.34 55.8828 387.164 56.7031 386.93 57.4609C386.695 58.2188 386.387 58.8828 386.004 59.4531C385.621 60.0156 385.145 60.4531 384.574 60.7656C384.012 61.0781 383.34 61.2344 382.559 61.2344C381.777 61.2344 381.07 61.0742 380.438 60.7539C379.812 60.4336 379.277 59.9844 378.832 59.4062C378.387 58.8281 378.043 58.1484 377.801 57.3672C377.566 56.5859 377.449 55.7344 377.449 54.8125ZM380.824 54.5664V54.8125C380.824 55.3359 380.875 55.8242 380.977 56.2773C381.078 56.7305 381.234 57.1328 381.445 57.4844C381.664 57.8281 381.934 58.0977 382.254 58.293C382.582 58.4805 382.969 58.5742 383.414 58.5742C384.031 58.5742 384.535 58.4453 384.926 58.1875C385.316 57.9219 385.609 57.5586 385.805 57.0977C386 56.6367 386.113 56.1055 386.145 55.5039V53.9688C386.129 53.4766 386.062 53.0352 385.945 52.6445C385.828 52.2461 385.664 51.9062 385.453 51.625C385.242 51.3438 384.969 51.125 384.633 50.9688C384.297 50.8125 383.898 50.7344 383.438 50.7344C382.992 50.7344 382.605 50.8359 382.277 51.0391C381.957 51.2344 381.688 51.5039 381.469 51.8477C381.258 52.1914 381.098 52.5977 380.988 53.0664C380.879 53.5273 380.824 54.0273 380.824 54.5664ZM394.957 43V61H391.582V43H394.957ZM394.477 54.2148H393.551C393.559 53.332 393.676 52.5195 393.902 51.7773C394.129 51.0273 394.453 50.3789 394.875 49.832C395.297 49.2773 395.801 48.8477 396.387 48.543C396.98 48.2383 397.637 48.0859 398.355 48.0859C398.98 48.0859 399.547 48.1758 400.055 48.3555C400.57 48.5273 401.012 48.8086 401.379 49.1992C401.754 49.582 402.043 50.0859 402.246 50.7109C402.449 51.3359 402.551 52.0938 402.551 52.9844V61H399.152V52.9609C399.152 52.3984 399.07 51.957 398.906 51.6367C398.75 51.3086 398.52 51.0781 398.215 50.9453C397.918 50.8047 397.551 50.7344 397.113 50.7344C396.629 50.7344 396.215 50.8242 395.871 51.0039C395.535 51.1836 395.266 51.4336 395.062 51.7539C394.859 52.0664 394.711 52.4336 394.617 52.8555C394.523 53.2773 394.477 53.7305 394.477 54.2148ZM411.328 48.3203V50.7109H403.945V48.3203H411.328ZM405.773 45.1914H409.148V57.1797C409.148 57.5469 409.195 57.8281 409.289 58.0234C409.391 58.2188 409.539 58.3555 409.734 58.4336C409.93 58.5039 410.176 58.5391 410.473 58.5391C410.684 58.5391 410.871 58.5312 411.035 58.5156C411.207 58.4922 411.352 58.4688 411.469 58.4453L411.48 60.9297C411.191 61.0234 410.879 61.0977 410.543 61.1523C410.207 61.207 409.836 61.2344 409.43 61.2344C408.688 61.2344 408.039 61.1133 407.484 60.8711C406.938 60.6211 406.516 60.2227 406.219 59.6758C405.922 59.1289 405.773 58.4102 405.773 57.5195V45.1914ZM420.105 57.4961C420.105 57.2539 420.035 57.0352 419.895 56.8398C419.754 56.6445 419.492 56.4648 419.109 56.3008C418.734 56.1289 418.191 55.9727 417.48 55.832C416.84 55.6914 416.242 55.5156 415.688 55.3047C415.141 55.0859 414.664 54.8242 414.258 54.5195C413.859 54.2148 413.547 53.8555 413.32 53.4414C413.094 53.0195 412.98 52.5391 412.98 52C412.98 51.4688 413.094 50.9688 413.32 50.5C413.555 50.0312 413.887 49.6172 414.316 49.2578C414.754 48.8906 415.285 48.6055 415.91 48.4023C416.543 48.1914 417.254 48.0859 418.043 48.0859C419.145 48.0859 420.09 48.2617 420.879 48.6133C421.676 48.9648 422.285 49.4492 422.707 50.0664C423.137 50.6758 423.352 51.3711 423.352 52.1523H419.977C419.977 51.8242 419.906 51.5312 419.766 51.2734C419.633 51.0078 419.422 50.8008 419.133 50.6523C418.852 50.4961 418.484 50.418 418.031 50.418C417.656 50.418 417.332 50.4844 417.059 50.6172C416.785 50.7422 416.574 50.9141 416.426 51.1328C416.285 51.3438 416.215 51.5781 416.215 51.8359C416.215 52.0312 416.254 52.207 416.332 52.3633C416.418 52.5117 416.555 52.6484 416.742 52.7734C416.93 52.8984 417.172 53.0156 417.469 53.125C417.773 53.2266 418.148 53.3203 418.594 53.4062C419.508 53.5938 420.324 53.8398 421.043 54.1445C421.762 54.4414 422.332 54.8477 422.754 55.3633C423.176 55.8711 423.387 56.5391 423.387 57.3672C423.387 57.9297 423.262 58.4453 423.012 58.9141C422.762 59.3828 422.402 59.793 421.934 60.1445C421.465 60.4883 420.902 60.7578 420.246 60.9531C419.598 61.1406 418.867 61.2344 418.055 61.2344C416.875 61.2344 415.875 61.0234 415.055 60.6016C414.242 60.1797 413.625 59.6445 413.203 58.9961C412.789 58.3398 412.582 57.668 412.582 56.9805H415.781C415.797 57.4414 415.914 57.8125 416.133 58.0938C416.359 58.375 416.645 58.5781 416.988 58.7031C417.34 58.8281 417.719 58.8906 418.125 58.8906C418.562 58.8906 418.926 58.832 419.215 58.7148C419.504 58.5898 419.723 58.4258 419.871 58.2227C420.027 58.0117 420.105 57.7695 420.105 57.4961Z" fill="#888888"/>
<path d="M109.219 107.422H100.734V101.07H109.219C110.375 101.07 111.312 100.875 112.031 100.484C112.75 100.094 113.273 99.5547 113.602 98.8672C113.945 98.1641 114.117 97.375 114.117 96.5C114.117 95.5625 113.945 94.6953 113.602 93.8984C113.273 93.1016 112.75 92.4609 112.031 91.9766C111.312 91.4766 110.375 91.2266 109.219 91.2266H103.828V119H95.6016V84.875H109.219C111.953 84.875 114.305 85.375 116.273 86.375C118.258 87.375 119.781 88.75 120.844 90.5C121.906 92.2344 122.438 94.2188 122.438 96.4531C122.438 98.6562 121.906 100.578 120.844 102.219C119.781 103.859 118.258 105.141 116.273 106.062C114.305 106.969 111.953 107.422 109.219 107.422ZM134.461 99.9219V119H126.562V93.6406H133.945L134.461 99.9219ZM141.961 93.4531L141.82 100.789C141.508 100.758 141.086 100.719 140.555 100.672C140.023 100.625 139.578 100.602 139.219 100.602C138.297 100.602 137.5 100.711 136.828 100.93C136.172 101.133 135.625 101.445 135.188 101.867C134.766 102.273 134.453 102.789 134.25 103.414C134.062 104.039 133.977 104.766 133.992 105.594L132.562 104.656C132.562 102.953 132.727 101.406 133.055 100.016C133.398 98.6094 133.883 97.3984 134.508 96.3828C135.133 95.3516 135.891 94.5625 136.781 94.0156C137.672 93.4531 138.672 93.1719 139.781 93.1719C140.172 93.1719 140.555 93.1953 140.93 93.2422C141.32 93.2891 141.664 93.3594 141.961 93.4531ZM142.852 106.578V106.086C142.852 104.227 143.117 102.516 143.648 100.953C144.18 99.375 144.961 98.0078 145.992 96.8516C147.023 95.6953 148.297 94.7969 149.812 94.1562C151.328 93.5 153.078 93.1719 155.062 93.1719C157.062 93.1719 158.82 93.5 160.336 94.1562C161.867 94.7969 163.148 95.6953 164.18 96.8516C165.211 98.0078 165.992 99.375 166.523 100.953C167.055 102.516 167.32 104.227 167.32 106.086V106.578C167.32 108.422 167.055 110.133 166.523 111.711C165.992 113.273 165.211 114.641 164.18 115.812C163.148 116.969 161.875 117.867 160.359 118.508C158.844 119.148 157.094 119.469 155.109 119.469C153.125 119.469 151.367 119.148 149.836 118.508C148.305 117.867 147.023 116.969 145.992 115.812C144.961 114.641 144.18 113.273 143.648 111.711C143.117 110.133 142.852 108.422 142.852 106.578ZM150.75 106.086V106.578C150.75 107.531 150.82 108.422 150.961 109.25C151.102 110.078 151.336 110.805 151.664 111.43C151.992 112.039 152.438 112.516 153 112.859C153.562 113.203 154.266 113.375 155.109 113.375C155.938 113.375 156.625 113.203 157.172 112.859C157.734 112.516 158.18 112.039 158.508 111.43C158.836 110.805 159.07 110.078 159.211 109.25C159.352 108.422 159.422 107.531 159.422 106.578V106.086C159.422 105.164 159.352 104.297 159.211 103.484C159.07 102.656 158.836 101.93 158.508 101.305C158.18 100.664 157.734 100.164 157.172 99.8047C156.609 99.4453 155.906 99.2656 155.062 99.2656C154.234 99.2656 153.539 99.4453 152.977 99.8047C152.43 100.164 151.992 100.664 151.664 101.305C151.336 101.93 151.102 102.656 150.961 103.484C150.82 104.297 150.75 105.164 150.75 106.086ZM171.422 93.6406H179.344V119.82C179.344 121.852 178.953 123.562 178.172 124.953C177.391 126.359 176.273 127.422 174.82 128.141C173.367 128.875 171.633 129.242 169.617 129.242C168.945 129.242 168.328 129.211 167.766 129.148C167.188 129.102 166.555 129 165.867 128.844V122.867C166.273 122.93 166.648 122.977 166.992 123.008C167.336 123.055 167.711 123.078 168.117 123.078C168.836 123.078 169.438 122.961 169.922 122.727C170.406 122.492 170.773 122.133 171.023 121.648C171.289 121.164 171.422 120.555 171.422 119.82V93.6406ZM170.836 87.1016C170.836 85.9766 171.242 85.0547 172.055 84.3359C172.867 83.6172 173.922 83.2578 175.219 83.2578C176.516 83.2578 177.57 83.6172 178.383 84.3359C179.195 85.0547 179.602 85.9766 179.602 87.1016C179.602 88.2266 179.195 89.1484 178.383 89.8672C177.57 90.5859 176.516 90.9453 175.219 90.9453C173.922 90.9453 172.867 90.5859 172.055 89.8672C171.242 89.1484 170.836 88.2266 170.836 87.1016ZM196.102 119.469C194.039 119.469 192.195 119.148 190.57 118.508C188.945 117.852 187.57 116.953 186.445 115.812C185.336 114.672 184.484 113.359 183.891 111.875C183.312 110.391 183.023 108.82 183.023 107.164V106.273C183.023 104.414 183.281 102.695 183.797 101.117C184.312 99.5234 185.078 98.1328 186.094 96.9453C187.109 95.7578 188.383 94.8359 189.914 94.1797C191.445 93.5078 193.227 93.1719 195.258 93.1719C197.055 93.1719 198.664 93.4609 200.086 94.0391C201.508 94.6172 202.711 95.4453 203.695 96.5234C204.695 97.6016 205.453 98.9062 205.969 100.438C206.5 101.969 206.766 103.688 206.766 105.594V108.805H186.047V103.859H199.055V103.25C199.07 102.406 198.922 101.688 198.609 101.094C198.312 100.5 197.875 100.047 197.297 99.7344C196.719 99.4219 196.016 99.2656 195.188 99.2656C194.328 99.2656 193.617 99.4531 193.055 99.8281C192.508 100.203 192.078 100.719 191.766 101.375C191.469 102.016 191.258 102.758 191.133 103.602C191.008 104.445 190.945 105.336 190.945 106.273V107.164C190.945 108.102 191.07 108.953 191.32 109.719C191.586 110.484 191.961 111.141 192.445 111.688C192.945 112.219 193.539 112.633 194.227 112.93C194.93 113.227 195.727 113.375 196.617 113.375C197.695 113.375 198.758 113.172 199.805 112.766C200.852 112.359 201.75 111.688 202.5 110.75L206.086 115.016C205.57 115.75 204.836 116.461 203.883 117.148C202.945 117.836 201.82 118.398 200.508 118.836C199.195 119.258 197.727 119.469 196.102 119.469ZM220.688 113.375C221.422 113.375 222.047 113.242 222.562 112.977C223.094 112.695 223.492 112.305 223.758 111.805C224.039 111.289 224.172 110.672 224.156 109.953H231.586C231.602 111.859 231.133 113.531 230.18 114.969C229.242 116.391 227.961 117.5 226.336 118.297C224.727 119.078 222.906 119.469 220.875 119.469C218.891 119.469 217.156 119.148 215.672 118.508C214.188 117.852 212.945 116.945 211.945 115.789C210.961 114.617 210.219 113.25 209.719 111.688C209.234 110.125 208.992 108.43 208.992 106.602V106.062C208.992 104.234 209.234 102.539 209.719 100.977C210.219 99.3984 210.961 98.0312 211.945 96.875C212.945 95.7031 214.18 94.7969 215.648 94.1562C217.133 93.5 218.859 93.1719 220.828 93.1719C222.938 93.1719 224.797 93.5703 226.406 94.3672C228.031 95.1641 229.305 96.3203 230.227 97.8359C231.148 99.3516 231.602 101.188 231.586 103.344H224.156C224.172 102.578 224.055 101.891 223.805 101.281C223.555 100.672 223.164 100.188 222.633 99.8281C222.117 99.4531 221.453 99.2656 220.641 99.2656C219.828 99.2656 219.172 99.4453 218.672 99.8047C218.172 100.164 217.789 100.664 217.523 101.305C217.273 101.93 217.102 102.648 217.008 103.461C216.93 104.273 216.891 105.141 216.891 106.062V106.602C216.891 107.539 216.93 108.422 217.008 109.25C217.102 110.062 217.281 110.781 217.547 111.406C217.812 112.016 218.195 112.5 218.695 112.859C219.195 113.203 219.859 113.375 220.688 113.375ZM248.32 93.6406V99.125H233.039V93.6406H248.32ZM236.25 87.3359H244.148V110.727C244.148 111.398 244.227 111.922 244.383 112.297C244.539 112.656 244.805 112.914 245.18 113.07C245.57 113.211 246.086 113.281 246.727 113.281C247.18 113.281 247.555 113.273 247.852 113.258C248.148 113.227 248.43 113.188 248.695 113.141V118.789C248.023 119.008 247.32 119.172 246.586 119.281C245.852 119.406 245.07 119.469 244.242 119.469C242.555 119.469 241.109 119.203 239.906 118.672C238.719 118.141 237.812 117.305 237.188 116.164C236.562 115.023 236.25 113.539 236.25 111.711V87.3359ZM277.406 107.422H268.922V101.07H277.406C278.562 101.07 279.5 100.875 280.219 100.484C280.938 100.094 281.461 99.5547 281.789 98.8672C282.133 98.1641 282.305 97.375 282.305 96.5C282.305 95.5625 282.133 94.6953 281.789 93.8984C281.461 93.1016 280.938 92.4609 280.219 91.9766C279.5 91.4766 278.562 91.2266 277.406 91.2266H272.016V119H263.789V84.875H277.406C280.141 84.875 282.492 85.375 284.461 86.375C286.445 87.375 287.969 88.75 289.031 90.5C290.094 92.2344 290.625 94.2188 290.625 96.4531C290.625 98.6562 290.094 100.578 289.031 102.219C287.969 103.859 286.445 105.141 284.461 106.062C282.492 106.969 280.141 107.422 277.406 107.422ZM302.414 83V119H294.516V83H302.414ZM301.477 105.453L299.625 105.5C299.625 103.719 299.844 102.078 300.281 100.578C300.719 99.0781 301.344 97.7734 302.156 96.6641C302.969 95.5547 303.945 94.6953 305.086 94.0859C306.227 93.4766 307.492 93.1719 308.883 93.1719C310.133 93.1719 311.273 93.3516 312.305 93.7109C313.352 94.0703 314.25 94.6484 315 95.4453C315.766 96.2422 316.352 97.2812 316.758 98.5625C317.18 99.8438 317.391 101.406 317.391 103.25V119H309.445V103.203C309.445 102.172 309.297 101.375 309 100.812C308.719 100.234 308.312 99.8359 307.781 99.6172C307.25 99.3828 306.602 99.2656 305.836 99.2656C304.914 99.2656 304.164 99.4219 303.586 99.7344C303.008 100.047 302.562 100.484 302.25 101.047C301.953 101.594 301.75 102.242 301.641 102.992C301.531 103.742 301.477 104.562 301.477 105.453ZM320.789 106.578V106.086C320.789 104.227 321.055 102.516 321.586 100.953C322.117 99.375 322.898 98.0078 323.93 96.8516C324.961 95.6953 326.234 94.7969 327.75 94.1562C329.266 93.5 331.016 93.1719 333 93.1719C335 93.1719 336.758 93.5 338.273 94.1562C339.805 94.7969 341.086 95.6953 342.117 96.8516C343.148 98.0078 343.93 99.375 344.461 100.953C344.992 102.516 345.258 104.227 345.258 106.086V106.578C345.258 108.422 344.992 110.133 344.461 111.711C343.93 113.273 343.148 114.641 342.117 115.812C341.086 116.969 339.812 117.867 338.297 118.508C336.781 119.148 335.031 119.469 333.047 119.469C331.062 119.469 329.305 119.148 327.773 118.508C326.242 117.867 324.961 116.969 323.93 115.812C322.898 114.641 322.117 113.273 321.586 111.711C321.055 110.133 320.789 108.422 320.789 106.578ZM328.688 106.086V106.578C328.688 107.531 328.758 108.422 328.898 109.25C329.039 110.078 329.273 110.805 329.602 111.43C329.93 112.039 330.375 112.516 330.938 112.859C331.5 113.203 332.203 113.375 333.047 113.375C333.875 113.375 334.562 113.203 335.109 112.859C335.672 112.516 336.117 112.039 336.445 111.43C336.773 110.805 337.008 110.078 337.148 109.25C337.289 108.422 337.359 107.531 337.359 106.578V106.086C337.359 105.164 337.289 104.297 337.148 103.484C337.008 102.656 336.773 101.93 336.445 101.305C336.117 100.664 335.672 100.164 335.109 99.8047C334.547 99.4453 333.844 99.2656 333 99.2656C332.172 99.2656 331.477 99.4453 330.914 99.8047C330.367 100.164 329.93 100.664 329.602 101.305C329.273 101.93 329.039 102.656 328.898 103.484C328.758 104.297 328.688 105.164 328.688 106.086ZM357.117 83V119H349.195V83H357.117ZM361.008 106.578V106.086C361.008 104.227 361.273 102.516 361.805 100.953C362.336 99.375 363.117 98.0078 364.148 96.8516C365.18 95.6953 366.453 94.7969 367.969 94.1562C369.484 93.5 371.234 93.1719 373.219 93.1719C375.219 93.1719 376.977 93.5 378.492 94.1562C380.023 94.7969 381.305 95.6953 382.336 96.8516C383.367 98.0078 384.148 99.375 384.68 100.953C385.211 102.516 385.477 104.227 385.477 106.086V106.578C385.477 108.422 385.211 110.133 384.68 111.711C384.148 113.273 383.367 114.641 382.336 115.812C381.305 116.969 380.031 117.867 378.516 118.508C377 119.148 375.25 119.469 373.266 119.469C371.281 119.469 369.523 119.148 367.992 118.508C366.461 117.867 365.18 116.969 364.148 115.812C363.117 114.641 362.336 113.273 361.805 111.711C361.273 110.133 361.008 108.422 361.008 106.578ZM368.906 106.086V106.578C368.906 107.531 368.977 108.422 369.117 109.25C369.258 110.078 369.492 110.805 369.82 111.43C370.148 112.039 370.594 112.516 371.156 112.859C371.719 113.203 372.422 113.375 373.266 113.375C374.094 113.375 374.781 113.203 375.328 112.859C375.891 112.516 376.336 112.039 376.664 111.43C376.992 110.805 377.227 110.078 377.367 109.25C377.508 108.422 377.578 107.531 377.578 106.578V106.086C377.578 105.164 377.508 104.297 377.367 103.484C377.227 102.656 376.992 101.93 376.664 101.305C376.336 100.664 375.891 100.164 375.328 99.8047C374.766 99.4453 374.062 99.2656 373.219 99.2656C372.391 99.2656 371.695 99.4453 371.133 99.8047C370.586 100.164 370.148 100.664 369.82 101.305C369.492 101.93 369.258 102.656 369.117 103.484C368.977 104.297 368.906 105.164 368.906 106.086ZM402.281 111.875C402.281 111.438 402.133 111.062 401.836 110.75C401.555 110.422 401.055 110.125 400.336 109.859C399.617 109.578 398.609 109.297 397.312 109.016C396.078 108.75 394.914 108.398 393.82 107.961C392.742 107.523 391.797 106.992 390.984 106.367C390.172 105.742 389.531 105 389.062 104.141C388.609 103.281 388.383 102.297 388.383 101.188C388.383 100.109 388.609 99.0938 389.062 98.1406C389.531 97.1719 390.211 96.3203 391.102 95.5859C392.008 94.8359 393.109 94.25 394.406 93.8281C395.703 93.3906 397.18 93.1719 398.836 93.1719C401.117 93.1719 403.086 93.5234 404.742 94.2266C406.398 94.9141 407.672 95.8828 408.562 97.1328C409.469 98.3672 409.922 99.7969 409.922 101.422H402.023C402.023 100.781 401.914 100.234 401.695 99.7812C401.492 99.3281 401.156 98.9844 400.688 98.75C400.219 98.5 399.594 98.375 398.812 98.375C398.266 98.375 397.766 98.4766 397.312 98.6797C396.875 98.8828 396.523 99.1641 396.258 99.5234C395.992 99.8828 395.859 100.305 395.859 100.789C395.859 101.133 395.938 101.445 396.094 101.727C396.266 101.992 396.523 102.242 396.867 102.477C397.211 102.695 397.648 102.898 398.18 103.086C398.711 103.258 399.352 103.414 400.102 103.555C401.805 103.867 403.398 104.312 404.883 104.891C406.367 105.469 407.57 106.289 408.492 107.352C409.43 108.414 409.898 109.844 409.898 111.641C409.898 112.766 409.641 113.805 409.125 114.758C408.609 115.695 407.867 116.523 406.898 117.242C405.93 117.945 404.766 118.492 403.406 118.883C402.047 119.273 400.516 119.469 398.812 119.469C396.391 119.469 394.344 119.039 392.672 118.18C391 117.305 389.734 116.211 388.875 114.898C388.031 113.57 387.609 112.227 387.609 110.867H394.969C395 111.648 395.188 112.289 395.531 112.789C395.891 113.289 396.367 113.656 396.961 113.891C397.555 114.125 398.242 114.242 399.023 114.242C399.742 114.242 400.336 114.141 400.805 113.938C401.289 113.734 401.656 113.461 401.906 113.117C402.156 112.758 402.281 112.344 402.281 111.875ZM412.617 106.578V106.086C412.617 104.227 412.883 102.516 413.414 100.953C413.945 99.375 414.727 98.0078 415.758 96.8516C416.789 95.6953 418.062 94.7969 419.578 94.1562C421.094 93.5 422.844 93.1719 424.828 93.1719C426.828 93.1719 428.586 93.5 430.102 94.1562C431.633 94.7969 432.914 95.6953 433.945 96.8516C434.977 98.0078 435.758 99.375 436.289 100.953C436.82 102.516 437.086 104.227 437.086 106.086V106.578C437.086 108.422 436.82 110.133 436.289 111.711C435.758 113.273 434.977 114.641 433.945 115.812C432.914 116.969 431.641 117.867 430.125 118.508C428.609 119.148 426.859 119.469 424.875 119.469C422.891 119.469 421.133 119.148 419.602 118.508C418.07 117.867 416.789 116.969 415.758 115.812C414.727 114.641 413.945 113.273 413.414 111.711C412.883 110.133 412.617 108.422 412.617 106.578ZM420.516 106.086V106.578C420.516 107.531 420.586 108.422 420.727 109.25C420.867 110.078 421.102 110.805 421.43 111.43C421.758 112.039 422.203 112.516 422.766 112.859C423.328 113.203 424.031 113.375 424.875 113.375C425.703 113.375 426.391 113.203 426.938 112.859C427.5 112.516 427.945 112.039 428.273 111.43C428.602 110.805 428.836 110.078 428.977 109.25C429.117 108.422 429.188 107.531 429.188 106.578V106.086C429.188 105.164 429.117 104.297 428.977 103.484C428.836 102.656 428.602 101.93 428.273 101.305C427.945 100.664 427.5 100.164 426.938 99.8047C426.375 99.4453 425.672 99.2656 424.828 99.2656C424 99.2656 423.305 99.4453 422.742 99.8047C422.195 100.164 421.758 100.664 421.43 101.305C421.102 101.93 420.867 102.656 420.727 103.484C420.586 104.297 420.516 105.164 420.516 106.086ZM448.57 98.5156V128.75H440.672V93.6406H448.031L448.57 98.5156ZM464.133 106.016V106.508C464.133 108.352 463.922 110.062 463.5 111.641C463.078 113.219 462.453 114.594 461.625 115.766C460.797 116.938 459.766 117.852 458.531 118.508C457.312 119.148 455.898 119.469 454.289 119.469C452.773 119.469 451.469 119.133 450.375 118.461C449.281 117.789 448.367 116.859 447.633 115.672C446.898 114.484 446.305 113.125 445.852 111.594C445.398 110.062 445.039 108.445 444.773 106.742V106.109C445.039 104.281 445.398 102.586 445.852 101.023C446.305 99.4453 446.898 98.0703 447.633 96.8984C448.367 95.7266 449.273 94.8125 450.352 94.1562C451.445 93.5 452.75 93.1719 454.266 93.1719C455.875 93.1719 457.289 93.4766 458.508 94.0859C459.742 94.6953 460.773 95.5703 461.602 96.7109C462.445 97.8359 463.078 99.1875 463.5 100.766C463.922 102.344 464.133 104.094 464.133 106.016ZM456.234 106.508V106.016C456.234 105.031 456.164 104.133 456.023 103.32C455.883 102.492 455.656 101.773 455.344 101.164C455.047 100.555 454.648 100.086 454.148 99.7578C453.648 99.4297 453.031 99.2656 452.297 99.2656C451.453 99.2656 450.742 99.3984 450.164 99.6641C449.602 99.9141 449.148 100.305 448.805 100.836C448.477 101.352 448.242 102 448.102 102.781C447.977 103.547 447.922 104.445 447.938 105.477V107.398C447.906 108.586 448.023 109.633 448.289 110.539C448.555 111.43 449.016 112.125 449.672 112.625C450.328 113.125 451.219 113.375 452.344 113.375C453.094 113.375 453.719 113.203 454.219 112.859C454.719 112.5 455.117 112.008 455.414 111.383C455.711 110.742 455.922 110.008 456.047 109.18C456.172 108.352 456.234 107.461 456.234 106.508ZM475.383 83V119H467.484V83H475.383ZM474.445 105.453L472.594 105.5C472.594 103.719 472.812 102.078 473.25 100.578C473.688 99.0781 474.312 97.7734 475.125 96.6641C475.938 95.5547 476.914 94.6953 478.055 94.0859C479.195 93.4766 480.461 93.1719 481.852 93.1719C483.102 93.1719 484.242 93.3516 485.273 93.7109C486.32 94.0703 487.219 94.6484 487.969 95.4453C488.734 96.2422 489.32 97.2812 489.727 98.5625C490.148 99.8438 490.359 101.406 490.359 103.25V119H482.414V103.203C482.414 102.172 482.266 101.375 481.969 100.812C481.688 100.234 481.281 99.8359 480.75 99.6172C480.219 99.3828 479.57 99.2656 478.805 99.2656C477.883 99.2656 477.133 99.4219 476.555 99.7344C475.977 100.047 475.531 100.484 475.219 101.047C474.922 101.594 474.719 102.242 474.609 102.992C474.5 103.742 474.445 104.562 474.445 105.453ZM502.523 116.023L509.086 93.6406H517.57L507.375 122.773C507.156 123.414 506.867 124.102 506.508 124.836C506.148 125.586 505.656 126.297 505.031 126.969C504.406 127.641 503.602 128.188 502.617 128.609C501.648 129.031 500.445 129.242 499.008 129.242C498.242 129.242 497.68 129.203 497.32 129.125C496.977 129.062 496.445 128.945 495.727 128.773V123.125C495.93 123.125 496.102 123.125 496.242 123.125C496.398 123.125 496.57 123.125 496.758 123.125C497.602 123.125 498.273 123.039 498.773 122.867C499.289 122.695 499.68 122.445 499.945 122.117C500.227 121.789 500.445 121.391 500.602 120.922L502.523 116.023ZM500.859 93.6406L505.852 111.383L506.719 119.75H501.422L492.398 93.6406H500.859Z" fill="black"/>
<path d="M1134 0H1348C1356.28 0 1363 6.71573 1363 15V148C1363 156.284 1356.28 163 1348 163H1134V0Z" fill="#8DB78F"/>
<path d="M1234.26 103.786H1262.74V109.357H1234.26V103.786ZM1239.96 114.929H1257.04V120.5H1239.96V114.929ZM1248.5 42.5C1240.95 42.5 1233.71 45.4349 1228.37 50.6592C1223.03 55.8834 1220.03 62.969 1220.03 70.3571C1219.84 74.4057 1220.63 78.4412 1222.34 82.1315C1224.05 85.8219 1226.64 89.0616 1229.88 91.5843C1232.73 94.175 1234.26 95.6514 1234.26 98.2143H1239.96C1239.96 93.0886 1236.8 90.2193 1233.72 87.4614C1231.06 85.4676 1228.94 82.8658 1227.55 79.8838C1226.15 76.9019 1225.53 73.6308 1225.72 70.3571C1225.72 64.4466 1228.12 58.7781 1232.39 54.5988C1236.67 50.4194 1242.46 48.0714 1248.5 48.0714C1254.54 48.0714 1260.33 50.4194 1264.61 54.5988C1268.88 58.7781 1271.28 64.4466 1271.28 70.3571C1271.47 73.6333 1270.84 76.9059 1269.44 79.888C1268.04 82.8701 1265.92 85.4706 1263.25 87.4614C1260.2 90.2471 1257.04 93.0329 1257.04 98.2143H1262.74C1262.74 95.6514 1264.25 94.175 1267.12 91.5564C1270.36 89.0381 1272.94 85.8031 1274.66 82.1176C1276.37 78.4321 1277.16 74.4014 1276.97 70.3571C1276.97 66.6989 1276.24 63.0765 1274.81 59.6967C1273.37 56.3169 1271.28 53.2459 1268.63 50.6592C1265.99 48.0724 1262.85 46.0205 1259.4 44.6205C1255.94 43.2205 1252.24 42.5 1248.5 42.5Z" fill="white"/>
</svg>
