<svg width="1363" height="163" viewBox="0 0 1363 163" fill="none" xmlns="http://www.w3.org/2000/svg">
<path d="M0 15C0 6.71573 6.71573 0 15 0H37V163H15C6.71573 163 0 156.284 0 148V15Z" fill="#424242"/>
<rect width="1097" height="163" transform="translate(37)" fill="#F0F0F0"/>
<path d="M101.906 53.9219L94.3945 51.2383V48.0859L104.602 52.375V54.6367L101.906 53.9219ZM94.3945 56.1719L101.918 53.4297L104.602 52.7852V55.0352L94.3945 59.3242V56.1719ZM123.867 58.2578V61H115.277V58.2578H123.867ZM116.414 43.9375V61H112.898V43.9375H116.414ZM131.508 61.2344C130.523 61.2344 129.641 61.0781 128.859 60.7656C128.078 60.4453 127.414 60.0039 126.867 59.4414C126.328 58.8789 125.914 58.2266 125.625 57.4844C125.336 56.7344 125.191 55.9375 125.191 55.0938V54.625C125.191 53.6641 125.328 52.7852 125.602 51.9883C125.875 51.1914 126.266 50.5 126.773 49.9141C127.289 49.3281 127.914 48.8789 128.648 48.5664C129.383 48.2461 130.211 48.0859 131.133 48.0859C132.031 48.0859 132.828 48.2344 133.523 48.5312C134.219 48.8281 134.801 49.25 135.27 49.7969C135.746 50.3438 136.105 51 136.348 51.7656C136.59 52.5234 136.711 53.3672 136.711 54.2969V55.7031H126.633V53.4531H133.395V53.1953C133.395 52.7266 133.309 52.3086 133.137 51.9414C132.973 51.5664 132.723 51.2695 132.387 51.0508C132.051 50.832 131.621 50.7227 131.098 50.7227C130.652 50.7227 130.27 50.8203 129.949 51.0156C129.629 51.2109 129.367 51.4844 129.164 51.8359C128.969 52.1875 128.82 52.6016 128.719 53.0781C128.625 53.5469 128.578 54.0625 128.578 54.625V55.0938C128.578 55.6016 128.648 56.0703 128.789 56.5C128.938 56.9297 129.145 57.3008 129.41 57.6133C129.684 57.9258 130.012 58.168 130.395 58.3398C130.785 58.5117 131.227 58.5977 131.719 58.5977C132.328 58.5977 132.895 58.4805 133.418 58.2461C133.949 58.0039 134.406 57.6406 134.789 57.1562L136.43 58.9375C136.164 59.3203 135.801 59.6875 135.34 60.0391C134.887 60.3906 134.34 60.6797 133.699 60.9062C133.059 61.125 132.328 61.2344 131.508 61.2344ZM138.633 43H142.008V58.0938L141.668 61H138.633V43ZM150.035 54.5312V54.7773C150.035 55.7227 149.934 56.5898 149.73 57.3789C149.535 58.168 149.23 58.8516 148.816 59.4297C148.402 60 147.887 60.4453 147.27 60.7656C146.66 61.0781 145.941 61.2344 145.113 61.2344C144.34 61.2344 143.668 61.0781 143.098 60.7656C142.535 60.4531 142.062 60.0117 141.68 59.4414C141.297 58.8711 140.988 58.2031 140.754 57.4375C140.52 56.6719 140.344 55.8359 140.227 54.9297V54.3906C140.344 53.4844 140.52 52.6484 140.754 51.8828C140.988 51.1172 141.297 50.4492 141.68 49.8789C142.062 49.3086 142.535 48.8672 143.098 48.5547C143.66 48.2422 144.324 48.0859 145.09 48.0859C145.926 48.0859 146.652 48.2461 147.27 48.5664C147.895 48.8789 148.41 49.3242 148.816 49.9023C149.23 50.4727 149.535 51.1523 149.73 51.9414C149.934 52.7227 150.035 53.5859 150.035 54.5312ZM146.66 54.7773V54.5312C146.66 54.0156 146.621 53.5312 146.543 53.0781C146.473 52.6172 146.348 52.2148 146.168 51.8711C145.988 51.5195 145.742 51.2422 145.43 51.0391C145.125 50.8359 144.73 50.7344 144.246 50.7344C143.785 50.7344 143.395 50.8125 143.074 50.9688C142.754 51.125 142.488 51.3438 142.277 51.625C142.074 51.9062 141.922 52.2422 141.82 52.6328C141.719 53.0156 141.656 53.4375 141.633 53.8984V55.4336C141.656 56.0508 141.758 56.5977 141.938 57.0742C142.125 57.543 142.406 57.9141 142.781 58.1875C143.164 58.4531 143.66 58.5859 144.27 58.5859C144.746 58.5859 145.141 58.4922 145.453 58.3047C145.766 58.1172 146.008 57.8516 146.18 57.5078C146.359 57.1641 146.484 56.7617 146.555 56.3008C146.625 55.832 146.66 55.3242 146.66 54.7773ZM158.977 58.1406V52.4922C158.977 52.0859 158.91 51.7383 158.777 51.4492C158.645 51.1523 158.438 50.9219 158.156 50.7578C157.883 50.5938 157.527 50.5117 157.09 50.5117C156.715 50.5117 156.391 50.5781 156.117 50.7109C155.844 50.8359 155.633 51.0195 155.484 51.2617C155.336 51.4961 155.262 51.7734 155.262 52.0938H151.887C151.887 51.5547 152.012 51.043 152.262 50.5586C152.512 50.0742 152.875 49.6484 153.352 49.2812C153.828 48.9062 154.395 48.6133 155.051 48.4023C155.715 48.1914 156.457 48.0859 157.277 48.0859C158.262 48.0859 159.137 48.25 159.902 48.5781C160.668 48.9062 161.27 49.3984 161.707 50.0547C162.152 50.7109 162.375 51.5312 162.375 52.5156V57.9414C162.375 58.6367 162.418 59.207 162.504 59.6523C162.59 60.0898 162.715 60.4727 162.879 60.8008V61H159.469C159.305 60.6562 159.18 60.2266 159.094 59.7109C159.016 59.1875 158.977 58.6641 158.977 58.1406ZM159.422 53.2773L159.445 55.1875H157.559C157.113 55.1875 156.727 55.2383 156.398 55.3398C156.07 55.4414 155.801 55.5859 155.59 55.7734C155.379 55.9531 155.223 56.1641 155.121 56.4062C155.027 56.6484 154.98 56.9141 154.98 57.2031C154.98 57.4922 155.047 57.7539 155.18 57.9883C155.312 58.2148 155.504 58.3945 155.754 58.5273C156.004 58.6523 156.297 58.7148 156.633 58.7148C157.141 58.7148 157.582 58.6133 157.957 58.4102C158.332 58.207 158.621 57.957 158.824 57.6602C159.035 57.3633 159.145 57.082 159.152 56.8164L160.043 58.2461C159.918 58.5664 159.746 58.8984 159.527 59.2422C159.316 59.5859 159.047 59.9102 158.719 60.2148C158.391 60.5117 157.996 60.7578 157.535 60.9531C157.074 61.1406 156.527 61.2344 155.895 61.2344C155.09 61.2344 154.359 61.0742 153.703 60.7539C153.055 60.4258 152.539 59.9766 152.156 59.4062C151.781 58.8281 151.594 58.1719 151.594 57.4375C151.594 56.7734 151.719 56.1836 151.969 55.668C152.219 55.1523 152.586 54.7188 153.07 54.3672C153.562 54.0078 154.176 53.7383 154.91 53.5586C155.645 53.3711 156.496 53.2773 157.465 53.2773H159.422ZM168.281 51.0273V61H164.906V48.3203H168.07L168.281 51.0273ZM167.789 54.2148H166.875C166.875 53.2773 166.996 52.4336 167.238 51.6836C167.48 50.9258 167.82 50.2812 168.258 49.75C168.695 49.2109 169.215 48.8008 169.816 48.5195C170.426 48.2305 171.105 48.0859 171.855 48.0859C172.449 48.0859 172.992 48.1719 173.484 48.3438C173.977 48.5156 174.398 48.7891 174.75 49.1641C175.109 49.5391 175.383 50.0352 175.57 50.6523C175.766 51.2695 175.863 52.0234 175.863 52.9141V61H172.465V52.9023C172.465 52.3398 172.387 51.9023 172.23 51.5898C172.074 51.2773 171.844 51.0586 171.539 50.9336C171.242 50.8008 170.875 50.7344 170.438 50.7344C169.984 50.7344 169.59 50.8242 169.254 51.0039C168.926 51.1836 168.652 51.4336 168.434 51.7539C168.223 52.0664 168.062 52.4336 167.953 52.8555C167.844 53.2773 167.789 53.7305 167.789 54.2148ZM177.891 54.7891V54.543C177.891 53.6133 178.023 52.7578 178.289 51.9766C178.555 51.1875 178.941 50.5039 179.449 49.9258C179.957 49.3477 180.582 48.8984 181.324 48.5781C182.066 48.25 182.918 48.0859 183.879 48.0859C184.84 48.0859 185.695 48.25 186.445 48.5781C187.195 48.8984 187.824 49.3477 188.332 49.9258C188.848 50.5039 189.238 51.1875 189.504 51.9766C189.77 52.7578 189.902 53.6133 189.902 54.543V54.7891C189.902 55.7109 189.77 56.5664 189.504 57.3555C189.238 58.1367 188.848 58.8203 188.332 59.4062C187.824 59.9844 187.199 60.4336 186.457 60.7539C185.715 61.0742 184.863 61.2344 183.902 61.2344C182.941 61.2344 182.086 61.0742 181.336 60.7539C180.594 60.4336 179.965 59.9844 179.449 59.4062C178.941 58.8203 178.555 58.1367 178.289 57.3555C178.023 56.5664 177.891 55.7109 177.891 54.7891ZM181.266 54.543V54.7891C181.266 55.3203 181.312 55.8164 181.406 56.2773C181.5 56.7383 181.648 57.1445 181.852 57.4961C182.062 57.8398 182.336 58.1094 182.672 58.3047C183.008 58.5 183.418 58.5977 183.902 58.5977C184.371 58.5977 184.773 58.5 185.109 58.3047C185.445 58.1094 185.715 57.8398 185.918 57.4961C186.121 57.1445 186.27 56.7383 186.363 56.2773C186.465 55.8164 186.516 55.3203 186.516 54.7891V54.543C186.516 54.0273 186.465 53.543 186.363 53.0898C186.27 52.6289 186.117 52.2227 185.906 51.8711C185.703 51.5117 185.434 51.2305 185.098 51.0273C184.762 50.8242 184.355 50.7227 183.879 50.7227C183.402 50.7227 182.996 50.8242 182.66 51.0273C182.332 51.2305 182.062 51.5117 181.852 51.8711C181.648 52.2227 181.5 52.6289 181.406 53.0898C181.312 53.543 181.266 54.0273 181.266 54.543ZM195.281 51.0273V61H191.906V48.3203H195.07L195.281 51.0273ZM194.789 54.2148H193.875C193.875 53.2773 193.996 52.4336 194.238 51.6836C194.48 50.9258 194.82 50.2812 195.258 49.75C195.695 49.2109 196.215 48.8008 196.816 48.5195C197.426 48.2305 198.105 48.0859 198.855 48.0859C199.449 48.0859 199.992 48.1719 200.484 48.3438C200.977 48.5156 201.398 48.7891 201.75 49.1641C202.109 49.5391 202.383 50.0352 202.57 50.6523C202.766 51.2695 202.863 52.0234 202.863 52.9141V61H199.465V52.9023C199.465 52.3398 199.387 51.9023 199.23 51.5898C199.074 51.2773 198.844 51.0586 198.539 50.9336C198.242 50.8008 197.875 50.7344 197.438 50.7344C196.984 50.7344 196.59 50.8242 196.254 51.0039C195.926 51.1836 195.652 51.4336 195.434 51.7539C195.223 52.0664 195.062 52.4336 194.953 52.8555C194.844 53.2773 194.789 53.7305 194.789 54.2148ZM211.617 43.9375H217.98C219.285 43.9375 220.406 44.1328 221.344 44.5234C222.289 44.9141 223.016 45.4922 223.523 46.2578C224.031 47.0234 224.285 47.9648 224.285 49.082C224.285 49.9961 224.129 50.7812 223.816 51.4375C223.512 52.0859 223.078 52.6289 222.516 53.0664C221.961 53.4961 221.309 53.8398 220.559 54.0977L219.445 54.6836H213.914L213.891 51.9414H218.004C218.621 51.9414 219.133 51.832 219.539 51.6133C219.945 51.3945 220.25 51.0898 220.453 50.6992C220.664 50.3086 220.77 49.8555 220.77 49.3398C220.77 48.793 220.668 48.3203 220.465 47.9219C220.262 47.5234 219.953 47.2188 219.539 47.0078C219.125 46.7969 218.605 46.6914 217.98 46.6914H215.133V61H211.617V43.9375ZM221.156 61L217.266 53.3945L220.98 53.3711L224.918 60.8359V61H221.156ZM232.617 61.2344C231.633 61.2344 230.75 61.0781 229.969 60.7656C229.188 60.4453 228.523 60.0039 227.977 59.4414C227.438 58.8789 227.023 58.2266 226.734 57.4844C226.445 56.7344 226.301 55.9375 226.301 55.0938V54.625C226.301 53.6641 226.438 52.7852 226.711 51.9883C226.984 51.1914 227.375 50.5 227.883 49.9141C228.398 49.3281 229.023 48.8789 229.758 48.5664C230.492 48.2461 231.32 48.0859 232.242 48.0859C233.141 48.0859 233.938 48.2344 234.633 48.5312C235.328 48.8281 235.91 49.25 236.379 49.7969C236.855 50.3438 237.215 51 237.457 51.7656C237.699 52.5234 237.82 53.3672 237.82 54.2969V55.7031H227.742V53.4531H234.504V53.1953C234.504 52.7266 234.418 52.3086 234.246 51.9414C234.082 51.5664 233.832 51.2695 233.496 51.0508C233.16 50.832 232.73 50.7227 232.207 50.7227C231.762 50.7227 231.379 50.8203 231.059 51.0156C230.738 51.2109 230.477 51.4844 230.273 51.8359C230.078 52.1875 229.93 52.6016 229.828 53.0781C229.734 53.5469 229.688 54.0625 229.688 54.625V55.0938C229.688 55.6016 229.758 56.0703 229.898 56.5C230.047 56.9297 230.254 57.3008 230.52 57.6133C230.793 57.9258 231.121 58.168 231.504 58.3398C231.895 58.5117 232.336 58.5977 232.828 58.5977C233.438 58.5977 234.004 58.4805 234.527 58.2461C235.059 58.0039 235.516 57.6406 235.898 57.1562L237.539 58.9375C237.273 59.3203 236.91 59.6875 236.449 60.0391C235.996 60.3906 235.449 60.6797 234.809 60.9062C234.168 61.125 233.438 61.2344 232.617 61.2344ZM246.586 58.1406V52.4922C246.586 52.0859 246.52 51.7383 246.387 51.4492C246.254 51.1523 246.047 50.9219 245.766 50.7578C245.492 50.5938 245.137 50.5117 244.699 50.5117C244.324 50.5117 244 50.5781 243.727 50.7109C243.453 50.8359 243.242 51.0195 243.094 51.2617C242.945 51.4961 242.871 51.7734 242.871 52.0938H239.496C239.496 51.5547 239.621 51.043 239.871 50.5586C240.121 50.0742 240.484 49.6484 240.961 49.2812C241.438 48.9062 242.004 48.6133 242.66 48.4023C243.324 48.1914 244.066 48.0859 244.887 48.0859C245.871 48.0859 246.746 48.25 247.512 48.5781C248.277 48.9062 248.879 49.3984 249.316 50.0547C249.762 50.7109 249.984 51.5312 249.984 52.5156V57.9414C249.984 58.6367 250.027 59.207 250.113 59.6523C250.199 60.0898 250.324 60.4727 250.488 60.8008V61H247.078C246.914 60.6562 246.789 60.2266 246.703 59.7109C246.625 59.1875 246.586 58.6641 246.586 58.1406ZM247.031 53.2773L247.055 55.1875H245.168C244.723 55.1875 244.336 55.2383 244.008 55.3398C243.68 55.4414 243.41 55.5859 243.199 55.7734C242.988 55.9531 242.832 56.1641 242.73 56.4062C242.637 56.6484 242.59 56.9141 242.59 57.2031C242.59 57.4922 242.656 57.7539 242.789 57.9883C242.922 58.2148 243.113 58.3945 243.363 58.5273C243.613 58.6523 243.906 58.7148 244.242 58.7148C244.75 58.7148 245.191 58.6133 245.566 58.4102C245.941 58.207 246.23 57.957 246.434 57.6602C246.645 57.3633 246.754 57.082 246.762 56.8164L247.652 58.2461C247.527 58.5664 247.355 58.8984 247.137 59.2422C246.926 59.5859 246.656 59.9102 246.328 60.2148C246 60.5117 245.605 60.7578 245.145 60.9531C244.684 61.1406 244.137 61.2344 243.504 61.2344C242.699 61.2344 241.969 61.0742 241.312 60.7539C240.664 60.4258 240.148 59.9766 239.766 59.4062C239.391 58.8281 239.203 58.1719 239.203 57.4375C239.203 56.7734 239.328 56.1836 239.578 55.668C239.828 55.1523 240.195 54.7188 240.68 54.3672C241.172 54.0078 241.785 53.7383 242.52 53.5586C243.254 53.3711 244.105 53.2773 245.074 53.2773H247.031ZM256.148 43V61H252.762V43H256.148ZM270.598 58.2578V61H261.516V58.2578H270.598ZM262.664 43.9375V61H259.148V43.9375H262.664ZM269.414 50.8867V53.5586H261.516V50.8867H269.414ZM270.586 43.9375V46.6914H261.516V43.9375H270.586ZM279.293 57.4961C279.293 57.2539 279.223 57.0352 279.082 56.8398C278.941 56.6445 278.68 56.4648 278.297 56.3008C277.922 56.1289 277.379 55.9727 276.668 55.832C276.027 55.6914 275.43 55.5156 274.875 55.3047C274.328 55.0859 273.852 54.8242 273.445 54.5195C273.047 54.2148 272.734 53.8555 272.508 53.4414C272.281 53.0195 272.168 52.5391 272.168 52C272.168 51.4688 272.281 50.9688 272.508 50.5C272.742 50.0312 273.074 49.6172 273.504 49.2578C273.941 48.8906 274.473 48.6055 275.098 48.4023C275.73 48.1914 276.441 48.0859 277.23 48.0859C278.332 48.0859 279.277 48.2617 280.066 48.6133C280.863 48.9648 281.473 49.4492 281.895 50.0664C282.324 50.6758 282.539 51.3711 282.539 52.1523H279.164C279.164 51.8242 279.094 51.5312 278.953 51.2734C278.82 51.0078 278.609 50.8008 278.32 50.6523C278.039 50.4961 277.672 50.418 277.219 50.418C276.844 50.418 276.52 50.4844 276.246 50.6172C275.973 50.7422 275.762 50.9141 275.613 51.1328C275.473 51.3438 275.402 51.5781 275.402 51.8359C275.402 52.0312 275.441 52.207 275.52 52.3633C275.605 52.5117 275.742 52.6484 275.93 52.7734C276.117 52.8984 276.359 53.0156 276.656 53.125C276.961 53.2266 277.336 53.3203 277.781 53.4062C278.695 53.5938 279.512 53.8398 280.23 54.1445C280.949 54.4414 281.52 54.8477 281.941 55.3633C282.363 55.8711 282.574 56.5391 282.574 57.3672C282.574 57.9297 282.449 58.4453 282.199 58.9141C281.949 59.3828 281.59 59.793 281.121 60.1445C280.652 60.4883 280.09 60.7578 279.434 60.9531C278.785 61.1406 278.055 61.2344 277.242 61.2344C276.062 61.2344 275.062 61.0234 274.242 60.6016C273.43 60.1797 272.812 59.6445 272.391 58.9961C271.977 58.3398 271.77 57.668 271.77 56.9805H274.969C274.984 57.4414 275.102 57.8125 275.32 58.0938C275.547 58.375 275.832 58.5781 276.176 58.7031C276.527 58.8281 276.906 58.8906 277.312 58.8906C277.75 58.8906 278.113 58.832 278.402 58.7148C278.691 58.5898 278.91 58.4258 279.059 58.2227C279.215 58.0117 279.293 57.7695 279.293 57.4961ZM290.977 48.3203V50.7109H283.594V48.3203H290.977ZM285.422 45.1914H288.797V57.1797C288.797 57.5469 288.844 57.8281 288.938 58.0234C289.039 58.2188 289.188 58.3555 289.383 58.4336C289.578 58.5039 289.824 58.5391 290.121 58.5391C290.332 58.5391 290.52 58.5312 290.684 58.5156C290.855 58.4922 291 58.4688 291.117 58.4453L291.129 60.9297C290.84 61.0234 290.527 61.0977 290.191 61.1523C289.855 61.207 289.484 61.2344 289.078 61.2344C288.336 61.2344 287.688 61.1133 287.133 60.8711C286.586 60.6211 286.164 60.2227 285.867 59.6758C285.57 59.1289 285.422 58.4102 285.422 57.5195V45.1914ZM299.742 58.1406V52.4922C299.742 52.0859 299.676 51.7383 299.543 51.4492C299.41 51.1523 299.203 50.9219 298.922 50.7578C298.648 50.5938 298.293 50.5117 297.855 50.5117C297.48 50.5117 297.156 50.5781 296.883 50.7109C296.609 50.8359 296.398 51.0195 296.25 51.2617C296.102 51.4961 296.027 51.7734 296.027 52.0938H292.652C292.652 51.5547 292.777 51.043 293.027 50.5586C293.277 50.0742 293.641 49.6484 294.117 49.2812C294.594 48.9062 295.16 48.6133 295.816 48.4023C296.48 48.1914 297.223 48.0859 298.043 48.0859C299.027 48.0859 299.902 48.25 300.668 48.5781C301.434 48.9062 302.035 49.3984 302.473 50.0547C302.918 50.7109 303.141 51.5312 303.141 52.5156V57.9414C303.141 58.6367 303.184 59.207 303.27 59.6523C303.355 60.0898 303.48 60.4727 303.645 60.8008V61H300.234C300.07 60.6562 299.945 60.2266 299.859 59.7109C299.781 59.1875 299.742 58.6641 299.742 58.1406ZM300.188 53.2773L300.211 55.1875H298.324C297.879 55.1875 297.492 55.2383 297.164 55.3398C296.836 55.4414 296.566 55.5859 296.355 55.7734C296.145 55.9531 295.988 56.1641 295.887 56.4062C295.793 56.6484 295.746 56.9141 295.746 57.2031C295.746 57.4922 295.812 57.7539 295.945 57.9883C296.078 58.2148 296.27 58.3945 296.52 58.5273C296.77 58.6523 297.062 58.7148 297.398 58.7148C297.906 58.7148 298.348 58.6133 298.723 58.4102C299.098 58.207 299.387 57.957 299.59 57.6602C299.801 57.3633 299.91 57.082 299.918 56.8164L300.809 58.2461C300.684 58.5664 300.512 58.8984 300.293 59.2422C300.082 59.5859 299.812 59.9102 299.484 60.2148C299.156 60.5117 298.762 60.7578 298.301 60.9531C297.84 61.1406 297.293 61.2344 296.66 61.2344C295.855 61.2344 295.125 61.0742 294.469 60.7539C293.82 60.4258 293.305 59.9766 292.922 59.4062C292.547 58.8281 292.359 58.1719 292.359 57.4375C292.359 56.7734 292.484 56.1836 292.734 55.668C292.984 55.1523 293.352 54.7188 293.836 54.3672C294.328 54.0078 294.941 53.7383 295.676 53.5586C296.41 53.3711 297.262 53.2773 298.23 53.2773H300.188ZM311.953 48.3203V50.7109H304.57V48.3203H311.953ZM306.398 45.1914H309.773V57.1797C309.773 57.5469 309.82 57.8281 309.914 58.0234C310.016 58.2188 310.164 58.3555 310.359 58.4336C310.555 58.5039 310.801 58.5391 311.098 58.5391C311.309 58.5391 311.496 58.5312 311.66 58.5156C311.832 58.4922 311.977 58.4688 312.094 58.4453L312.105 60.9297C311.816 61.0234 311.504 61.0977 311.168 61.1523C310.832 61.207 310.461 61.2344 310.055 61.2344C309.312 61.2344 308.664 61.1133 308.109 60.8711C307.562 60.6211 307.141 60.2227 306.844 59.6758C306.547 59.1289 306.398 58.4102 306.398 57.5195V45.1914ZM319.711 61.2344C318.727 61.2344 317.844 61.0781 317.062 60.7656C316.281 60.4453 315.617 60.0039 315.07 59.4414C314.531 58.8789 314.117 58.2266 313.828 57.4844C313.539 56.7344 313.395 55.9375 313.395 55.0938V54.625C313.395 53.6641 313.531 52.7852 313.805 51.9883C314.078 51.1914 314.469 50.5 314.977 49.9141C315.492 49.3281 316.117 48.8789 316.852 48.5664C317.586 48.2461 318.414 48.0859 319.336 48.0859C320.234 48.0859 321.031 48.2344 321.727 48.5312C322.422 48.8281 323.004 49.25 323.473 49.7969C323.949 50.3438 324.309 51 324.551 51.7656C324.793 52.5234 324.914 53.3672 324.914 54.2969V55.7031H314.836V53.4531H321.598V53.1953C321.598 52.7266 321.512 52.3086 321.34 51.9414C321.176 51.5664 320.926 51.2695 320.59 51.0508C320.254 50.832 319.824 50.7227 319.301 50.7227C318.855 50.7227 318.473 50.8203 318.152 51.0156C317.832 51.2109 317.57 51.4844 317.367 51.8359C317.172 52.1875 317.023 52.6016 316.922 53.0781C316.828 53.5469 316.781 54.0625 316.781 54.625V55.0938C316.781 55.6016 316.852 56.0703 316.992 56.5C317.141 56.9297 317.348 57.3008 317.613 57.6133C317.887 57.9258 318.215 58.168 318.598 58.3398C318.988 58.5117 319.43 58.5977 319.922 58.5977C320.531 58.5977 321.098 58.4805 321.621 58.2461C322.152 58.0039 322.609 57.6406 322.992 57.1562L324.633 58.9375C324.367 59.3203 324.004 59.6875 323.543 60.0391C323.09 60.3906 322.543 60.6797 321.902 60.9062C321.262 61.125 320.531 61.2344 319.711 61.2344ZM336.762 43.9375V61H333.258V43.9375H336.762ZM343.148 51.0273V61H339.773V48.3203H342.938L343.148 51.0273ZM342.656 54.2148H341.742C341.742 53.2773 341.863 52.4336 342.105 51.6836C342.348 50.9258 342.688 50.2812 343.125 49.75C343.562 49.2109 344.082 48.8008 344.684 48.5195C345.293 48.2305 345.973 48.0859 346.723 48.0859C347.316 48.0859 347.859 48.1719 348.352 48.3438C348.844 48.5156 349.266 48.7891 349.617 49.1641C349.977 49.5391 350.25 50.0352 350.438 50.6523C350.633 51.2695 350.73 52.0234 350.73 52.9141V61H347.332V52.9023C347.332 52.3398 347.254 51.9023 347.098 51.5898C346.941 51.2773 346.711 51.0586 346.406 50.9336C346.109 50.8008 345.742 50.7344 345.305 50.7344C344.852 50.7344 344.457 50.8242 344.121 51.0039C343.793 51.1836 343.52 51.4336 343.301 51.7539C343.09 52.0664 342.93 52.4336 342.82 52.8555C342.711 53.2773 342.656 53.7305 342.656 54.2148ZM360.152 57.4961C360.152 57.2539 360.082 57.0352 359.941 56.8398C359.801 56.6445 359.539 56.4648 359.156 56.3008C358.781 56.1289 358.238 55.9727 357.527 55.832C356.887 55.6914 356.289 55.5156 355.734 55.3047C355.188 55.0859 354.711 54.8242 354.305 54.5195C353.906 54.2148 353.594 53.8555 353.367 53.4414C353.141 53.0195 353.027 52.5391 353.027 52C353.027 51.4688 353.141 50.9688 353.367 50.5C353.602 50.0312 353.934 49.6172 354.363 49.2578C354.801 48.8906 355.332 48.6055 355.957 48.4023C356.59 48.1914 357.301 48.0859 358.09 48.0859C359.191 48.0859 360.137 48.2617 360.926 48.6133C361.723 48.9648 362.332 49.4492 362.754 50.0664C363.184 50.6758 363.398 51.3711 363.398 52.1523H360.023C360.023 51.8242 359.953 51.5312 359.812 51.2734C359.68 51.0078 359.469 50.8008 359.18 50.6523C358.898 50.4961 358.531 50.418 358.078 50.418C357.703 50.418 357.379 50.4844 357.105 50.6172C356.832 50.7422 356.621 50.9141 356.473 51.1328C356.332 51.3438 356.262 51.5781 356.262 51.8359C356.262 52.0312 356.301 52.207 356.379 52.3633C356.465 52.5117 356.602 52.6484 356.789 52.7734C356.977 52.8984 357.219 53.0156 357.516 53.125C357.82 53.2266 358.195 53.3203 358.641 53.4062C359.555 53.5938 360.371 53.8398 361.09 54.1445C361.809 54.4414 362.379 54.8477 362.801 55.3633C363.223 55.8711 363.434 56.5391 363.434 57.3672C363.434 57.9297 363.309 58.4453 363.059 58.9141C362.809 59.3828 362.449 59.793 361.98 60.1445C361.512 60.4883 360.949 60.7578 360.293 60.9531C359.645 61.1406 358.914 61.2344 358.102 61.2344C356.922 61.2344 355.922 61.0234 355.102 60.6016C354.289 60.1797 353.672 59.6445 353.25 58.9961C352.836 58.3398 352.629 57.668 352.629 56.9805H355.828C355.844 57.4414 355.961 57.8125 356.18 58.0938C356.406 58.375 356.691 58.5781 357.035 58.7031C357.387 58.8281 357.766 58.8906 358.172 58.8906C358.609 58.8906 358.973 58.832 359.262 58.7148C359.551 58.5898 359.77 58.4258 359.918 58.2227C360.074 58.0117 360.152 57.7695 360.152 57.4961ZM369.188 48.3203V61H365.801V48.3203H369.188ZM365.59 45.0156C365.59 44.5234 365.762 44.1172 366.105 43.7969C366.449 43.4766 366.91 43.3164 367.488 43.3164C368.059 43.3164 368.516 43.4766 368.859 43.7969C369.211 44.1172 369.387 44.5234 369.387 45.0156C369.387 45.5078 369.211 45.9141 368.859 46.2344C368.516 46.5547 368.059 46.7148 367.488 46.7148C366.91 46.7148 366.449 46.5547 366.105 46.2344C365.762 45.9141 365.59 45.5078 365.59 45.0156ZM380.004 48.3203H383.062V60.5781C383.062 61.7344 382.805 62.7148 382.289 63.5195C381.781 64.332 381.07 64.9453 380.156 65.3594C379.242 65.7812 378.18 65.9922 376.969 65.9922C376.438 65.9922 375.875 65.9219 375.281 65.7812C374.695 65.6406 374.133 65.4219 373.594 65.125C373.062 64.8281 372.617 64.4531 372.258 64L373.746 62.0078C374.137 62.4609 374.59 62.8125 375.105 63.0625C375.621 63.3203 376.191 63.4492 376.816 63.4492C377.426 63.4492 377.941 63.3359 378.363 63.1094C378.785 62.8906 379.109 62.5664 379.336 62.1367C379.562 61.7148 379.676 61.2031 379.676 60.6016V51.25L380.004 48.3203ZM371.473 54.8125V54.5664C371.473 53.5977 371.59 52.7188 371.824 51.9297C372.066 51.1328 372.406 50.4492 372.844 49.8789C373.289 49.3086 373.828 48.8672 374.461 48.5547C375.094 48.2422 375.809 48.0859 376.605 48.0859C377.449 48.0859 378.156 48.2422 378.727 48.5547C379.297 48.8672 379.766 49.3125 380.133 49.8906C380.5 50.4609 380.785 51.1367 380.988 51.918C381.199 52.6914 381.363 53.5391 381.48 54.4609V55C381.363 55.8828 381.188 56.7031 380.953 57.4609C380.719 58.2188 380.41 58.8828 380.027 59.4531C379.645 60.0156 379.168 60.4531 378.598 60.7656C378.035 61.0781 377.363 61.2344 376.582 61.2344C375.801 61.2344 375.094 61.0742 374.461 60.7539C373.836 60.4336 373.301 59.9844 372.855 59.4062C372.41 58.8281 372.066 58.1484 371.824 57.3672C371.59 56.5859 371.473 55.7344 371.473 54.8125ZM374.848 54.5664V54.8125C374.848 55.3359 374.898 55.8242 375 56.2773C375.102 56.7305 375.258 57.1328 375.469 57.4844C375.688 57.8281 375.957 58.0977 376.277 58.293C376.605 58.4805 376.992 58.5742 377.438 58.5742C378.055 58.5742 378.559 58.4453 378.949 58.1875C379.34 57.9219 379.633 57.5586 379.828 57.0977C380.023 56.6367 380.137 56.1055 380.168 55.5039V53.9688C380.152 53.4766 380.086 53.0352 379.969 52.6445C379.852 52.2461 379.688 51.9062 379.477 51.625C379.266 51.3438 378.992 51.125 378.656 50.9688C378.32 50.8125 377.922 50.7344 377.461 50.7344C377.016 50.7344 376.629 50.8359 376.301 51.0391C375.98 51.2344 375.711 51.5039 375.492 51.8477C375.281 52.1914 375.121 52.5977 375.012 53.0664C374.902 53.5273 374.848 54.0273 374.848 54.5664ZM388.98 43V61H385.605V43H388.98ZM388.5 54.2148H387.574C387.582 53.332 387.699 52.5195 387.926 51.7773C388.152 51.0273 388.477 50.3789 388.898 49.832C389.32 49.2773 389.824 48.8477 390.41 48.543C391.004 48.2383 391.66 48.0859 392.379 48.0859C393.004 48.0859 393.57 48.1758 394.078 48.3555C394.594 48.5273 395.035 48.8086 395.402 49.1992C395.777 49.582 396.066 50.0859 396.27 50.7109C396.473 51.3359 396.574 52.0938 396.574 52.9844V61H393.176V52.9609C393.176 52.3984 393.094 51.957 392.93 51.6367C392.773 51.3086 392.543 51.0781 392.238 50.9453C391.941 50.8047 391.574 50.7344 391.137 50.7344C390.652 50.7344 390.238 50.8242 389.895 51.0039C389.559 51.1836 389.289 51.4336 389.086 51.7539C388.883 52.0664 388.734 52.4336 388.641 52.8555C388.547 53.2773 388.5 53.7305 388.5 54.2148ZM405.352 48.3203V50.7109H397.969V48.3203H405.352ZM399.797 45.1914H403.172V57.1797C403.172 57.5469 403.219 57.8281 403.312 58.0234C403.414 58.2188 403.562 58.3555 403.758 58.4336C403.953 58.5039 404.199 58.5391 404.496 58.5391C404.707 58.5391 404.895 58.5312 405.059 58.5156C405.23 58.4922 405.375 58.4688 405.492 58.4453L405.504 60.9297C405.215 61.0234 404.902 61.0977 404.566 61.1523C404.23 61.207 403.859 61.2344 403.453 61.2344C402.711 61.2344 402.062 61.1133 401.508 60.8711C400.961 60.6211 400.539 60.2227 400.242 59.6758C399.945 59.1289 399.797 58.4102 399.797 57.5195V45.1914ZM414.129 57.4961C414.129 57.2539 414.059 57.0352 413.918 56.8398C413.777 56.6445 413.516 56.4648 413.133 56.3008C412.758 56.1289 412.215 55.9727 411.504 55.832C410.863 55.6914 410.266 55.5156 409.711 55.3047C409.164 55.0859 408.688 54.8242 408.281 54.5195C407.883 54.2148 407.57 53.8555 407.344 53.4414C407.117 53.0195 407.004 52.5391 407.004 52C407.004 51.4688 407.117 50.9688 407.344 50.5C407.578 50.0312 407.91 49.6172 408.34 49.2578C408.777 48.8906 409.309 48.6055 409.934 48.4023C410.566 48.1914 411.277 48.0859 412.066 48.0859C413.168 48.0859 414.113 48.2617 414.902 48.6133C415.699 48.9648 416.309 49.4492 416.73 50.0664C417.16 50.6758 417.375 51.3711 417.375 52.1523H414C414 51.8242 413.93 51.5312 413.789 51.2734C413.656 51.0078 413.445 50.8008 413.156 50.6523C412.875 50.4961 412.508 50.418 412.055 50.418C411.68 50.418 411.355 50.4844 411.082 50.6172C410.809 50.7422 410.598 50.9141 410.449 51.1328C410.309 51.3438 410.238 51.5781 410.238 51.8359C410.238 52.0312 410.277 52.207 410.355 52.3633C410.441 52.5117 410.578 52.6484 410.766 52.7734C410.953 52.8984 411.195 53.0156 411.492 53.125C411.797 53.2266 412.172 53.3203 412.617 53.4062C413.531 53.5938 414.348 53.8398 415.066 54.1445C415.785 54.4414 416.355 54.8477 416.777 55.3633C417.199 55.8711 417.41 56.5391 417.41 57.3672C417.41 57.9297 417.285 58.4453 417.035 58.9141C416.785 59.3828 416.426 59.793 415.957 60.1445C415.488 60.4883 414.926 60.7578 414.27 60.9531C413.621 61.1406 412.891 61.2344 412.078 61.2344C410.898 61.2344 409.898 61.0234 409.078 60.6016C408.266 60.1797 407.648 59.6445 407.227 58.9961C406.812 58.3398 406.605 57.668 406.605 56.9805H409.805C409.82 57.4414 409.938 57.8125 410.156 58.0938C410.383 58.375 410.668 58.5781 411.012 58.7031C411.363 58.8281 411.742 58.8906 412.148 58.8906C412.586 58.8906 412.949 58.832 413.238 58.7148C413.527 58.5898 413.746 58.4258 413.895 58.2227C414.051 58.0117 414.129 57.7695 414.129 57.4961Z" fill="#888888"/>
<path d="M109.219 107.422H100.734V101.07H109.219C110.375 101.07 111.312 100.875 112.031 100.484C112.75 100.094 113.273 99.5547 113.602 98.8672C113.945 98.1641 114.117 97.375 114.117 96.5C114.117 95.5625 113.945 94.6953 113.602 93.8984C113.273 93.1016 112.75 92.4609 112.031 91.9766C111.312 91.4766 110.375 91.2266 109.219 91.2266H103.828V119H95.6016V84.875H109.219C111.953 84.875 114.305 85.375 116.273 86.375C118.258 87.375 119.781 88.75 120.844 90.5C121.906 92.2344 122.438 94.2188 122.438 96.4531C122.438 98.6562 121.906 100.578 120.844 102.219C119.781 103.859 118.258 105.141 116.273 106.062C114.305 106.969 111.953 107.422 109.219 107.422ZM134.461 99.9219V119H126.562V93.6406H133.945L134.461 99.9219ZM141.961 93.4531L141.82 100.789C141.508 100.758 141.086 100.719 140.555 100.672C140.023 100.625 139.578 100.602 139.219 100.602C138.297 100.602 137.5 100.711 136.828 100.93C136.172 101.133 135.625 101.445 135.188 101.867C134.766 102.273 134.453 102.789 134.25 103.414C134.062 104.039 133.977 104.766 133.992 105.594L132.562 104.656C132.562 102.953 132.727 101.406 133.055 100.016C133.398 98.6094 133.883 97.3984 134.508 96.3828C135.133 95.3516 135.891 94.5625 136.781 94.0156C137.672 93.4531 138.672 93.1719 139.781 93.1719C140.172 93.1719 140.555 93.1953 140.93 93.2422C141.32 93.2891 141.664 93.3594 141.961 93.4531ZM142.852 106.578V106.086C142.852 104.227 143.117 102.516 143.648 100.953C144.18 99.375 144.961 98.0078 145.992 96.8516C147.023 95.6953 148.297 94.7969 149.812 94.1562C151.328 93.5 153.078 93.1719 155.062 93.1719C157.062 93.1719 158.82 93.5 160.336 94.1562C161.867 94.7969 163.148 95.6953 164.18 96.8516C165.211 98.0078 165.992 99.375 166.523 100.953C167.055 102.516 167.32 104.227 167.32 106.086V106.578C167.32 108.422 167.055 110.133 166.523 111.711C165.992 113.273 165.211 114.641 164.18 115.812C163.148 116.969 161.875 117.867 160.359 118.508C158.844 119.148 157.094 119.469 155.109 119.469C153.125 119.469 151.367 119.148 149.836 118.508C148.305 117.867 147.023 116.969 145.992 115.812C144.961 114.641 144.18 113.273 143.648 111.711C143.117 110.133 142.852 108.422 142.852 106.578ZM150.75 106.086V106.578C150.75 107.531 150.82 108.422 150.961 109.25C151.102 110.078 151.336 110.805 151.664 111.43C151.992 112.039 152.438 112.516 153 112.859C153.562 113.203 154.266 113.375 155.109 113.375C155.938 113.375 156.625 113.203 157.172 112.859C157.734 112.516 158.18 112.039 158.508 111.43C158.836 110.805 159.07 110.078 159.211 109.25C159.352 108.422 159.422 107.531 159.422 106.578V106.086C159.422 105.164 159.352 104.297 159.211 103.484C159.07 102.656 158.836 101.93 158.508 101.305C158.18 100.664 157.734 100.164 157.172 99.8047C156.609 99.4453 155.906 99.2656 155.062 99.2656C154.234 99.2656 153.539 99.4453 152.977 99.8047C152.43 100.164 151.992 100.664 151.664 101.305C151.336 101.93 151.102 102.656 150.961 103.484C150.82 104.297 150.75 105.164 150.75 106.086ZM171.422 93.6406H179.344V119.82C179.344 121.852 178.953 123.562 178.172 124.953C177.391 126.359 176.273 127.422 174.82 128.141C173.367 128.875 171.633 129.242 169.617 129.242C168.945 129.242 168.328 129.211 167.766 129.148C167.188 129.102 166.555 129 165.867 128.844V122.867C166.273 122.93 166.648 122.977 166.992 123.008C167.336 123.055 167.711 123.078 168.117 123.078C168.836 123.078 169.438 122.961 169.922 122.727C170.406 122.492 170.773 122.133 171.023 121.648C171.289 121.164 171.422 120.555 171.422 119.82V93.6406ZM170.836 87.1016C170.836 85.9766 171.242 85.0547 172.055 84.3359C172.867 83.6172 173.922 83.2578 175.219 83.2578C176.516 83.2578 177.57 83.6172 178.383 84.3359C179.195 85.0547 179.602 85.9766 179.602 87.1016C179.602 88.2266 179.195 89.1484 178.383 89.8672C177.57 90.5859 176.516 90.9453 175.219 90.9453C173.922 90.9453 172.867 90.5859 172.055 89.8672C171.242 89.1484 170.836 88.2266 170.836 87.1016ZM196.102 119.469C194.039 119.469 192.195 119.148 190.57 118.508C188.945 117.852 187.57 116.953 186.445 115.812C185.336 114.672 184.484 113.359 183.891 111.875C183.312 110.391 183.023 108.82 183.023 107.164V106.273C183.023 104.414 183.281 102.695 183.797 101.117C184.312 99.5234 185.078 98.1328 186.094 96.9453C187.109 95.7578 188.383 94.8359 189.914 94.1797C191.445 93.5078 193.227 93.1719 195.258 93.1719C197.055 93.1719 198.664 93.4609 200.086 94.0391C201.508 94.6172 202.711 95.4453 203.695 96.5234C204.695 97.6016 205.453 98.9062 205.969 100.438C206.5 101.969 206.766 103.688 206.766 105.594V108.805H186.047V103.859H199.055V103.25C199.07 102.406 198.922 101.688 198.609 101.094C198.312 100.5 197.875 100.047 197.297 99.7344C196.719 99.4219 196.016 99.2656 195.188 99.2656C194.328 99.2656 193.617 99.4531 193.055 99.8281C192.508 100.203 192.078 100.719 191.766 101.375C191.469 102.016 191.258 102.758 191.133 103.602C191.008 104.445 190.945 105.336 190.945 106.273V107.164C190.945 108.102 191.07 108.953 191.32 109.719C191.586 110.484 191.961 111.141 192.445 111.688C192.945 112.219 193.539 112.633 194.227 112.93C194.93 113.227 195.727 113.375 196.617 113.375C197.695 113.375 198.758 113.172 199.805 112.766C200.852 112.359 201.75 111.688 202.5 110.75L206.086 115.016C205.57 115.75 204.836 116.461 203.883 117.148C202.945 117.836 201.82 118.398 200.508 118.836C199.195 119.258 197.727 119.469 196.102 119.469ZM220.688 113.375C221.422 113.375 222.047 113.242 222.562 112.977C223.094 112.695 223.492 112.305 223.758 111.805C224.039 111.289 224.172 110.672 224.156 109.953H231.586C231.602 111.859 231.133 113.531 230.18 114.969C229.242 116.391 227.961 117.5 226.336 118.297C224.727 119.078 222.906 119.469 220.875 119.469C218.891 119.469 217.156 119.148 215.672 118.508C214.188 117.852 212.945 116.945 211.945 115.789C210.961 114.617 210.219 113.25 209.719 111.688C209.234 110.125 208.992 108.43 208.992 106.602V106.062C208.992 104.234 209.234 102.539 209.719 100.977C210.219 99.3984 210.961 98.0312 211.945 96.875C212.945 95.7031 214.18 94.7969 215.648 94.1562C217.133 93.5 218.859 93.1719 220.828 93.1719C222.938 93.1719 224.797 93.5703 226.406 94.3672C228.031 95.1641 229.305 96.3203 230.227 97.8359C231.148 99.3516 231.602 101.188 231.586 103.344H224.156C224.172 102.578 224.055 101.891 223.805 101.281C223.555 100.672 223.164 100.188 222.633 99.8281C222.117 99.4531 221.453 99.2656 220.641 99.2656C219.828 99.2656 219.172 99.4453 218.672 99.8047C218.172 100.164 217.789 100.664 217.523 101.305C217.273 101.93 217.102 102.648 217.008 103.461C216.93 104.273 216.891 105.141 216.891 106.062V106.602C216.891 107.539 216.93 108.422 217.008 109.25C217.102 110.062 217.281 110.781 217.547 111.406C217.812 112.016 218.195 112.5 218.695 112.859C219.195 113.203 219.859 113.375 220.688 113.375ZM248.32 93.6406V99.125H233.039V93.6406H248.32ZM236.25 87.3359H244.148V110.727C244.148 111.398 244.227 111.922 244.383 112.297C244.539 112.656 244.805 112.914 245.18 113.07C245.57 113.211 246.086 113.281 246.727 113.281C247.18 113.281 247.555 113.273 247.852 113.258C248.148 113.227 248.43 113.188 248.695 113.141V118.789C248.023 119.008 247.32 119.172 246.586 119.281C245.852 119.406 245.07 119.469 244.242 119.469C242.555 119.469 241.109 119.203 239.906 118.672C238.719 118.141 237.812 117.305 237.188 116.164C236.562 115.023 236.25 113.539 236.25 111.711V87.3359ZM277.406 107.422H268.922V101.07H277.406C278.562 101.07 279.5 100.875 280.219 100.484C280.938 100.094 281.461 99.5547 281.789 98.8672C282.133 98.1641 282.305 97.375 282.305 96.5C282.305 95.5625 282.133 94.6953 281.789 93.8984C281.461 93.1016 280.938 92.4609 280.219 91.9766C279.5 91.4766 278.562 91.2266 277.406 91.2266H272.016V119H263.789V84.875H277.406C280.141 84.875 282.492 85.375 284.461 86.375C286.445 87.375 287.969 88.75 289.031 90.5C290.094 92.2344 290.625 94.2188 290.625 96.4531C290.625 98.6562 290.094 100.578 289.031 102.219C287.969 103.859 286.445 105.141 284.461 106.062C282.492 106.969 280.141 107.422 277.406 107.422ZM302.414 83V119H294.516V83H302.414ZM301.477 105.453L299.625 105.5C299.625 103.719 299.844 102.078 300.281 100.578C300.719 99.0781 301.344 97.7734 302.156 96.6641C302.969 95.5547 303.945 94.6953 305.086 94.0859C306.227 93.4766 307.492 93.1719 308.883 93.1719C310.133 93.1719 311.273 93.3516 312.305 93.7109C313.352 94.0703 314.25 94.6484 315 95.4453C315.766 96.2422 316.352 97.2812 316.758 98.5625C317.18 99.8438 317.391 101.406 317.391 103.25V119H309.445V103.203C309.445 102.172 309.297 101.375 309 100.812C308.719 100.234 308.312 99.8359 307.781 99.6172C307.25 99.3828 306.602 99.2656 305.836 99.2656C304.914 99.2656 304.164 99.4219 303.586 99.7344C303.008 100.047 302.562 100.484 302.25 101.047C301.953 101.594 301.75 102.242 301.641 102.992C301.531 103.742 301.477 104.562 301.477 105.453ZM330.117 93.6406V119H322.195V93.6406H330.117ZM321.727 87.1016C321.727 85.9766 322.133 85.0547 322.945 84.3359C323.758 83.6172 324.812 83.2578 326.109 83.2578C327.406 83.2578 328.461 83.6172 329.273 84.3359C330.086 85.0547 330.492 85.9766 330.492 87.1016C330.492 88.2266 330.086 89.1484 329.273 89.8672C328.461 90.5859 327.406 90.9453 326.109 90.9453C324.812 90.9453 323.758 90.5859 322.945 89.8672C322.133 89.1484 321.727 88.2266 321.727 87.1016ZM343.336 83V119H335.414V83H343.336ZM347.227 106.578V106.086C347.227 104.227 347.492 102.516 348.023 100.953C348.555 99.375 349.336 98.0078 350.367 96.8516C351.398 95.6953 352.672 94.7969 354.188 94.1562C355.703 93.5 357.453 93.1719 359.438 93.1719C361.438 93.1719 363.195 93.5 364.711 94.1562C366.242 94.7969 367.523 95.6953 368.555 96.8516C369.586 98.0078 370.367 99.375 370.898 100.953C371.43 102.516 371.695 104.227 371.695 106.086V106.578C371.695 108.422 371.43 110.133 370.898 111.711C370.367 113.273 369.586 114.641 368.555 115.812C367.523 116.969 366.25 117.867 364.734 118.508C363.219 119.148 361.469 119.469 359.484 119.469C357.5 119.469 355.742 119.148 354.211 118.508C352.68 117.867 351.398 116.969 350.367 115.812C349.336 114.641 348.555 113.273 348.023 111.711C347.492 110.133 347.227 108.422 347.227 106.578ZM355.125 106.086V106.578C355.125 107.531 355.195 108.422 355.336 109.25C355.477 110.078 355.711 110.805 356.039 111.43C356.367 112.039 356.812 112.516 357.375 112.859C357.938 113.203 358.641 113.375 359.484 113.375C360.312 113.375 361 113.203 361.547 112.859C362.109 112.516 362.555 112.039 362.883 111.43C363.211 110.805 363.445 110.078 363.586 109.25C363.727 108.422 363.797 107.531 363.797 106.578V106.086C363.797 105.164 363.727 104.297 363.586 103.484C363.445 102.656 363.211 101.93 362.883 101.305C362.555 100.664 362.109 100.164 361.547 99.8047C360.984 99.4453 360.281 99.2656 359.438 99.2656C358.609 99.2656 357.914 99.4453 357.352 99.8047C356.805 100.164 356.367 100.664 356.039 101.305C355.711 101.93 355.477 102.656 355.336 103.484C355.195 104.297 355.125 105.164 355.125 106.086ZM388.5 111.875C388.5 111.438 388.352 111.062 388.055 110.75C387.773 110.422 387.273 110.125 386.555 109.859C385.836 109.578 384.828 109.297 383.531 109.016C382.297 108.75 381.133 108.398 380.039 107.961C378.961 107.523 378.016 106.992 377.203 106.367C376.391 105.742 375.75 105 375.281 104.141C374.828 103.281 374.602 102.297 374.602 101.188C374.602 100.109 374.828 99.0938 375.281 98.1406C375.75 97.1719 376.43 96.3203 377.32 95.5859C378.227 94.8359 379.328 94.25 380.625 93.8281C381.922 93.3906 383.398 93.1719 385.055 93.1719C387.336 93.1719 389.305 93.5234 390.961 94.2266C392.617 94.9141 393.891 95.8828 394.781 97.1328C395.688 98.3672 396.141 99.7969 396.141 101.422H388.242C388.242 100.781 388.133 100.234 387.914 99.7812C387.711 99.3281 387.375 98.9844 386.906 98.75C386.438 98.5 385.812 98.375 385.031 98.375C384.484 98.375 383.984 98.4766 383.531 98.6797C383.094 98.8828 382.742 99.1641 382.477 99.5234C382.211 99.8828 382.078 100.305 382.078 100.789C382.078 101.133 382.156 101.445 382.312 101.727C382.484 101.992 382.742 102.242 383.086 102.477C383.43 102.695 383.867 102.898 384.398 103.086C384.93 103.258 385.57 103.414 386.32 103.555C388.023 103.867 389.617 104.312 391.102 104.891C392.586 105.469 393.789 106.289 394.711 107.352C395.648 108.414 396.117 109.844 396.117 111.641C396.117 112.766 395.859 113.805 395.344 114.758C394.828 115.695 394.086 116.523 393.117 117.242C392.148 117.945 390.984 118.492 389.625 118.883C388.266 119.273 386.734 119.469 385.031 119.469C382.609 119.469 380.562 119.039 378.891 118.18C377.219 117.305 375.953 116.211 375.094 114.898C374.25 113.57 373.828 112.227 373.828 110.867H381.188C381.219 111.648 381.406 112.289 381.75 112.789C382.109 113.289 382.586 113.656 383.18 113.891C383.773 114.125 384.461 114.242 385.242 114.242C385.961 114.242 386.555 114.141 387.023 113.938C387.508 113.734 387.875 113.461 388.125 113.117C388.375 112.758 388.5 112.344 388.5 111.875ZM398.836 106.578V106.086C398.836 104.227 399.102 102.516 399.633 100.953C400.164 99.375 400.945 98.0078 401.977 96.8516C403.008 95.6953 404.281 94.7969 405.797 94.1562C407.312 93.5 409.062 93.1719 411.047 93.1719C413.047 93.1719 414.805 93.5 416.32 94.1562C417.852 94.7969 419.133 95.6953 420.164 96.8516C421.195 98.0078 421.977 99.375 422.508 100.953C423.039 102.516 423.305 104.227 423.305 106.086V106.578C423.305 108.422 423.039 110.133 422.508 111.711C421.977 113.273 421.195 114.641 420.164 115.812C419.133 116.969 417.859 117.867 416.344 118.508C414.828 119.148 413.078 119.469 411.094 119.469C409.109 119.469 407.352 119.148 405.82 118.508C404.289 117.867 403.008 116.969 401.977 115.812C400.945 114.641 400.164 113.273 399.633 111.711C399.102 110.133 398.836 108.422 398.836 106.578ZM406.734 106.086V106.578C406.734 107.531 406.805 108.422 406.945 109.25C407.086 110.078 407.32 110.805 407.648 111.43C407.977 112.039 408.422 112.516 408.984 112.859C409.547 113.203 410.25 113.375 411.094 113.375C411.922 113.375 412.609 113.203 413.156 112.859C413.719 112.516 414.164 112.039 414.492 111.43C414.82 110.805 415.055 110.078 415.195 109.25C415.336 108.422 415.406 107.531 415.406 106.578V106.086C415.406 105.164 415.336 104.297 415.195 103.484C415.055 102.656 414.82 101.93 414.492 101.305C414.164 100.664 413.719 100.164 413.156 99.8047C412.594 99.4453 411.891 99.2656 411.047 99.2656C410.219 99.2656 409.523 99.4453 408.961 99.8047C408.414 100.164 407.977 100.664 407.648 101.305C407.32 101.93 407.086 102.656 406.945 103.484C406.805 104.297 406.734 105.164 406.734 106.086ZM434.789 98.5156V128.75H426.891V93.6406H434.25L434.789 98.5156ZM450.352 106.016V106.508C450.352 108.352 450.141 110.062 449.719 111.641C449.297 113.219 448.672 114.594 447.844 115.766C447.016 116.938 445.984 117.852 444.75 118.508C443.531 119.148 442.117 119.469 440.508 119.469C438.992 119.469 437.688 119.133 436.594 118.461C435.5 117.789 434.586 116.859 433.852 115.672C433.117 114.484 432.523 113.125 432.07 111.594C431.617 110.062 431.258 108.445 430.992 106.742V106.109C431.258 104.281 431.617 102.586 432.07 101.023C432.523 99.4453 433.117 98.0703 433.852 96.8984C434.586 95.7266 435.492 94.8125 436.57 94.1562C437.664 93.5 438.969 93.1719 440.484 93.1719C442.094 93.1719 443.508 93.4766 444.727 94.0859C445.961 94.6953 446.992 95.5703 447.82 96.7109C448.664 97.8359 449.297 99.1875 449.719 100.766C450.141 102.344 450.352 104.094 450.352 106.016ZM442.453 106.508V106.016C442.453 105.031 442.383 104.133 442.242 103.32C442.102 102.492 441.875 101.773 441.562 101.164C441.266 100.555 440.867 100.086 440.367 99.7578C439.867 99.4297 439.25 99.2656 438.516 99.2656C437.672 99.2656 436.961 99.3984 436.383 99.6641C435.82 99.9141 435.367 100.305 435.023 100.836C434.695 101.352 434.461 102 434.32 102.781C434.195 103.547 434.141 104.445 434.156 105.477V107.398C434.125 108.586 434.242 109.633 434.508 110.539C434.773 111.43 435.234 112.125 435.891 112.625C436.547 113.125 437.438 113.375 438.562 113.375C439.312 113.375 439.938 113.203 440.438 112.859C440.938 112.5 441.336 112.008 441.633 111.383C441.93 110.742 442.141 110.008 442.266 109.18C442.391 108.352 442.453 107.461 442.453 106.508ZM461.602 83V119H453.703V83H461.602ZM460.664 105.453L458.812 105.5C458.812 103.719 459.031 102.078 459.469 100.578C459.906 99.0781 460.531 97.7734 461.344 96.6641C462.156 95.5547 463.133 94.6953 464.273 94.0859C465.414 93.4766 466.68 93.1719 468.07 93.1719C469.32 93.1719 470.461 93.3516 471.492 93.7109C472.539 94.0703 473.438 94.6484 474.188 95.4453C474.953 96.2422 475.539 97.2812 475.945 98.5625C476.367 99.8438 476.578 101.406 476.578 103.25V119H468.633V103.203C468.633 102.172 468.484 101.375 468.188 100.812C467.906 100.234 467.5 99.8359 466.969 99.6172C466.438 99.3828 465.789 99.2656 465.023 99.2656C464.102 99.2656 463.352 99.4219 462.773 99.7344C462.195 100.047 461.75 100.484 461.438 101.047C461.141 101.594 460.938 102.242 460.828 102.992C460.719 103.742 460.664 104.562 460.664 105.453ZM488.742 116.023L495.305 93.6406H503.789L493.594 122.773C493.375 123.414 493.086 124.102 492.727 124.836C492.367 125.586 491.875 126.297 491.25 126.969C490.625 127.641 489.82 128.188 488.836 128.609C487.867 129.031 486.664 129.242 485.227 129.242C484.461 129.242 483.898 129.203 483.539 129.125C483.195 129.062 482.664 128.945 481.945 128.773V123.125C482.148 123.125 482.32 123.125 482.461 123.125C482.617 123.125 482.789 123.125 482.977 123.125C483.82 123.125 484.492 123.039 484.992 122.867C485.508 122.695 485.898 122.445 486.164 122.117C486.445 121.789 486.664 121.391 486.82 120.922L488.742 116.023ZM487.078 93.6406L492.07 111.383L492.938 119.75H487.641L478.617 93.6406H487.078Z" fill="black"/>
<path d="M1134 0H1348C1356.28 0 1363 6.71573 1363 15V148C1363 156.284 1356.28 163 1348 163H1134V0Z" fill="#8DB78F"/>
<path d="M1234.26 103.786H1262.74V109.357H1234.26V103.786ZM1239.96 114.929H1257.04V120.5H1239.96V114.929ZM1248.5 42.5C1240.95 42.5 1233.71 45.4349 1228.37 50.6592C1223.03 55.8834 1220.03 62.969 1220.03 70.3571C1219.84 74.4057 1220.63 78.4412 1222.34 82.1315C1224.05 85.8219 1226.64 89.0616 1229.88 91.5843C1232.73 94.175 1234.26 95.6514 1234.26 98.2143H1239.96C1239.96 93.0886 1236.8 90.2193 1233.72 87.4614C1231.06 85.4676 1228.94 82.8658 1227.55 79.8838C1226.15 76.9019 1225.53 73.6308 1225.72 70.3571C1225.72 64.4466 1228.12 58.7781 1232.39 54.5988C1236.67 50.4194 1242.46 48.0714 1248.5 48.0714C1254.54 48.0714 1260.33 50.4194 1264.61 54.5988C1268.88 58.7781 1271.28 64.4466 1271.28 70.3571C1271.47 73.6333 1270.84 76.9059 1269.44 79.888C1268.04 82.8701 1265.92 85.4706 1263.25 87.4614C1260.2 90.2471 1257.04 93.0329 1257.04 98.2143H1262.74C1262.74 95.6514 1264.25 94.175 1267.12 91.5564C1270.36 89.0381 1272.94 85.8031 1274.66 82.1176C1276.37 78.4321 1277.16 74.4014 1276.97 70.3571C1276.97 66.6989 1276.24 63.0765 1274.81 59.6967C1273.37 56.3169 1271.28 53.2459 1268.63 50.6592C1265.99 48.0724 1262.85 46.0205 1259.4 44.6205C1255.94 43.2205 1252.24 42.5 1248.5 42.5Z" fill="white"/>
</svg>
