<svg width="1363" height="163" viewBox="0 0 1363 163" fill="none" xmlns="http://www.w3.org/2000/svg">
<path d="M0 15C0 6.71573 6.71573 0 15 0H37V163H15C6.71573 163 0 156.284 0 148V15Z" fill="#424242"/>
<rect width="1097" height="163" transform="translate(37)" fill="#F0F0F0"/>
<path d="M101.906 53.9219L94.3945 51.2383V48.0859L104.602 52.375V54.6367L101.906 53.9219ZM94.3945 56.1719L101.918 53.4297L104.602 52.7852V55.0352L94.3945 59.3242V56.1719ZM123.867 58.2578V61H115.277V58.2578H123.867ZM116.414 43.9375V61H112.898V43.9375H116.414ZM131.508 61.2344C130.523 61.2344 129.641 61.0781 128.859 60.7656C128.078 60.4453 127.414 60.0039 126.867 59.4414C126.328 58.8789 125.914 58.2266 125.625 57.4844C125.336 56.7344 125.191 55.9375 125.191 55.0938V54.625C125.191 53.6641 125.328 52.7852 125.602 51.9883C125.875 51.1914 126.266 50.5 126.773 49.9141C127.289 49.3281 127.914 48.8789 128.648 48.5664C129.383 48.2461 130.211 48.0859 131.133 48.0859C132.031 48.0859 132.828 48.2344 133.523 48.5312C134.219 48.8281 134.801 49.25 135.27 49.7969C135.746 50.3438 136.105 51 136.348 51.7656C136.59 52.5234 136.711 53.3672 136.711 54.2969V55.7031H126.633V53.4531H133.395V53.1953C133.395 52.7266 133.309 52.3086 133.137 51.9414C132.973 51.5664 132.723 51.2695 132.387 51.0508C132.051 50.832 131.621 50.7227 131.098 50.7227C130.652 50.7227 130.27 50.8203 129.949 51.0156C129.629 51.2109 129.367 51.4844 129.164 51.8359C128.969 52.1875 128.82 52.6016 128.719 53.0781C128.625 53.5469 128.578 54.0625 128.578 54.625V55.0938C128.578 55.6016 128.648 56.0703 128.789 56.5C128.938 56.9297 129.145 57.3008 129.41 57.6133C129.684 57.9258 130.012 58.168 130.395 58.3398C130.785 58.5117 131.227 58.5977 131.719 58.5977C132.328 58.5977 132.895 58.4805 133.418 58.2461C133.949 58.0039 134.406 57.6406 134.789 57.1562L136.43 58.9375C136.164 59.3203 135.801 59.6875 135.34 60.0391C134.887 60.3906 134.34 60.6797 133.699 60.9062C133.059 61.125 132.328 61.2344 131.508 61.2344ZM138.633 43H142.008V58.0938L141.668 61H138.633V43ZM150.035 54.5312V54.7773C150.035 55.7227 149.934 56.5898 149.73 57.3789C149.535 58.168 149.23 58.8516 148.816 59.4297C148.402 60 147.887 60.4453 147.27 60.7656C146.66 61.0781 145.941 61.2344 145.113 61.2344C144.34 61.2344 143.668 61.0781 143.098 60.7656C142.535 60.4531 142.062 60.0117 141.68 59.4414C141.297 58.8711 140.988 58.2031 140.754 57.4375C140.52 56.6719 140.344 55.8359 140.227 54.9297V54.3906C140.344 53.4844 140.52 52.6484 140.754 51.8828C140.988 51.1172 141.297 50.4492 141.68 49.8789C142.062 49.3086 142.535 48.8672 143.098 48.5547C143.66 48.2422 144.324 48.0859 145.09 48.0859C145.926 48.0859 146.652 48.2461 147.27 48.5664C147.895 48.8789 148.41 49.3242 148.816 49.9023C149.23 50.4727 149.535 51.1523 149.73 51.9414C149.934 52.7227 150.035 53.5859 150.035 54.5312ZM146.66 54.7773V54.5312C146.66 54.0156 146.621 53.5312 146.543 53.0781C146.473 52.6172 146.348 52.2148 146.168 51.8711C145.988 51.5195 145.742 51.2422 145.43 51.0391C145.125 50.8359 144.73 50.7344 144.246 50.7344C143.785 50.7344 143.395 50.8125 143.074 50.9688C142.754 51.125 142.488 51.3438 142.277 51.625C142.074 51.9062 141.922 52.2422 141.82 52.6328C141.719 53.0156 141.656 53.4375 141.633 53.8984V55.4336C141.656 56.0508 141.758 56.5977 141.938 57.0742C142.125 57.543 142.406 57.9141 142.781 58.1875C143.164 58.4531 143.66 58.5859 144.27 58.5859C144.746 58.5859 145.141 58.4922 145.453 58.3047C145.766 58.1172 146.008 57.8516 146.18 57.5078C146.359 57.1641 146.484 56.7617 146.555 56.3008C146.625 55.832 146.66 55.3242 146.66 54.7773ZM158.977 58.1406V52.4922C158.977 52.0859 158.91 51.7383 158.777 51.4492C158.645 51.1523 158.438 50.9219 158.156 50.7578C157.883 50.5938 157.527 50.5117 157.09 50.5117C156.715 50.5117 156.391 50.5781 156.117 50.7109C155.844 50.8359 155.633 51.0195 155.484 51.2617C155.336 51.4961 155.262 51.7734 155.262 52.0938H151.887C151.887 51.5547 152.012 51.043 152.262 50.5586C152.512 50.0742 152.875 49.6484 153.352 49.2812C153.828 48.9062 154.395 48.6133 155.051 48.4023C155.715 48.1914 156.457 48.0859 157.277 48.0859C158.262 48.0859 159.137 48.25 159.902 48.5781C160.668 48.9062 161.27 49.3984 161.707 50.0547C162.152 50.7109 162.375 51.5312 162.375 52.5156V57.9414C162.375 58.6367 162.418 59.207 162.504 59.6523C162.59 60.0898 162.715 60.4727 162.879 60.8008V61H159.469C159.305 60.6562 159.18 60.2266 159.094 59.7109C159.016 59.1875 158.977 58.6641 158.977 58.1406ZM159.422 53.2773L159.445 55.1875H157.559C157.113 55.1875 156.727 55.2383 156.398 55.3398C156.07 55.4414 155.801 55.5859 155.59 55.7734C155.379 55.9531 155.223 56.1641 155.121 56.4062C155.027 56.6484 154.98 56.9141 154.98 57.2031C154.98 57.4922 155.047 57.7539 155.18 57.9883C155.312 58.2148 155.504 58.3945 155.754 58.5273C156.004 58.6523 156.297 58.7148 156.633 58.7148C157.141 58.7148 157.582 58.6133 157.957 58.4102C158.332 58.207 158.621 57.957 158.824 57.6602C159.035 57.3633 159.145 57.082 159.152 56.8164L160.043 58.2461C159.918 58.5664 159.746 58.8984 159.527 59.2422C159.316 59.5859 159.047 59.9102 158.719 60.2148C158.391 60.5117 157.996 60.7578 157.535 60.9531C157.074 61.1406 156.527 61.2344 155.895 61.2344C155.09 61.2344 154.359 61.0742 153.703 60.7539C153.055 60.4258 152.539 59.9766 152.156 59.4062C151.781 58.8281 151.594 58.1719 151.594 57.4375C151.594 56.7734 151.719 56.1836 151.969 55.668C152.219 55.1523 152.586 54.7188 153.07 54.3672C153.562 54.0078 154.176 53.7383 154.91 53.5586C155.645 53.3711 156.496 53.2773 157.465 53.2773H159.422ZM168.281 51.0273V61H164.906V48.3203H168.07L168.281 51.0273ZM167.789 54.2148H166.875C166.875 53.2773 166.996 52.4336 167.238 51.6836C167.48 50.9258 167.82 50.2812 168.258 49.75C168.695 49.2109 169.215 48.8008 169.816 48.5195C170.426 48.2305 171.105 48.0859 171.855 48.0859C172.449 48.0859 172.992 48.1719 173.484 48.3438C173.977 48.5156 174.398 48.7891 174.75 49.1641C175.109 49.5391 175.383 50.0352 175.57 50.6523C175.766 51.2695 175.863 52.0234 175.863 52.9141V61H172.465V52.9023C172.465 52.3398 172.387 51.9023 172.23 51.5898C172.074 51.2773 171.844 51.0586 171.539 50.9336C171.242 50.8008 170.875 50.7344 170.438 50.7344C169.984 50.7344 169.59 50.8242 169.254 51.0039C168.926 51.1836 168.652 51.4336 168.434 51.7539C168.223 52.0664 168.062 52.4336 167.953 52.8555C167.844 53.2773 167.789 53.7305 167.789 54.2148ZM177.891 54.7891V54.543C177.891 53.6133 178.023 52.7578 178.289 51.9766C178.555 51.1875 178.941 50.5039 179.449 49.9258C179.957 49.3477 180.582 48.8984 181.324 48.5781C182.066 48.25 182.918 48.0859 183.879 48.0859C184.84 48.0859 185.695 48.25 186.445 48.5781C187.195 48.8984 187.824 49.3477 188.332 49.9258C188.848 50.5039 189.238 51.1875 189.504 51.9766C189.77 52.7578 189.902 53.6133 189.902 54.543V54.7891C189.902 55.7109 189.77 56.5664 189.504 57.3555C189.238 58.1367 188.848 58.8203 188.332 59.4062C187.824 59.9844 187.199 60.4336 186.457 60.7539C185.715 61.0742 184.863 61.2344 183.902 61.2344C182.941 61.2344 182.086 61.0742 181.336 60.7539C180.594 60.4336 179.965 59.9844 179.449 59.4062C178.941 58.8203 178.555 58.1367 178.289 57.3555C178.023 56.5664 177.891 55.7109 177.891 54.7891ZM181.266 54.543V54.7891C181.266 55.3203 181.312 55.8164 181.406 56.2773C181.5 56.7383 181.648 57.1445 181.852 57.4961C182.062 57.8398 182.336 58.1094 182.672 58.3047C183.008 58.5 183.418 58.5977 183.902 58.5977C184.371 58.5977 184.773 58.5 185.109 58.3047C185.445 58.1094 185.715 57.8398 185.918 57.4961C186.121 57.1445 186.27 56.7383 186.363 56.2773C186.465 55.8164 186.516 55.3203 186.516 54.7891V54.543C186.516 54.0273 186.465 53.543 186.363 53.0898C186.27 52.6289 186.117 52.2227 185.906 51.8711C185.703 51.5117 185.434 51.2305 185.098 51.0273C184.762 50.8242 184.355 50.7227 183.879 50.7227C183.402 50.7227 182.996 50.8242 182.66 51.0273C182.332 51.2305 182.062 51.5117 181.852 51.8711C181.648 52.2227 181.5 52.6289 181.406 53.0898C181.312 53.543 181.266 54.0273 181.266 54.543ZM195.281 51.0273V61H191.906V48.3203H195.07L195.281 51.0273ZM194.789 54.2148H193.875C193.875 53.2773 193.996 52.4336 194.238 51.6836C194.48 50.9258 194.82 50.2812 195.258 49.75C195.695 49.2109 196.215 48.8008 196.816 48.5195C197.426 48.2305 198.105 48.0859 198.855 48.0859C199.449 48.0859 199.992 48.1719 200.484 48.3438C200.977 48.5156 201.398 48.7891 201.75 49.1641C202.109 49.5391 202.383 50.0352 202.57 50.6523C202.766 51.2695 202.863 52.0234 202.863 52.9141V61H199.465V52.9023C199.465 52.3398 199.387 51.9023 199.23 51.5898C199.074 51.2773 198.844 51.0586 198.539 50.9336C198.242 50.8008 197.875 50.7344 197.438 50.7344C196.984 50.7344 196.59 50.8242 196.254 51.0039C195.926 51.1836 195.652 51.4336 195.434 51.7539C195.223 52.0664 195.062 52.4336 194.953 52.8555C194.844 53.2773 194.789 53.7305 194.789 54.2148ZM211.617 43.9375H217.98C219.285 43.9375 220.406 44.1328 221.344 44.5234C222.289 44.9141 223.016 45.4922 223.523 46.2578C224.031 47.0234 224.285 47.9648 224.285 49.082C224.285 49.9961 224.129 50.7812 223.816 51.4375C223.512 52.0859 223.078 52.6289 222.516 53.0664C221.961 53.4961 221.309 53.8398 220.559 54.0977L219.445 54.6836H213.914L213.891 51.9414H218.004C218.621 51.9414 219.133 51.832 219.539 51.6133C219.945 51.3945 220.25 51.0898 220.453 50.6992C220.664 50.3086 220.77 49.8555 220.77 49.3398C220.77 48.793 220.668 48.3203 220.465 47.9219C220.262 47.5234 219.953 47.2188 219.539 47.0078C219.125 46.7969 218.605 46.6914 217.98 46.6914H215.133V61H211.617V43.9375ZM221.156 61L217.266 53.3945L220.98 53.3711L224.918 60.8359V61H221.156ZM232.617 61.2344C231.633 61.2344 230.75 61.0781 229.969 60.7656C229.188 60.4453 228.523 60.0039 227.977 59.4414C227.438 58.8789 227.023 58.2266 226.734 57.4844C226.445 56.7344 226.301 55.9375 226.301 55.0938V54.625C226.301 53.6641 226.438 52.7852 226.711 51.9883C226.984 51.1914 227.375 50.5 227.883 49.9141C228.398 49.3281 229.023 48.8789 229.758 48.5664C230.492 48.2461 231.32 48.0859 232.242 48.0859C233.141 48.0859 233.938 48.2344 234.633 48.5312C235.328 48.8281 235.91 49.25 236.379 49.7969C236.855 50.3438 237.215 51 237.457 51.7656C237.699 52.5234 237.82 53.3672 237.82 54.2969V55.7031H227.742V53.4531H234.504V53.1953C234.504 52.7266 234.418 52.3086 234.246 51.9414C234.082 51.5664 233.832 51.2695 233.496 51.0508C233.16 50.832 232.73 50.7227 232.207 50.7227C231.762 50.7227 231.379 50.8203 231.059 51.0156C230.738 51.2109 230.477 51.4844 230.273 51.8359C230.078 52.1875 229.93 52.6016 229.828 53.0781C229.734 53.5469 229.688 54.0625 229.688 54.625V55.0938C229.688 55.6016 229.758 56.0703 229.898 56.5C230.047 56.9297 230.254 57.3008 230.52 57.6133C230.793 57.9258 231.121 58.168 231.504 58.3398C231.895 58.5117 232.336 58.5977 232.828 58.5977C233.438 58.5977 234.004 58.4805 234.527 58.2461C235.059 58.0039 235.516 57.6406 235.898 57.1562L237.539 58.9375C237.273 59.3203 236.91 59.6875 236.449 60.0391C235.996 60.3906 235.449 60.6797 234.809 60.9062C234.168 61.125 233.438 61.2344 232.617 61.2344ZM246.586 58.1406V52.4922C246.586 52.0859 246.52 51.7383 246.387 51.4492C246.254 51.1523 246.047 50.9219 245.766 50.7578C245.492 50.5938 245.137 50.5117 244.699 50.5117C244.324 50.5117 244 50.5781 243.727 50.7109C243.453 50.8359 243.242 51.0195 243.094 51.2617C242.945 51.4961 242.871 51.7734 242.871 52.0938H239.496C239.496 51.5547 239.621 51.043 239.871 50.5586C240.121 50.0742 240.484 49.6484 240.961 49.2812C241.438 48.9062 242.004 48.6133 242.66 48.4023C243.324 48.1914 244.066 48.0859 244.887 48.0859C245.871 48.0859 246.746 48.25 247.512 48.5781C248.277 48.9062 248.879 49.3984 249.316 50.0547C249.762 50.7109 249.984 51.5312 249.984 52.5156V57.9414C249.984 58.6367 250.027 59.207 250.113 59.6523C250.199 60.0898 250.324 60.4727 250.488 60.8008V61H247.078C246.914 60.6562 246.789 60.2266 246.703 59.7109C246.625 59.1875 246.586 58.6641 246.586 58.1406ZM247.031 53.2773L247.055 55.1875H245.168C244.723 55.1875 244.336 55.2383 244.008 55.3398C243.68 55.4414 243.41 55.5859 243.199 55.7734C242.988 55.9531 242.832 56.1641 242.73 56.4062C242.637 56.6484 242.59 56.9141 242.59 57.2031C242.59 57.4922 242.656 57.7539 242.789 57.9883C242.922 58.2148 243.113 58.3945 243.363 58.5273C243.613 58.6523 243.906 58.7148 244.242 58.7148C244.75 58.7148 245.191 58.6133 245.566 58.4102C245.941 58.207 246.23 57.957 246.434 57.6602C246.645 57.3633 246.754 57.082 246.762 56.8164L247.652 58.2461C247.527 58.5664 247.355 58.8984 247.137 59.2422C246.926 59.5859 246.656 59.9102 246.328 60.2148C246 60.5117 245.605 60.7578 245.145 60.9531C244.684 61.1406 244.137 61.2344 243.504 61.2344C242.699 61.2344 241.969 61.0742 241.312 60.7539C240.664 60.4258 240.148 59.9766 239.766 59.4062C239.391 58.8281 239.203 58.1719 239.203 57.4375C239.203 56.7734 239.328 56.1836 239.578 55.668C239.828 55.1523 240.195 54.7188 240.68 54.3672C241.172 54.0078 241.785 53.7383 242.52 53.5586C243.254 53.3711 244.105 53.2773 245.074 53.2773H247.031ZM256.148 43V61H252.762V43H256.148ZM276.574 58.2578V61H267.492V58.2578H276.574ZM268.641 43.9375V61H265.125V43.9375H268.641ZM275.391 50.8867V53.5586H267.492V50.8867H275.391ZM276.562 43.9375V46.6914H267.492V43.9375H276.562ZM285.27 57.4961C285.27 57.2539 285.199 57.0352 285.059 56.8398C284.918 56.6445 284.656 56.4648 284.273 56.3008C283.898 56.1289 283.355 55.9727 282.645 55.832C282.004 55.6914 281.406 55.5156 280.852 55.3047C280.305 55.0859 279.828 54.8242 279.422 54.5195C279.023 54.2148 278.711 53.8555 278.484 53.4414C278.258 53.0195 278.145 52.5391 278.145 52C278.145 51.4688 278.258 50.9688 278.484 50.5C278.719 50.0312 279.051 49.6172 279.48 49.2578C279.918 48.8906 280.449 48.6055 281.074 48.4023C281.707 48.1914 282.418 48.0859 283.207 48.0859C284.309 48.0859 285.254 48.2617 286.043 48.6133C286.84 48.9648 287.449 49.4492 287.871 50.0664C288.301 50.6758 288.516 51.3711 288.516 52.1523H285.141C285.141 51.8242 285.07 51.5312 284.93 51.2734C284.797 51.0078 284.586 50.8008 284.297 50.6523C284.016 50.4961 283.648 50.418 283.195 50.418C282.82 50.418 282.496 50.4844 282.223 50.6172C281.949 50.7422 281.738 50.9141 281.59 51.1328C281.449 51.3438 281.379 51.5781 281.379 51.8359C281.379 52.0312 281.418 52.207 281.496 52.3633C281.582 52.5117 281.719 52.6484 281.906 52.7734C282.094 52.8984 282.336 53.0156 282.633 53.125C282.938 53.2266 283.312 53.3203 283.758 53.4062C284.672 53.5938 285.488 53.8398 286.207 54.1445C286.926 54.4414 287.496 54.8477 287.918 55.3633C288.34 55.8711 288.551 56.5391 288.551 57.3672C288.551 57.9297 288.426 58.4453 288.176 58.9141C287.926 59.3828 287.566 59.793 287.098 60.1445C286.629 60.4883 286.066 60.7578 285.41 60.9531C284.762 61.1406 284.031 61.2344 283.219 61.2344C282.039 61.2344 281.039 61.0234 280.219 60.6016C279.406 60.1797 278.789 59.6445 278.367 58.9961C277.953 58.3398 277.746 57.668 277.746 56.9805H280.945C280.961 57.4414 281.078 57.8125 281.297 58.0938C281.523 58.375 281.809 58.5781 282.152 58.7031C282.504 58.8281 282.883 58.8906 283.289 58.8906C283.727 58.8906 284.09 58.832 284.379 58.7148C284.668 58.5898 284.887 58.4258 285.035 58.2227C285.191 58.0117 285.27 57.7695 285.27 57.4961ZM296.953 48.3203V50.7109H289.57V48.3203H296.953ZM291.398 45.1914H294.773V57.1797C294.773 57.5469 294.82 57.8281 294.914 58.0234C295.016 58.2188 295.164 58.3555 295.359 58.4336C295.555 58.5039 295.801 58.5391 296.098 58.5391C296.309 58.5391 296.496 58.5312 296.66 58.5156C296.832 58.4922 296.977 58.4688 297.094 58.4453L297.105 60.9297C296.816 61.0234 296.504 61.0977 296.168 61.1523C295.832 61.207 295.461 61.2344 295.055 61.2344C294.312 61.2344 293.664 61.1133 293.109 60.8711C292.562 60.6211 292.141 60.2227 291.844 59.6758C291.547 59.1289 291.398 58.4102 291.398 57.5195V45.1914ZM305.719 58.1406V52.4922C305.719 52.0859 305.652 51.7383 305.52 51.4492C305.387 51.1523 305.18 50.9219 304.898 50.7578C304.625 50.5938 304.27 50.5117 303.832 50.5117C303.457 50.5117 303.133 50.5781 302.859 50.7109C302.586 50.8359 302.375 51.0195 302.227 51.2617C302.078 51.4961 302.004 51.7734 302.004 52.0938H298.629C298.629 51.5547 298.754 51.043 299.004 50.5586C299.254 50.0742 299.617 49.6484 300.094 49.2812C300.57 48.9062 301.137 48.6133 301.793 48.4023C302.457 48.1914 303.199 48.0859 304.02 48.0859C305.004 48.0859 305.879 48.25 306.645 48.5781C307.41 48.9062 308.012 49.3984 308.449 50.0547C308.895 50.7109 309.117 51.5312 309.117 52.5156V57.9414C309.117 58.6367 309.16 59.207 309.246 59.6523C309.332 60.0898 309.457 60.4727 309.621 60.8008V61H306.211C306.047 60.6562 305.922 60.2266 305.836 59.7109C305.758 59.1875 305.719 58.6641 305.719 58.1406ZM306.164 53.2773L306.188 55.1875H304.301C303.855 55.1875 303.469 55.2383 303.141 55.3398C302.812 55.4414 302.543 55.5859 302.332 55.7734C302.121 55.9531 301.965 56.1641 301.863 56.4062C301.77 56.6484 301.723 56.9141 301.723 57.2031C301.723 57.4922 301.789 57.7539 301.922 57.9883C302.055 58.2148 302.246 58.3945 302.496 58.5273C302.746 58.6523 303.039 58.7148 303.375 58.7148C303.883 58.7148 304.324 58.6133 304.699 58.4102C305.074 58.207 305.363 57.957 305.566 57.6602C305.777 57.3633 305.887 57.082 305.895 56.8164L306.785 58.2461C306.66 58.5664 306.488 58.8984 306.27 59.2422C306.059 59.5859 305.789 59.9102 305.461 60.2148C305.133 60.5117 304.738 60.7578 304.277 60.9531C303.816 61.1406 303.27 61.2344 302.637 61.2344C301.832 61.2344 301.102 61.0742 300.445 60.7539C299.797 60.4258 299.281 59.9766 298.898 59.4062C298.523 58.8281 298.336 58.1719 298.336 57.4375C298.336 56.7734 298.461 56.1836 298.711 55.668C298.961 55.1523 299.328 54.7188 299.812 54.3672C300.305 54.0078 300.918 53.7383 301.652 53.5586C302.387 53.3711 303.238 53.2773 304.207 53.2773H306.164ZM317.93 48.3203V50.7109H310.547V48.3203H317.93ZM312.375 45.1914H315.75V57.1797C315.75 57.5469 315.797 57.8281 315.891 58.0234C315.992 58.2188 316.141 58.3555 316.336 58.4336C316.531 58.5039 316.777 58.5391 317.074 58.5391C317.285 58.5391 317.473 58.5312 317.637 58.5156C317.809 58.4922 317.953 58.4688 318.07 58.4453L318.082 60.9297C317.793 61.0234 317.48 61.0977 317.145 61.1523C316.809 61.207 316.438 61.2344 316.031 61.2344C315.289 61.2344 314.641 61.1133 314.086 60.8711C313.539 60.6211 313.117 60.2227 312.82 59.6758C312.523 59.1289 312.375 58.4102 312.375 57.5195V45.1914ZM325.688 61.2344C324.703 61.2344 323.82 61.0781 323.039 60.7656C322.258 60.4453 321.594 60.0039 321.047 59.4414C320.508 58.8789 320.094 58.2266 319.805 57.4844C319.516 56.7344 319.371 55.9375 319.371 55.0938V54.625C319.371 53.6641 319.508 52.7852 319.781 51.9883C320.055 51.1914 320.445 50.5 320.953 49.9141C321.469 49.3281 322.094 48.8789 322.828 48.5664C323.562 48.2461 324.391 48.0859 325.312 48.0859C326.211 48.0859 327.008 48.2344 327.703 48.5312C328.398 48.8281 328.98 49.25 329.449 49.7969C329.926 50.3438 330.285 51 330.527 51.7656C330.77 52.5234 330.891 53.3672 330.891 54.2969V55.7031H320.812V53.4531H327.574V53.1953C327.574 52.7266 327.488 52.3086 327.316 51.9414C327.152 51.5664 326.902 51.2695 326.566 51.0508C326.23 50.832 325.801 50.7227 325.277 50.7227C324.832 50.7227 324.449 50.8203 324.129 51.0156C323.809 51.2109 323.547 51.4844 323.344 51.8359C323.148 52.1875 323 52.6016 322.898 53.0781C322.805 53.5469 322.758 54.0625 322.758 54.625V55.0938C322.758 55.6016 322.828 56.0703 322.969 56.5C323.117 56.9297 323.324 57.3008 323.59 57.6133C323.863 57.9258 324.191 58.168 324.574 58.3398C324.965 58.5117 325.406 58.5977 325.898 58.5977C326.508 58.5977 327.074 58.4805 327.598 58.2461C328.129 58.0039 328.586 57.6406 328.969 57.1562L330.609 58.9375C330.344 59.3203 329.98 59.6875 329.52 60.0391C329.066 60.3906 328.52 60.6797 327.879 60.9062C327.238 61.125 326.508 61.2344 325.688 61.2344ZM342.738 43.9375V61H339.234V43.9375H342.738ZM349.125 51.0273V61H345.75V48.3203H348.914L349.125 51.0273ZM348.633 54.2148H347.719C347.719 53.2773 347.84 52.4336 348.082 51.6836C348.324 50.9258 348.664 50.2812 349.102 49.75C349.539 49.2109 350.059 48.8008 350.66 48.5195C351.27 48.2305 351.949 48.0859 352.699 48.0859C353.293 48.0859 353.836 48.1719 354.328 48.3438C354.82 48.5156 355.242 48.7891 355.594 49.1641C355.953 49.5391 356.227 50.0352 356.414 50.6523C356.609 51.2695 356.707 52.0234 356.707 52.9141V61H353.309V52.9023C353.309 52.3398 353.23 51.9023 353.074 51.5898C352.918 51.2773 352.688 51.0586 352.383 50.9336C352.086 50.8008 351.719 50.7344 351.281 50.7344C350.828 50.7344 350.434 50.8242 350.098 51.0039C349.77 51.1836 349.496 51.4336 349.277 51.7539C349.066 52.0664 348.906 52.4336 348.797 52.8555C348.688 53.2773 348.633 53.7305 348.633 54.2148ZM366.129 57.4961C366.129 57.2539 366.059 57.0352 365.918 56.8398C365.777 56.6445 365.516 56.4648 365.133 56.3008C364.758 56.1289 364.215 55.9727 363.504 55.832C362.863 55.6914 362.266 55.5156 361.711 55.3047C361.164 55.0859 360.688 54.8242 360.281 54.5195C359.883 54.2148 359.57 53.8555 359.344 53.4414C359.117 53.0195 359.004 52.5391 359.004 52C359.004 51.4688 359.117 50.9688 359.344 50.5C359.578 50.0312 359.91 49.6172 360.34 49.2578C360.777 48.8906 361.309 48.6055 361.934 48.4023C362.566 48.1914 363.277 48.0859 364.066 48.0859C365.168 48.0859 366.113 48.2617 366.902 48.6133C367.699 48.9648 368.309 49.4492 368.73 50.0664C369.16 50.6758 369.375 51.3711 369.375 52.1523H366C366 51.8242 365.93 51.5312 365.789 51.2734C365.656 51.0078 365.445 50.8008 365.156 50.6523C364.875 50.4961 364.508 50.418 364.055 50.418C363.68 50.418 363.355 50.4844 363.082 50.6172C362.809 50.7422 362.598 50.9141 362.449 51.1328C362.309 51.3438 362.238 51.5781 362.238 51.8359C362.238 52.0312 362.277 52.207 362.355 52.3633C362.441 52.5117 362.578 52.6484 362.766 52.7734C362.953 52.8984 363.195 53.0156 363.492 53.125C363.797 53.2266 364.172 53.3203 364.617 53.4062C365.531 53.5938 366.348 53.8398 367.066 54.1445C367.785 54.4414 368.355 54.8477 368.777 55.3633C369.199 55.8711 369.41 56.5391 369.41 57.3672C369.41 57.9297 369.285 58.4453 369.035 58.9141C368.785 59.3828 368.426 59.793 367.957 60.1445C367.488 60.4883 366.926 60.7578 366.27 60.9531C365.621 61.1406 364.891 61.2344 364.078 61.2344C362.898 61.2344 361.898 61.0234 361.078 60.6016C360.266 60.1797 359.648 59.6445 359.227 58.9961C358.812 58.3398 358.605 57.668 358.605 56.9805H361.805C361.82 57.4414 361.938 57.8125 362.156 58.0938C362.383 58.375 362.668 58.5781 363.012 58.7031C363.363 58.8281 363.742 58.8906 364.148 58.8906C364.586 58.8906 364.949 58.832 365.238 58.7148C365.527 58.5898 365.746 58.4258 365.895 58.2227C366.051 58.0117 366.129 57.7695 366.129 57.4961ZM375.164 48.3203V61H371.777V48.3203H375.164ZM371.566 45.0156C371.566 44.5234 371.738 44.1172 372.082 43.7969C372.426 43.4766 372.887 43.3164 373.465 43.3164C374.035 43.3164 374.492 43.4766 374.836 43.7969C375.188 44.1172 375.363 44.5234 375.363 45.0156C375.363 45.5078 375.188 45.9141 374.836 46.2344C374.492 46.5547 374.035 46.7148 373.465 46.7148C372.887 46.7148 372.426 46.5547 372.082 46.2344C371.738 45.9141 371.566 45.5078 371.566 45.0156ZM385.98 48.3203H389.039V60.5781C389.039 61.7344 388.781 62.7148 388.266 63.5195C387.758 64.332 387.047 64.9453 386.133 65.3594C385.219 65.7812 384.156 65.9922 382.945 65.9922C382.414 65.9922 381.852 65.9219 381.258 65.7812C380.672 65.6406 380.109 65.4219 379.57 65.125C379.039 64.8281 378.594 64.4531 378.234 64L379.723 62.0078C380.113 62.4609 380.566 62.8125 381.082 63.0625C381.598 63.3203 382.168 63.4492 382.793 63.4492C383.402 63.4492 383.918 63.3359 384.34 63.1094C384.762 62.8906 385.086 62.5664 385.312 62.1367C385.539 61.7148 385.652 61.2031 385.652 60.6016V51.25L385.98 48.3203ZM377.449 54.8125V54.5664C377.449 53.5977 377.566 52.7188 377.801 51.9297C378.043 51.1328 378.383 50.4492 378.82 49.8789C379.266 49.3086 379.805 48.8672 380.438 48.5547C381.07 48.2422 381.785 48.0859 382.582 48.0859C383.426 48.0859 384.133 48.2422 384.703 48.5547C385.273 48.8672 385.742 49.3125 386.109 49.8906C386.477 50.4609 386.762 51.1367 386.965 51.918C387.176 52.6914 387.34 53.5391 387.457 54.4609V55C387.34 55.8828 387.164 56.7031 386.93 57.4609C386.695 58.2188 386.387 58.8828 386.004 59.4531C385.621 60.0156 385.145 60.4531 384.574 60.7656C384.012 61.0781 383.34 61.2344 382.559 61.2344C381.777 61.2344 381.07 61.0742 380.438 60.7539C379.812 60.4336 379.277 59.9844 378.832 59.4062C378.387 58.8281 378.043 58.1484 377.801 57.3672C377.566 56.5859 377.449 55.7344 377.449 54.8125ZM380.824 54.5664V54.8125C380.824 55.3359 380.875 55.8242 380.977 56.2773C381.078 56.7305 381.234 57.1328 381.445 57.4844C381.664 57.8281 381.934 58.0977 382.254 58.293C382.582 58.4805 382.969 58.5742 383.414 58.5742C384.031 58.5742 384.535 58.4453 384.926 58.1875C385.316 57.9219 385.609 57.5586 385.805 57.0977C386 56.6367 386.113 56.1055 386.145 55.5039V53.9688C386.129 53.4766 386.062 53.0352 385.945 52.6445C385.828 52.2461 385.664 51.9062 385.453 51.625C385.242 51.3438 384.969 51.125 384.633 50.9688C384.297 50.8125 383.898 50.7344 383.438 50.7344C382.992 50.7344 382.605 50.8359 382.277 51.0391C381.957 51.2344 381.688 51.5039 381.469 51.8477C381.258 52.1914 381.098 52.5977 380.988 53.0664C380.879 53.5273 380.824 54.0273 380.824 54.5664ZM394.957 43V61H391.582V43H394.957ZM394.477 54.2148H393.551C393.559 53.332 393.676 52.5195 393.902 51.7773C394.129 51.0273 394.453 50.3789 394.875 49.832C395.297 49.2773 395.801 48.8477 396.387 48.543C396.98 48.2383 397.637 48.0859 398.355 48.0859C398.98 48.0859 399.547 48.1758 400.055 48.3555C400.57 48.5273 401.012 48.8086 401.379 49.1992C401.754 49.582 402.043 50.0859 402.246 50.7109C402.449 51.3359 402.551 52.0938 402.551 52.9844V61H399.152V52.9609C399.152 52.3984 399.07 51.957 398.906 51.6367C398.75 51.3086 398.52 51.0781 398.215 50.9453C397.918 50.8047 397.551 50.7344 397.113 50.7344C396.629 50.7344 396.215 50.8242 395.871 51.0039C395.535 51.1836 395.266 51.4336 395.062 51.7539C394.859 52.0664 394.711 52.4336 394.617 52.8555C394.523 53.2773 394.477 53.7305 394.477 54.2148ZM411.328 48.3203V50.7109H403.945V48.3203H411.328ZM405.773 45.1914H409.148V57.1797C409.148 57.5469 409.195 57.8281 409.289 58.0234C409.391 58.2188 409.539 58.3555 409.734 58.4336C409.93 58.5039 410.176 58.5391 410.473 58.5391C410.684 58.5391 410.871 58.5312 411.035 58.5156C411.207 58.4922 411.352 58.4688 411.469 58.4453L411.48 60.9297C411.191 61.0234 410.879 61.0977 410.543 61.1523C410.207 61.207 409.836 61.2344 409.43 61.2344C408.688 61.2344 408.039 61.1133 407.484 60.8711C406.938 60.6211 406.516 60.2227 406.219 59.6758C405.922 59.1289 405.773 58.4102 405.773 57.5195V45.1914ZM420.105 57.4961C420.105 57.2539 420.035 57.0352 419.895 56.8398C419.754 56.6445 419.492 56.4648 419.109 56.3008C418.734 56.1289 418.191 55.9727 417.48 55.832C416.84 55.6914 416.242 55.5156 415.688 55.3047C415.141 55.0859 414.664 54.8242 414.258 54.5195C413.859 54.2148 413.547 53.8555 413.32 53.4414C413.094 53.0195 412.98 52.5391 412.98 52C412.98 51.4688 413.094 50.9688 413.32 50.5C413.555 50.0312 413.887 49.6172 414.316 49.2578C414.754 48.8906 415.285 48.6055 415.91 48.4023C416.543 48.1914 417.254 48.0859 418.043 48.0859C419.145 48.0859 420.09 48.2617 420.879 48.6133C421.676 48.9648 422.285 49.4492 422.707 50.0664C423.137 50.6758 423.352 51.3711 423.352 52.1523H419.977C419.977 51.8242 419.906 51.5312 419.766 51.2734C419.633 51.0078 419.422 50.8008 419.133 50.6523C418.852 50.4961 418.484 50.418 418.031 50.418C417.656 50.418 417.332 50.4844 417.059 50.6172C416.785 50.7422 416.574 50.9141 416.426 51.1328C416.285 51.3438 416.215 51.5781 416.215 51.8359C416.215 52.0312 416.254 52.207 416.332 52.3633C416.418 52.5117 416.555 52.6484 416.742 52.7734C416.93 52.8984 417.172 53.0156 417.469 53.125C417.773 53.2266 418.148 53.3203 418.594 53.4062C419.508 53.5938 420.324 53.8398 421.043 54.1445C421.762 54.4414 422.332 54.8477 422.754 55.3633C423.176 55.8711 423.387 56.5391 423.387 57.3672C423.387 57.9297 423.262 58.4453 423.012 58.9141C422.762 59.3828 422.402 59.793 421.934 60.1445C421.465 60.4883 420.902 60.7578 420.246 60.9531C419.598 61.1406 418.867 61.2344 418.055 61.2344C416.875 61.2344 415.875 61.0234 415.055 60.6016C414.242 60.1797 413.625 59.6445 413.203 58.9961C412.789 58.3398 412.582 57.668 412.582 56.9805H415.781C415.797 57.4414 415.914 57.8125 416.133 58.0938C416.359 58.375 416.645 58.5781 416.988 58.7031C417.34 58.8281 417.719 58.8906 418.125 58.8906C418.562 58.8906 418.926 58.832 419.215 58.7148C419.504 58.5898 419.723 58.4258 419.871 58.2227C420.027 58.0117 420.105 57.7695 420.105 57.4961Z" fill="#888888"/>
<path d="M109.219 107.422H100.734V101.07H109.219C110.375 101.07 111.312 100.875 112.031 100.484C112.75 100.094 113.273 99.5547 113.602 98.8672C113.945 98.1641 114.117 97.375 114.117 96.5C114.117 95.5625 113.945 94.6953 113.602 93.8984C113.273 93.1016 112.75 92.4609 112.031 91.9766C111.312 91.4766 110.375 91.2266 109.219 91.2266H103.828V119H95.6016V84.875H109.219C111.953 84.875 114.305 85.375 116.273 86.375C118.258 87.375 119.781 88.75 120.844 90.5C121.906 92.2344 122.438 94.2188 122.438 96.4531C122.438 98.6562 121.906 100.578 120.844 102.219C119.781 103.859 118.258 105.141 116.273 106.062C114.305 106.969 111.953 107.422 109.219 107.422ZM134.461 99.9219V119H126.562V93.6406H133.945L134.461 99.9219ZM141.961 93.4531L141.82 100.789C141.508 100.758 141.086 100.719 140.555 100.672C140.023 100.625 139.578 100.602 139.219 100.602C138.297 100.602 137.5 100.711 136.828 100.93C136.172 101.133 135.625 101.445 135.188 101.867C134.766 102.273 134.453 102.789 134.25 103.414C134.062 104.039 133.977 104.766 133.992 105.594L132.562 104.656C132.562 102.953 132.727 101.406 133.055 100.016C133.398 98.6094 133.883 97.3984 134.508 96.3828C135.133 95.3516 135.891 94.5625 136.781 94.0156C137.672 93.4531 138.672 93.1719 139.781 93.1719C140.172 93.1719 140.555 93.1953 140.93 93.2422C141.32 93.2891 141.664 93.3594 141.961 93.4531ZM142.852 106.578V106.086C142.852 104.227 143.117 102.516 143.648 100.953C144.18 99.375 144.961 98.0078 145.992 96.8516C147.023 95.6953 148.297 94.7969 149.812 94.1562C151.328 93.5 153.078 93.1719 155.062 93.1719C157.062 93.1719 158.82 93.5 160.336 94.1562C161.867 94.7969 163.148 95.6953 164.18 96.8516C165.211 98.0078 165.992 99.375 166.523 100.953C167.055 102.516 167.32 104.227 167.32 106.086V106.578C167.32 108.422 167.055 110.133 166.523 111.711C165.992 113.273 165.211 114.641 164.18 115.812C163.148 116.969 161.875 117.867 160.359 118.508C158.844 119.148 157.094 119.469 155.109 119.469C153.125 119.469 151.367 119.148 149.836 118.508C148.305 117.867 147.023 116.969 145.992 115.812C144.961 114.641 144.18 113.273 143.648 111.711C143.117 110.133 142.852 108.422 142.852 106.578ZM150.75 106.086V106.578C150.75 107.531 150.82 108.422 150.961 109.25C151.102 110.078 151.336 110.805 151.664 111.43C151.992 112.039 152.438 112.516 153 112.859C153.562 113.203 154.266 113.375 155.109 113.375C155.938 113.375 156.625 113.203 157.172 112.859C157.734 112.516 158.18 112.039 158.508 111.43C158.836 110.805 159.07 110.078 159.211 109.25C159.352 108.422 159.422 107.531 159.422 106.578V106.086C159.422 105.164 159.352 104.297 159.211 103.484C159.07 102.656 158.836 101.93 158.508 101.305C158.18 100.664 157.734 100.164 157.172 99.8047C156.609 99.4453 155.906 99.2656 155.062 99.2656C154.234 99.2656 153.539 99.4453 152.977 99.8047C152.43 100.164 151.992 100.664 151.664 101.305C151.336 101.93 151.102 102.656 150.961 103.484C150.82 104.297 150.75 105.164 150.75 106.086ZM184.195 93.6406V99.125H168.914V93.6406H184.195ZM172.125 87.3359H180.023V110.727C180.023 111.398 180.102 111.922 180.258 112.297C180.414 112.656 180.68 112.914 181.055 113.07C181.445 113.211 181.961 113.281 182.602 113.281C183.055 113.281 183.43 113.273 183.727 113.258C184.023 113.227 184.305 113.188 184.57 113.141V118.789C183.898 119.008 183.195 119.172 182.461 119.281C181.727 119.406 180.945 119.469 180.117 119.469C178.43 119.469 176.984 119.203 175.781 118.672C174.594 118.141 173.688 117.305 173.062 116.164C172.438 115.023 172.125 113.539 172.125 111.711V87.3359ZM185.648 106.578V106.086C185.648 104.227 185.914 102.516 186.445 100.953C186.977 99.375 187.758 98.0078 188.789 96.8516C189.82 95.6953 191.094 94.7969 192.609 94.1562C194.125 93.5 195.875 93.1719 197.859 93.1719C199.859 93.1719 201.617 93.5 203.133 94.1562C204.664 94.7969 205.945 95.6953 206.977 96.8516C208.008 98.0078 208.789 99.375 209.32 100.953C209.852 102.516 210.117 104.227 210.117 106.086V106.578C210.117 108.422 209.852 110.133 209.32 111.711C208.789 113.273 208.008 114.641 206.977 115.812C205.945 116.969 204.672 117.867 203.156 118.508C201.641 119.148 199.891 119.469 197.906 119.469C195.922 119.469 194.164 119.148 192.633 118.508C191.102 117.867 189.82 116.969 188.789 115.812C187.758 114.641 186.977 113.273 186.445 111.711C185.914 110.133 185.648 108.422 185.648 106.578ZM193.547 106.086V106.578C193.547 107.531 193.617 108.422 193.758 109.25C193.898 110.078 194.133 110.805 194.461 111.43C194.789 112.039 195.234 112.516 195.797 112.859C196.359 113.203 197.062 113.375 197.906 113.375C198.734 113.375 199.422 113.203 199.969 112.859C200.531 112.516 200.977 112.039 201.305 111.43C201.633 110.805 201.867 110.078 202.008 109.25C202.148 108.422 202.219 107.531 202.219 106.578V106.086C202.219 105.164 202.148 104.297 202.008 103.484C201.867 102.656 201.633 101.93 201.305 101.305C200.977 100.664 200.531 100.164 199.969 99.8047C199.406 99.4453 198.703 99.2656 197.859 99.2656C197.031 99.2656 196.336 99.4453 195.773 99.8047C195.227 100.164 194.789 100.664 194.461 101.305C194.133 101.93 193.898 102.656 193.758 103.484C193.617 104.297 193.547 105.164 193.547 106.086ZM226.992 93.6406V99.125H211.711V93.6406H226.992ZM214.922 87.3359H222.82V110.727C222.82 111.398 222.898 111.922 223.055 112.297C223.211 112.656 223.477 112.914 223.852 113.07C224.242 113.211 224.758 113.281 225.398 113.281C225.852 113.281 226.227 113.273 226.523 113.258C226.82 113.227 227.102 113.188 227.367 113.141V118.789C226.695 119.008 225.992 119.172 225.258 119.281C224.523 119.406 223.742 119.469 222.914 119.469C221.227 119.469 219.781 119.203 218.578 118.672C217.391 118.141 216.484 117.305 215.859 116.164C215.234 115.023 214.922 113.539 214.922 111.711V87.3359ZM237.914 116.023L244.477 93.6406H252.961L242.766 122.773C242.547 123.414 242.258 124.102 241.898 124.836C241.539 125.586 241.047 126.297 240.422 126.969C239.797 127.641 238.992 128.188 238.008 128.609C237.039 129.031 235.836 129.242 234.398 129.242C233.633 129.242 233.07 129.203 232.711 129.125C232.367 129.062 231.836 128.945 231.117 128.773V123.125C231.32 123.125 231.492 123.125 231.633 123.125C231.789 123.125 231.961 123.125 232.148 123.125C232.992 123.125 233.664 123.039 234.164 122.867C234.68 122.695 235.07 122.445 235.336 122.117C235.617 121.789 235.836 121.391 235.992 120.922L237.914 116.023ZM236.25 93.6406L241.242 111.383L242.109 119.75H236.812L227.789 93.6406H236.25ZM262.992 98.5156V128.75H255.094V93.6406H262.453L262.992 98.5156ZM278.555 106.016V106.508C278.555 108.352 278.344 110.062 277.922 111.641C277.5 113.219 276.875 114.594 276.047 115.766C275.219 116.938 274.188 117.852 272.953 118.508C271.734 119.148 270.32 119.469 268.711 119.469C267.195 119.469 265.891 119.133 264.797 118.461C263.703 117.789 262.789 116.859 262.055 115.672C261.32 114.484 260.727 113.125 260.273 111.594C259.82 110.062 259.461 108.445 259.195 106.742V106.109C259.461 104.281 259.82 102.586 260.273 101.023C260.727 99.4453 261.32 98.0703 262.055 96.8984C262.789 95.7266 263.695 94.8125 264.773 94.1562C265.867 93.5 267.172 93.1719 268.688 93.1719C270.297 93.1719 271.711 93.4766 272.93 94.0859C274.164 94.6953 275.195 95.5703 276.023 96.7109C276.867 97.8359 277.5 99.1875 277.922 100.766C278.344 102.344 278.555 104.094 278.555 106.016ZM270.656 106.508V106.016C270.656 105.031 270.586 104.133 270.445 103.32C270.305 102.492 270.078 101.773 269.766 101.164C269.469 100.555 269.07 100.086 268.57 99.7578C268.07 99.4297 267.453 99.2656 266.719 99.2656C265.875 99.2656 265.164 99.3984 264.586 99.6641C264.023 99.9141 263.57 100.305 263.227 100.836C262.898 101.352 262.664 102 262.523 102.781C262.398 103.547 262.344 104.445 262.359 105.477V107.398C262.328 108.586 262.445 109.633 262.711 110.539C262.977 111.43 263.438 112.125 264.094 112.625C264.75 113.125 265.641 113.375 266.766 113.375C267.516 113.375 268.141 113.203 268.641 112.859C269.141 112.5 269.539 112.008 269.836 111.383C270.133 110.742 270.344 110.008 270.469 109.18C270.594 108.352 270.656 107.461 270.656 106.508ZM290.414 93.6406V119H282.492V93.6406H290.414ZM282.023 87.1016C282.023 85.9766 282.43 85.0547 283.242 84.3359C284.055 83.6172 285.109 83.2578 286.406 83.2578C287.703 83.2578 288.758 83.6172 289.57 84.3359C290.383 85.0547 290.789 85.9766 290.789 87.1016C290.789 88.2266 290.383 89.1484 289.57 89.8672C288.758 90.5859 287.703 90.9453 286.406 90.9453C285.109 90.9453 284.055 90.5859 283.242 89.8672C282.43 89.1484 282.023 88.2266 282.023 87.1016ZM303.047 99.0547V119H295.148V93.6406H302.555L303.047 99.0547ZM302.109 105.453L300.258 105.5C300.258 103.562 300.492 101.836 300.961 100.32C301.43 98.7891 302.094 97.4922 302.953 96.4297C303.812 95.3672 304.836 94.5625 306.023 94.0156C307.227 93.4531 308.562 93.1719 310.031 93.1719C311.203 93.1719 312.273 93.3438 313.242 93.6875C314.227 94.0312 315.07 94.5859 315.773 95.3516C316.492 96.1172 317.039 97.1328 317.414 98.3984C317.805 99.6484 318 101.195 318 103.039V119H310.055V103.016C310.055 102 309.914 101.227 309.633 100.695C309.352 100.148 308.945 99.7734 308.414 99.5703C307.883 99.3672 307.234 99.2656 306.469 99.2656C305.656 99.2656 304.969 99.4219 304.406 99.7344C303.844 100.047 303.391 100.484 303.047 101.047C302.719 101.594 302.477 102.242 302.32 102.992C302.18 103.742 302.109 104.562 302.109 105.453ZM338.32 93.6406H345.492V118.016C345.492 120.359 344.953 122.344 343.875 123.969C342.797 125.609 341.289 126.852 339.352 127.695C337.43 128.555 335.18 128.984 332.602 128.984C331.461 128.984 330.297 128.836 329.109 128.539C327.922 128.258 326.812 127.836 325.781 127.273C324.75 126.711 323.883 126.016 323.18 125.188L326.484 120.547C327.125 121.266 327.93 121.875 328.898 122.375C329.867 122.891 331.008 123.148 332.32 123.148C333.461 123.148 334.414 122.945 335.18 122.539C335.961 122.133 336.555 121.539 336.961 120.758C337.367 119.992 337.57 119.062 337.57 117.969V99.6406L338.32 93.6406ZM321.469 106.625V106.133C321.469 104.211 321.703 102.461 322.172 100.883C322.656 99.2891 323.344 97.9219 324.234 96.7812C325.141 95.625 326.234 94.7344 327.516 94.1094C328.797 93.4844 330.242 93.1719 331.852 93.1719C333.586 93.1719 335.008 93.5078 336.117 94.1797C337.242 94.8359 338.141 95.7578 338.812 96.9453C339.5 98.1328 340.031 99.5234 340.406 101.117C340.797 102.695 341.125 104.398 341.391 106.227V106.812C341.125 108.531 340.758 110.156 340.289 111.688C339.836 113.203 339.242 114.547 338.508 115.719C337.773 116.891 336.852 117.812 335.742 118.484C334.648 119.141 333.336 119.469 331.805 119.469C330.211 119.469 328.773 119.148 327.492 118.508C326.227 117.867 325.141 116.969 324.234 115.812C323.344 114.656 322.656 113.297 322.172 111.734C321.703 110.172 321.469 108.469 321.469 106.625ZM329.367 106.133V106.625C329.367 107.578 329.453 108.461 329.625 109.273C329.812 110.086 330.094 110.805 330.469 111.43C330.844 112.039 331.305 112.516 331.852 112.859C332.414 113.203 333.07 113.375 333.82 113.375C334.961 113.375 335.883 113.133 336.586 112.648C337.289 112.164 337.797 111.477 338.109 110.586C338.422 109.695 338.555 108.648 338.508 107.445V105.594C338.539 104.562 338.469 103.656 338.297 102.875C338.125 102.078 337.852 101.414 337.477 100.883C337.117 100.352 336.633 99.9531 336.023 99.6875C335.43 99.4062 334.711 99.2656 333.867 99.2656C333.133 99.2656 332.484 99.4375 331.922 99.7812C331.359 100.125 330.891 100.609 330.516 101.234C330.141 101.844 329.852 102.57 329.648 103.414C329.461 104.242 329.367 105.148 329.367 106.133Z" fill="black"/>
<path d="M1134 0H1348C1356.28 0 1363 6.71573 1363 15V148C1363 156.284 1356.28 163 1348 163H1134V0Z" fill="#8DB78F"/>
<path fill-rule="evenodd" clip-rule="evenodd" d="M1202.75 46.5018C1202.75 45.3973 1203.65 44.5018 1204.75 44.5018H1292.25C1293.35 44.5018 1294.25 45.3973 1294.25 46.5018V116.498C1294.25 117.603 1293.35 118.498 1292.25 118.498H1204.75C1203.65 118.498 1202.75 117.603 1202.75 116.498V46.5018ZM1206.75 48.5018V52.9963H1290.25V48.5018H1206.75ZM1290.25 56.9963H1235.19V114.498H1290.25V56.9963ZM1231.19 114.498V56.9963H1206.75V114.498H1231.19Z" fill="white"/>
<path fill-rule="evenodd" clip-rule="evenodd" d="M1209.72 62.3022C1209.72 61.1976 1210.62 60.3022 1211.72 60.3022H1225.72C1226.83 60.3022 1227.72 61.1976 1227.72 62.3022V81.6974C1227.72 82.802 1226.83 83.6974 1225.72 83.6974H1211.72C1210.62 83.6974 1209.72 82.802 1209.72 81.6974V62.3022ZM1213.72 64.3022V79.6974H1223.72V64.3022H1213.72ZM1239.33 63.1982C1239.33 62.0936 1240.22 61.1982 1241.33 61.1982H1284.25C1285.36 61.1982 1286.25 62.0936 1286.25 63.1982V109.407C1286.25 110.511 1285.36 111.407 1284.25 111.407H1241.33C1240.22 111.407 1239.33 110.511 1239.33 109.407V63.1982ZM1243.33 65.1982V107.407H1282.25V65.1982H1243.33ZM1209.56 93.4381C1209.56 92.3336 1210.46 91.4381 1211.56 91.4381H1220.48C1221.59 91.4381 1222.48 92.3336 1222.48 93.4381C1222.48 94.5427 1221.59 95.4381 1220.48 95.4381H1211.56C1210.46 95.4381 1209.56 94.5427 1209.56 93.4381ZM1209.56 100.438C1209.56 99.3335 1210.46 98.4381 1211.56 98.4381H1226.1C1227.21 98.4381 1228.1 99.3335 1228.1 100.438C1228.1 101.543 1227.21 102.438 1226.1 102.438H1211.56C1210.46 102.438 1209.56 101.543 1209.56 100.438ZM1209.56 107.438C1209.56 106.334 1210.46 105.438 1211.56 105.438H1220.48C1221.59 105.438 1222.48 106.334 1222.48 107.438C1222.48 108.543 1221.59 109.438 1220.48 109.438H1211.56C1210.46 109.438 1209.56 108.543 1209.56 107.438Z" fill="white"/>
</svg>
