<svg width="1363" height="297" viewBox="0 0 1363 297" fill="none" xmlns="http://www.w3.org/2000/svg">
<path d="M0 15C0 6.71573 6.71573 0 15 0H37V297H15C6.71573 297 0 290.284 0 282V15Z" fill="#8DB78F"/>
<path d="M37 0H1066V297H37V0Z" fill="#F0F0F0"/>
<path d="M97.6934 49.4062H102.158L108.732 68.1973L115.307 49.4062H119.771L110.525 75H106.939L97.6934 49.4062ZM95.2852 49.4062H99.7324L100.541 67.7227V75H95.2852V49.4062ZM117.732 49.4062H122.197V75H116.924V67.7227L117.732 49.4062ZM125.695 65.6836V65.3145C125.695 63.9199 125.895 62.6367 126.293 61.4648C126.691 60.2812 127.271 59.2559 128.033 58.3887C128.795 57.5215 129.732 56.8477 130.846 56.3672C131.959 55.875 133.236 55.6289 134.678 55.6289C136.119 55.6289 137.402 55.875 138.527 56.3672C139.652 56.8477 140.596 57.5215 141.357 58.3887C142.131 59.2559 142.717 60.2812 143.115 61.4648C143.514 62.6367 143.713 63.9199 143.713 65.3145V65.6836C143.713 67.0664 143.514 68.3496 143.115 69.5332C142.717 70.7051 142.131 71.7305 141.357 72.6094C140.596 73.4766 139.658 74.1504 138.545 74.6309C137.432 75.1113 136.154 75.3516 134.713 75.3516C133.271 75.3516 131.988 75.1113 130.863 74.6309C129.75 74.1504 128.807 73.4766 128.033 72.6094C127.271 71.7305 126.691 70.7051 126.293 69.5332C125.895 68.3496 125.695 67.0664 125.695 65.6836ZM130.758 65.3145V65.6836C130.758 66.4805 130.828 67.2246 130.969 67.916C131.109 68.6074 131.332 69.2168 131.637 69.7441C131.953 70.2598 132.363 70.6641 132.867 70.957C133.371 71.25 133.986 71.3965 134.713 71.3965C135.416 71.3965 136.02 71.25 136.523 70.957C137.027 70.6641 137.432 70.2598 137.736 69.7441C138.041 69.2168 138.264 68.6074 138.404 67.916C138.557 67.2246 138.633 66.4805 138.633 65.6836V65.3145C138.633 64.541 138.557 63.8145 138.404 63.1348C138.264 62.4434 138.035 61.834 137.719 61.3066C137.414 60.7676 137.01 60.3457 136.506 60.041C136.002 59.7363 135.393 59.584 134.678 59.584C133.963 59.584 133.354 59.7363 132.85 60.041C132.357 60.3457 131.953 60.7676 131.637 61.3066C131.332 61.834 131.109 62.4434 130.969 63.1348C130.828 63.8145 130.758 64.541 130.758 65.3145ZM151.764 48V75H146.701V48H151.764ZM151.043 64.8223H149.654C149.666 63.498 149.842 62.2793 150.182 61.166C150.521 60.041 151.008 59.0684 151.641 58.248C152.273 57.416 153.029 56.7715 153.908 56.3145C154.799 55.8574 155.783 55.6289 156.861 55.6289C157.799 55.6289 158.648 55.7637 159.41 56.0332C160.184 56.291 160.846 56.7129 161.396 57.2988C161.959 57.873 162.393 58.6289 162.697 59.5664C163.002 60.5039 163.154 61.6406 163.154 62.9766V75H158.057V62.9414C158.057 62.0977 157.934 61.4355 157.688 60.9551C157.453 60.4629 157.107 60.1172 156.65 59.918C156.205 59.707 155.654 59.6016 154.998 59.6016C154.271 59.6016 153.65 59.7363 153.135 60.0059C152.631 60.2754 152.227 60.6504 151.922 61.1309C151.617 61.5996 151.395 62.1504 151.254 62.7832C151.113 63.416 151.043 64.0957 151.043 64.8223ZM177.27 70.7109V62.2383C177.27 61.6289 177.17 61.1074 176.971 60.6738C176.771 60.2285 176.461 59.8828 176.039 59.6367C175.629 59.3906 175.096 59.2676 174.439 59.2676C173.877 59.2676 173.391 59.3672 172.98 59.5664C172.57 59.7539 172.254 60.0293 172.031 60.3926C171.809 60.7441 171.697 61.1602 171.697 61.6406H166.635C166.635 60.832 166.822 60.0645 167.197 59.3379C167.572 58.6113 168.117 57.9727 168.832 57.4219C169.547 56.8594 170.396 56.4199 171.381 56.1035C172.377 55.7871 173.49 55.6289 174.721 55.6289C176.197 55.6289 177.51 55.875 178.658 56.3672C179.807 56.8594 180.709 57.5977 181.365 58.582C182.033 59.5664 182.367 60.7969 182.367 62.2734V70.4121C182.367 71.4551 182.432 72.3105 182.561 72.9785C182.689 73.6348 182.877 74.209 183.123 74.7012V75H178.008C177.762 74.4844 177.574 73.8398 177.445 73.0664C177.328 72.2812 177.27 71.4961 177.27 70.7109ZM177.938 63.416L177.973 66.2812H175.143C174.475 66.2812 173.895 66.3574 173.402 66.5098C172.91 66.6621 172.506 66.8789 172.189 67.1602C171.873 67.4297 171.639 67.7461 171.486 68.1094C171.346 68.4727 171.275 68.8711 171.275 69.3047C171.275 69.7383 171.375 70.1309 171.574 70.4824C171.773 70.8223 172.061 71.0918 172.436 71.291C172.811 71.4785 173.25 71.5723 173.754 71.5723C174.516 71.5723 175.178 71.4199 175.74 71.1152C176.303 70.8105 176.736 70.4355 177.041 69.9902C177.357 69.5449 177.521 69.123 177.533 68.7246L178.869 70.8691C178.682 71.3496 178.424 71.8477 178.096 72.3633C177.779 72.8789 177.375 73.3652 176.883 73.8223C176.391 74.2676 175.799 74.6367 175.107 74.9297C174.416 75.2109 173.596 75.3516 172.646 75.3516C171.439 75.3516 170.344 75.1113 169.359 74.6309C168.387 74.1387 167.613 73.4648 167.039 72.6094C166.477 71.7422 166.195 70.7578 166.195 69.6562C166.195 68.6602 166.383 67.7754 166.758 67.002C167.133 66.2285 167.684 65.5781 168.41 65.0508C169.148 64.5117 170.068 64.1074 171.17 63.8379C172.271 63.5566 173.549 63.416 175.002 63.416H177.938ZM191.332 59.918V75H186.252V55.9805H191.016L191.332 59.918ZM190.629 64.8223H189.223C189.223 63.498 189.381 62.2793 189.697 61.166C190.025 60.041 190.5 59.0684 191.121 58.248C191.754 57.416 192.533 56.7715 193.459 56.3145C194.385 55.8574 195.457 55.6289 196.676 55.6289C197.52 55.6289 198.293 55.7578 198.996 56.0156C199.699 56.2617 200.303 56.6543 200.807 57.1934C201.322 57.7207 201.721 58.4121 202.002 59.2676C202.283 60.1113 202.424 61.125 202.424 62.3086V75H197.361V62.8711C197.361 62.0039 197.244 61.3359 197.01 60.8672C196.775 60.3984 196.441 60.0703 196.008 59.8828C195.586 59.6953 195.076 59.6016 194.479 59.6016C193.822 59.6016 193.248 59.7363 192.756 60.0059C192.275 60.2754 191.877 60.6504 191.561 61.1309C191.244 61.5996 191.01 62.1504 190.857 62.7832C190.705 63.416 190.629 64.0957 190.629 64.8223ZM201.949 64.2422L200.139 64.4707C200.139 63.2285 200.291 62.0742 200.596 61.0078C200.912 59.9414 201.375 59.0039 201.984 58.1953C202.605 57.3867 203.373 56.7598 204.287 56.3145C205.201 55.8574 206.256 55.6289 207.451 55.6289C208.365 55.6289 209.197 55.7637 209.947 56.0332C210.697 56.291 211.336 56.707 211.863 57.2812C212.402 57.8438 212.812 58.582 213.094 59.4961C213.387 60.4102 213.533 61.5293 213.533 62.8535V75H208.453V62.8535C208.453 61.9746 208.336 61.3066 208.102 60.8496C207.879 60.3809 207.551 60.0586 207.117 59.8828C206.695 59.6953 206.191 59.6016 205.605 59.6016C204.996 59.6016 204.463 59.7246 204.006 59.9707C203.549 60.2051 203.168 60.5332 202.863 60.9551C202.559 61.377 202.33 61.8691 202.178 62.4316C202.025 62.9824 201.949 63.5859 201.949 64.2422ZM222.516 59.918V75H217.436V55.9805H222.199L222.516 59.918ZM221.812 64.8223H220.406C220.406 63.498 220.564 62.2793 220.881 61.166C221.209 60.041 221.684 59.0684 222.305 58.248C222.938 57.416 223.717 56.7715 224.643 56.3145C225.568 55.8574 226.641 55.6289 227.859 55.6289C228.703 55.6289 229.477 55.7578 230.18 56.0156C230.883 56.2617 231.486 56.6543 231.99 57.1934C232.506 57.7207 232.904 58.4121 233.186 59.2676C233.467 60.1113 233.607 61.125 233.607 62.3086V75H228.545V62.8711C228.545 62.0039 228.428 61.3359 228.193 60.8672C227.959 60.3984 227.625 60.0703 227.191 59.8828C226.77 59.6953 226.26 59.6016 225.662 59.6016C225.006 59.6016 224.432 59.7363 223.939 60.0059C223.459 60.2754 223.061 60.6504 222.744 61.1309C222.428 61.5996 222.193 62.1504 222.041 62.7832C221.889 63.416 221.812 64.0957 221.812 64.8223ZM233.133 64.2422L231.322 64.4707C231.322 63.2285 231.475 62.0742 231.779 61.0078C232.096 59.9414 232.559 59.0039 233.168 58.1953C233.789 57.3867 234.557 56.7598 235.471 56.3145C236.385 55.8574 237.439 55.6289 238.635 55.6289C239.549 55.6289 240.381 55.7637 241.131 56.0332C241.881 56.291 242.52 56.707 243.047 57.2812C243.586 57.8438 243.996 58.582 244.277 59.4961C244.57 60.4102 244.717 61.5293 244.717 62.8535V75H239.637V62.8535C239.637 61.9746 239.52 61.3066 239.285 60.8496C239.062 60.3809 238.734 60.0586 238.301 59.8828C237.879 59.6953 237.375 59.6016 236.789 59.6016C236.18 59.6016 235.646 59.7246 235.189 59.9707C234.732 60.2051 234.352 60.5332 234.047 60.9551C233.742 61.377 233.514 61.8691 233.361 62.4316C233.209 62.9824 233.133 63.5859 233.133 64.2422ZM258.902 70.7109V62.2383C258.902 61.6289 258.803 61.1074 258.604 60.6738C258.404 60.2285 258.094 59.8828 257.672 59.6367C257.262 59.3906 256.729 59.2676 256.072 59.2676C255.51 59.2676 255.023 59.3672 254.613 59.5664C254.203 59.7539 253.887 60.0293 253.664 60.3926C253.441 60.7441 253.33 61.1602 253.33 61.6406H248.268C248.268 60.832 248.455 60.0645 248.83 59.3379C249.205 58.6113 249.75 57.9727 250.465 57.4219C251.18 56.8594 252.029 56.4199 253.014 56.1035C254.01 55.7871 255.123 55.6289 256.354 55.6289C257.83 55.6289 259.143 55.875 260.291 56.3672C261.439 56.8594 262.342 57.5977 262.998 58.582C263.666 59.5664 264 60.7969 264 62.2734V70.4121C264 71.4551 264.064 72.3105 264.193 72.9785C264.322 73.6348 264.51 74.209 264.756 74.7012V75H259.641C259.395 74.4844 259.207 73.8398 259.078 73.0664C258.961 72.2812 258.902 71.4961 258.902 70.7109ZM259.57 63.416L259.605 66.2812H256.775C256.107 66.2812 255.527 66.3574 255.035 66.5098C254.543 66.6621 254.139 66.8789 253.822 67.1602C253.506 67.4297 253.271 67.7461 253.119 68.1094C252.979 68.4727 252.908 68.8711 252.908 69.3047C252.908 69.7383 253.008 70.1309 253.207 70.4824C253.406 70.8223 253.693 71.0918 254.068 71.291C254.443 71.4785 254.883 71.5723 255.387 71.5723C256.148 71.5723 256.811 71.4199 257.373 71.1152C257.936 70.8105 258.369 70.4355 258.674 69.9902C258.99 69.5449 259.154 69.123 259.166 68.7246L260.502 70.8691C260.314 71.3496 260.057 71.8477 259.729 72.3633C259.412 72.8789 259.008 73.3652 258.516 73.8223C258.023 74.2676 257.432 74.6367 256.74 74.9297C256.049 75.2109 255.229 75.3516 254.279 75.3516C253.072 75.3516 251.977 75.1113 250.992 74.6309C250.02 74.1387 249.246 73.4648 248.672 72.6094C248.109 71.7422 247.828 70.7578 247.828 69.6562C247.828 68.6602 248.016 67.7754 248.391 67.002C248.766 66.2285 249.316 65.5781 250.043 65.0508C250.781 64.5117 251.701 64.1074 252.803 63.8379C253.904 63.5566 255.182 63.416 256.635 63.416H259.57ZM279.135 70.8516V48H284.232V75H279.645L279.135 70.8516ZM267.111 65.7188V65.3496C267.111 63.8965 267.275 62.5781 267.604 61.3945C267.932 60.1992 268.412 59.1738 269.045 58.3184C269.678 57.4629 270.457 56.8008 271.383 56.332C272.309 55.8633 273.363 55.6289 274.547 55.6289C275.66 55.6289 276.633 55.8633 277.465 56.332C278.309 56.8008 279.023 57.4688 279.609 58.3359C280.207 59.1914 280.688 60.2051 281.051 61.377C281.414 62.5371 281.678 63.8086 281.842 65.1914V66C281.678 67.3242 281.414 68.5547 281.051 69.6914C280.688 70.8281 280.207 71.8242 279.609 72.6797C279.023 73.5234 278.309 74.1797 277.465 74.6484C276.621 75.1172 275.637 75.3516 274.512 75.3516C273.328 75.3516 272.273 75.1113 271.348 74.6309C270.434 74.1504 269.66 73.4766 269.027 72.6094C268.406 71.7422 267.932 70.7227 267.604 69.5508C267.275 68.3789 267.111 67.1016 267.111 65.7188ZM272.174 65.3496V65.7188C272.174 66.5039 272.232 67.2363 272.35 67.916C272.479 68.5957 272.684 69.1992 272.965 69.7266C273.258 70.2422 273.633 70.6465 274.09 70.9395C274.559 71.2207 275.127 71.3613 275.795 71.3613C276.662 71.3613 277.377 71.168 277.939 70.7812C278.502 70.3828 278.93 69.8379 279.223 69.1465C279.527 68.4551 279.703 67.6582 279.75 66.7559V64.4531C279.715 63.7148 279.609 63.0527 279.434 62.4668C279.27 61.8691 279.023 61.3594 278.695 60.9375C278.379 60.5156 277.98 60.1875 277.5 59.9531C277.031 59.7188 276.475 59.6016 275.83 59.6016C275.174 59.6016 274.611 59.7539 274.143 60.0586C273.674 60.3516 273.293 60.7559 273 61.2715C272.719 61.7871 272.508 62.3965 272.367 63.0996C272.238 63.791 272.174 64.541 272.174 65.3496ZM314.537 59.8301V63.9434H301.178V59.8301H314.537ZM302.742 49.4062V75H297.469V49.4062H302.742ZM318.299 49.4062V75H313.043V49.4062H318.299ZM333.82 70.4473V55.9805H338.883V75H334.119L333.82 70.4473ZM334.383 66.5449L335.877 66.5098C335.877 67.7754 335.73 68.9531 335.438 70.043C335.145 71.1211 334.705 72.0586 334.119 72.8555C333.533 73.6406 332.795 74.2559 331.904 74.7012C331.014 75.1348 329.965 75.3516 328.758 75.3516C327.832 75.3516 326.977 75.2227 326.191 74.9648C325.418 74.6953 324.75 74.2793 324.188 73.7168C323.637 73.1426 323.203 72.4102 322.887 71.5195C322.582 70.6172 322.43 69.5332 322.43 68.2676V55.9805H327.492V68.3027C327.492 68.8652 327.557 69.3398 327.686 69.7266C327.826 70.1133 328.02 70.4297 328.266 70.6758C328.512 70.9219 328.799 71.0977 329.127 71.2031C329.467 71.3086 329.842 71.3613 330.252 71.3613C331.295 71.3613 332.115 71.1504 332.713 70.7285C333.322 70.3066 333.75 69.7324 333.996 69.0059C334.254 68.2676 334.383 67.4473 334.383 66.5449ZM353.033 69.7441C353.033 69.3809 352.928 69.0527 352.717 68.7598C352.506 68.4668 352.113 68.1973 351.539 67.9512C350.977 67.6934 350.162 67.459 349.096 67.248C348.135 67.0371 347.238 66.7734 346.406 66.457C345.586 66.1289 344.871 65.7363 344.262 65.2793C343.664 64.8223 343.195 64.2832 342.855 63.6621C342.516 63.0293 342.346 62.3086 342.346 61.5C342.346 60.7031 342.516 59.9531 342.855 59.25C343.207 58.5469 343.705 57.9258 344.35 57.3867C345.006 56.8359 345.803 56.4082 346.74 56.1035C347.689 55.7871 348.756 55.6289 349.939 55.6289C351.592 55.6289 353.01 55.8926 354.193 56.4199C355.389 56.9473 356.303 57.6738 356.936 58.5996C357.58 59.5137 357.902 60.5566 357.902 61.7285H352.84C352.84 61.2363 352.734 60.7969 352.523 60.4102C352.324 60.0117 352.008 59.7012 351.574 59.4785C351.152 59.2441 350.602 59.127 349.922 59.127C349.359 59.127 348.873 59.2266 348.463 59.4258C348.053 59.6133 347.736 59.8711 347.514 60.1992C347.303 60.5156 347.197 60.8672 347.197 61.2539C347.197 61.5469 347.256 61.8105 347.373 62.0449C347.502 62.2676 347.707 62.4727 347.988 62.6602C348.27 62.8477 348.633 63.0234 349.078 63.1875C349.535 63.3398 350.098 63.4805 350.766 63.6094C352.137 63.8906 353.361 64.2598 354.439 64.7168C355.518 65.1621 356.373 65.7715 357.006 66.5449C357.639 67.3066 357.955 68.3086 357.955 69.5508C357.955 70.3945 357.768 71.168 357.393 71.8711C357.018 72.5742 356.479 73.1895 355.775 73.7168C355.072 74.2324 354.229 74.6367 353.244 74.9297C352.271 75.2109 351.176 75.3516 349.957 75.3516C348.188 75.3516 346.688 75.0352 345.457 74.4023C344.238 73.7695 343.312 72.9668 342.68 71.9941C342.059 71.0098 341.748 70.002 341.748 68.9707H346.547C346.57 69.6621 346.746 70.2188 347.074 70.6406C347.414 71.0625 347.842 71.3672 348.357 71.5547C348.885 71.7422 349.453 71.8359 350.062 71.8359C350.719 71.8359 351.264 71.748 351.697 71.5723C352.131 71.3848 352.459 71.1387 352.682 70.834C352.916 70.5176 353.033 70.1543 353.033 69.7441ZM371.525 69.7441C371.525 69.3809 371.42 69.0527 371.209 68.7598C370.998 68.4668 370.605 68.1973 370.031 67.9512C369.469 67.6934 368.654 67.459 367.588 67.248C366.627 67.0371 365.73 66.7734 364.898 66.457C364.078 66.1289 363.363 65.7363 362.754 65.2793C362.156 64.8223 361.688 64.2832 361.348 63.6621C361.008 63.0293 360.838 62.3086 360.838 61.5C360.838 60.7031 361.008 59.9531 361.348 59.25C361.699 58.5469 362.197 57.9258 362.842 57.3867C363.498 56.8359 364.295 56.4082 365.232 56.1035C366.182 55.7871 367.248 55.6289 368.432 55.6289C370.084 55.6289 371.502 55.8926 372.686 56.4199C373.881 56.9473 374.795 57.6738 375.428 58.5996C376.072 59.5137 376.395 60.5566 376.395 61.7285H371.332C371.332 61.2363 371.227 60.7969 371.016 60.4102C370.816 60.0117 370.5 59.7012 370.066 59.4785C369.645 59.2441 369.094 59.127 368.414 59.127C367.852 59.127 367.365 59.2266 366.955 59.4258C366.545 59.6133 366.229 59.8711 366.006 60.1992C365.795 60.5156 365.689 60.8672 365.689 61.2539C365.689 61.5469 365.748 61.8105 365.865 62.0449C365.994 62.2676 366.199 62.4727 366.48 62.6602C366.762 62.8477 367.125 63.0234 367.57 63.1875C368.027 63.3398 368.59 63.4805 369.258 63.6094C370.629 63.8906 371.854 64.2598 372.932 64.7168C374.01 65.1621 374.865 65.7715 375.498 66.5449C376.131 67.3066 376.447 68.3086 376.447 69.5508C376.447 70.3945 376.26 71.168 375.885 71.8711C375.51 72.5742 374.971 73.1895 374.268 73.7168C373.564 74.2324 372.721 74.6367 371.736 74.9297C370.764 75.2109 369.668 75.3516 368.449 75.3516C366.68 75.3516 365.18 75.0352 363.949 74.4023C362.73 73.7695 361.805 72.9668 361.172 71.9941C360.551 71.0098 360.24 70.002 360.24 68.9707H365.039C365.062 69.6621 365.238 70.2188 365.566 70.6406C365.906 71.0625 366.334 71.3672 366.85 71.5547C367.377 71.7422 367.945 71.8359 368.555 71.8359C369.211 71.8359 369.756 71.748 370.189 71.5723C370.623 71.3848 370.951 71.1387 371.174 70.834C371.408 70.5176 371.525 70.1543 371.525 69.7441ZM388.488 75.3516C387.012 75.3516 385.688 75.1172 384.516 74.6484C383.344 74.168 382.348 73.5059 381.527 72.6621C380.719 71.8184 380.098 70.8398 379.664 69.7266C379.23 68.6016 379.014 67.4062 379.014 66.1406V65.4375C379.014 63.9961 379.219 62.6777 379.629 61.4824C380.039 60.2871 380.625 59.25 381.387 58.3711C382.16 57.4922 383.098 56.8184 384.199 56.3496C385.301 55.8691 386.543 55.6289 387.926 55.6289C389.273 55.6289 390.469 55.8516 391.512 56.2969C392.555 56.7422 393.428 57.375 394.131 58.1953C394.846 59.0156 395.385 60 395.748 61.1484C396.111 62.2852 396.293 63.5508 396.293 64.9453V67.0547H381.176V63.6797H391.318V63.293C391.318 62.5898 391.189 61.9629 390.932 61.4121C390.686 60.8496 390.311 60.4043 389.807 60.0762C389.303 59.748 388.658 59.584 387.873 59.584C387.205 59.584 386.631 59.7305 386.15 60.0234C385.67 60.3164 385.277 60.7266 384.973 61.2539C384.68 61.7812 384.457 62.4023 384.305 63.1172C384.164 63.8203 384.094 64.5938 384.094 65.4375V66.1406C384.094 66.9023 384.199 67.6055 384.41 68.25C384.633 68.8945 384.943 69.4512 385.342 69.9199C385.752 70.3887 386.244 70.752 386.818 71.0098C387.404 71.2676 388.066 71.3965 388.805 71.3965C389.719 71.3965 390.568 71.2207 391.354 70.8691C392.15 70.5059 392.836 69.9609 393.41 69.2344L395.871 71.9062C395.473 72.4805 394.928 73.0312 394.236 73.5586C393.557 74.0859 392.736 74.5195 391.775 74.8594C390.814 75.1875 389.719 75.3516 388.488 75.3516ZM404.52 55.9805V75H399.439V55.9805H404.52ZM399.123 51.0234C399.123 50.2852 399.381 49.6758 399.896 49.1953C400.412 48.7148 401.104 48.4746 401.971 48.4746C402.826 48.4746 403.512 48.7148 404.027 49.1953C404.555 49.6758 404.818 50.2852 404.818 51.0234C404.818 51.7617 404.555 52.3711 404.027 52.8516C403.512 53.332 402.826 53.5723 401.971 53.5723C401.104 53.5723 400.412 53.332 399.896 52.8516C399.381 52.3711 399.123 51.7617 399.123 51.0234ZM413.66 60.041V75H408.598V55.9805H413.344L413.66 60.041ZM412.922 64.8223H411.551C411.551 63.416 411.732 62.1504 412.096 61.0254C412.459 59.8887 412.969 58.9219 413.625 58.125C414.281 57.3164 415.061 56.7012 415.963 56.2793C416.877 55.8457 417.896 55.6289 419.021 55.6289C419.912 55.6289 420.727 55.7578 421.465 56.0156C422.203 56.2734 422.836 56.6836 423.363 57.2461C423.902 57.8086 424.312 58.5527 424.594 59.4785C424.887 60.4043 425.033 61.5352 425.033 62.8711V75H419.936V62.8535C419.936 62.0098 419.818 61.3535 419.584 60.8848C419.35 60.416 419.004 60.0879 418.547 59.9004C418.102 59.7012 417.551 59.6016 416.895 59.6016C416.215 59.6016 415.623 59.7363 415.119 60.0059C414.627 60.2754 414.217 60.6504 413.889 61.1309C413.572 61.5996 413.332 62.1504 413.168 62.7832C413.004 63.416 412.922 64.0957 412.922 64.8223ZM434.227 55.9805V75H429.146V55.9805H434.227ZM428.83 51.0234C428.83 50.2852 429.088 49.6758 429.604 49.1953C430.119 48.7148 430.811 48.4746 431.678 48.4746C432.533 48.4746 433.219 48.7148 433.734 49.1953C434.262 49.6758 434.525 50.2852 434.525 51.0234C434.525 51.7617 434.262 52.3711 433.734 52.8516C433.219 53.332 432.533 53.5723 431.678 53.5723C430.811 53.5723 430.119 53.332 429.604 52.8516C429.088 52.3711 428.83 51.7617 428.83 51.0234Z" fill="#888888"/>
<path d="M122.34 132.617V140H102.215V132.617H122.34ZM105.633 100.188V140H96.0352V100.188H105.633ZM140.277 140.547C137.871 140.547 135.72 140.173 133.824 139.426C131.928 138.66 130.324 137.612 129.012 136.281C127.717 134.951 126.724 133.419 126.031 131.688C125.357 129.956 125.02 128.124 125.02 126.191V125.152C125.02 122.983 125.32 120.978 125.922 119.137C126.523 117.277 127.417 115.655 128.602 114.27C129.786 112.884 131.272 111.809 133.059 111.043C134.845 110.259 136.923 109.867 139.293 109.867C141.389 109.867 143.267 110.204 144.926 110.879C146.585 111.553 147.988 112.52 149.137 113.777C150.303 115.035 151.188 116.557 151.789 118.344C152.409 120.13 152.719 122.135 152.719 124.359V128.105H128.547V122.336H143.723V121.625C143.741 120.641 143.568 119.802 143.203 119.109C142.857 118.417 142.346 117.888 141.672 117.523C140.997 117.159 140.177 116.977 139.211 116.977C138.208 116.977 137.379 117.195 136.723 117.633C136.085 118.07 135.583 118.672 135.219 119.438C134.872 120.185 134.626 121.051 134.48 122.035C134.335 123.02 134.262 124.059 134.262 125.152V126.191C134.262 127.285 134.408 128.279 134.699 129.172C135.009 130.065 135.447 130.831 136.012 131.469C136.595 132.089 137.288 132.572 138.09 132.918C138.91 133.264 139.84 133.438 140.879 133.438C142.137 133.438 143.376 133.201 144.598 132.727C145.819 132.253 146.867 131.469 147.742 130.375L151.926 135.352C151.324 136.208 150.467 137.038 149.355 137.84C148.262 138.642 146.949 139.298 145.418 139.809C143.887 140.301 142.173 140.547 140.277 140.547ZM156.547 98H165.762V132.727L164.805 140H156.547V98ZM183.918 124.879V125.453C183.918 127.695 183.69 129.737 183.234 131.578C182.779 133.419 182.077 135.014 181.129 136.363C180.181 137.694 178.987 138.724 177.547 139.453C176.107 140.182 174.402 140.547 172.434 140.547C170.647 140.547 169.116 140.164 167.84 139.398C166.564 138.615 165.497 137.539 164.641 136.172C163.784 134.786 163.091 133.191 162.562 131.387C162.034 129.564 161.615 127.613 161.305 125.535V124.852C161.615 122.792 162.034 120.859 162.562 119.055C163.091 117.232 163.784 115.637 164.641 114.27C165.497 112.884 166.555 111.809 167.812 111.043C169.089 110.259 170.611 109.867 172.379 109.867C174.366 109.867 176.079 110.241 177.52 110.988C178.978 111.736 180.181 112.784 181.129 114.133C182.077 115.482 182.779 117.068 183.234 118.891C183.69 120.714 183.918 122.71 183.918 124.879ZM174.703 125.453V124.879C174.703 123.803 174.639 122.792 174.512 121.844C174.384 120.896 174.156 120.057 173.828 119.328C173.5 118.599 173.035 118.025 172.434 117.605C171.832 117.186 171.048 116.977 170.082 116.977C169.098 116.977 168.268 117.141 167.594 117.469C166.938 117.797 166.409 118.271 166.008 118.891C165.625 119.492 165.352 120.24 165.188 121.133C165.023 122.008 164.951 123.001 164.969 124.113V126.273C164.932 127.786 165.069 129.081 165.379 130.156C165.689 131.232 166.227 132.052 166.992 132.617C167.758 133.182 168.806 133.465 170.137 133.465C171.121 133.465 171.914 133.273 172.516 132.891C173.135 132.508 173.6 131.961 173.91 131.25C174.22 130.539 174.43 129.691 174.539 128.707C174.648 127.723 174.703 126.638 174.703 125.453ZM203.387 132.562V120.367C203.387 119.529 203.268 118.809 203.031 118.207C202.794 117.605 202.421 117.141 201.91 116.812C201.4 116.466 200.716 116.293 199.859 116.293C199.167 116.293 198.574 116.411 198.082 116.648C197.59 116.885 197.216 117.241 196.961 117.715C196.706 118.189 196.578 118.79 196.578 119.52H187.363C187.363 118.152 187.664 116.885 188.266 115.719C188.885 114.534 189.76 113.504 190.891 112.629C192.039 111.754 193.406 111.079 194.992 110.605C196.596 110.113 198.383 109.867 200.352 109.867C202.703 109.867 204.799 110.259 206.641 111.043C208.5 111.827 209.967 113.003 211.043 114.57C212.118 116.12 212.656 118.07 212.656 120.422V132.535C212.656 134.467 212.766 135.935 212.984 136.938C213.203 137.922 213.513 138.788 213.914 139.535V140H204.672C204.234 139.089 203.906 137.977 203.688 136.664C203.487 135.333 203.387 133.966 203.387 132.562ZM204.508 121.926L204.562 126.848H200.488C199.632 126.848 198.902 126.966 198.301 127.203C197.717 127.44 197.243 127.768 196.879 128.188C196.533 128.589 196.277 129.044 196.113 129.555C195.967 130.065 195.895 130.603 195.895 131.168C195.895 131.715 196.022 132.207 196.277 132.645C196.551 133.064 196.915 133.392 197.371 133.629C197.827 133.866 198.337 133.984 198.902 133.984C199.923 133.984 200.789 133.793 201.5 133.41C202.229 133.009 202.785 132.526 203.168 131.961C203.551 131.396 203.742 130.867 203.742 130.375L205.766 134.148C205.401 134.878 204.982 135.616 204.508 136.363C204.052 137.111 203.478 137.803 202.785 138.441C202.111 139.061 201.281 139.572 200.297 139.973C199.312 140.355 198.118 140.547 196.715 140.547C194.892 140.547 193.215 140.173 191.684 139.426C190.171 138.678 188.958 137.639 188.047 136.309C187.135 134.96 186.68 133.41 186.68 131.66C186.68 130.129 186.953 128.762 187.5 127.559C188.065 126.355 188.913 125.335 190.043 124.496C191.173 123.658 192.613 123.02 194.363 122.582C196.113 122.145 198.173 121.926 200.543 121.926H204.508ZM226.82 116.73V140H217.605V110.414H226.246L226.82 116.73ZM225.727 124.195L223.566 124.25C223.566 121.99 223.84 119.975 224.387 118.207C224.934 116.421 225.708 114.908 226.711 113.668C227.714 112.428 228.908 111.49 230.293 110.852C231.697 110.195 233.255 109.867 234.969 109.867C236.336 109.867 237.585 110.068 238.715 110.469C239.863 110.87 240.848 111.517 241.668 112.41C242.507 113.303 243.145 114.488 243.582 115.965C244.038 117.423 244.266 119.228 244.266 121.379V140H234.996V121.352C234.996 120.167 234.832 119.264 234.504 118.645C234.176 118.007 233.702 117.569 233.082 117.332C232.462 117.095 231.706 116.977 230.812 116.977C229.865 116.977 229.062 117.159 228.406 117.523C227.75 117.888 227.221 118.398 226.82 119.055C226.438 119.693 226.155 120.449 225.973 121.324C225.809 122.199 225.727 123.156 225.727 124.195ZM248.23 125.508V124.934C248.23 122.764 248.54 120.768 249.16 118.945C249.78 117.104 250.691 115.509 251.895 114.16C253.098 112.811 254.583 111.763 256.352 111.016C258.12 110.25 260.161 109.867 262.477 109.867C264.81 109.867 266.861 110.25 268.629 111.016C270.415 111.763 271.91 112.811 273.113 114.16C274.316 115.509 275.228 117.104 275.848 118.945C276.467 120.768 276.777 122.764 276.777 124.934V125.508C276.777 127.659 276.467 129.655 275.848 131.496C275.228 133.319 274.316 134.914 273.113 136.281C271.91 137.63 270.424 138.678 268.656 139.426C266.888 140.173 264.846 140.547 262.531 140.547C260.216 140.547 258.165 140.173 256.379 139.426C254.592 138.678 253.098 137.63 251.895 136.281C250.691 134.914 249.78 133.319 249.16 131.496C248.54 129.655 248.23 127.659 248.23 125.508ZM257.445 124.934V125.508C257.445 126.62 257.527 127.659 257.691 128.625C257.855 129.591 258.129 130.439 258.512 131.168C258.895 131.879 259.414 132.435 260.07 132.836C260.727 133.237 261.547 133.438 262.531 133.438C263.497 133.438 264.299 133.237 264.938 132.836C265.594 132.435 266.113 131.879 266.496 131.168C266.879 130.439 267.152 129.591 267.316 128.625C267.48 127.659 267.562 126.62 267.562 125.508V124.934C267.562 123.858 267.48 122.846 267.316 121.898C267.152 120.932 266.879 120.085 266.496 119.355C266.113 118.608 265.594 118.025 264.938 117.605C264.281 117.186 263.461 116.977 262.477 116.977C261.51 116.977 260.699 117.186 260.043 117.605C259.405 118.025 258.895 118.608 258.512 119.355C258.129 120.085 257.855 120.932 257.691 121.898C257.527 122.846 257.445 123.858 257.445 124.934ZM289.93 116.73V140H280.715V110.414H289.355L289.93 116.73ZM288.836 124.195L286.676 124.25C286.676 121.99 286.949 119.975 287.496 118.207C288.043 116.421 288.818 114.908 289.82 113.668C290.823 112.428 292.017 111.49 293.402 110.852C294.806 110.195 296.365 109.867 298.078 109.867C299.445 109.867 300.694 110.068 301.824 110.469C302.973 110.87 303.957 111.517 304.777 112.41C305.616 113.303 306.254 114.488 306.691 115.965C307.147 117.423 307.375 119.228 307.375 121.379V140H298.105V121.352C298.105 120.167 297.941 119.264 297.613 118.645C297.285 118.007 296.811 117.569 296.191 117.332C295.572 117.095 294.815 116.977 293.922 116.977C292.974 116.977 292.172 117.159 291.516 117.523C290.859 117.888 290.331 118.398 289.93 119.055C289.547 119.693 289.264 120.449 289.082 121.324C288.918 122.199 288.836 123.156 288.836 124.195ZM326.871 100.188H342.539C345.602 100.188 348.263 100.643 350.523 101.555C352.784 102.466 354.525 103.815 355.746 105.602C356.986 107.388 357.605 109.594 357.605 112.219C357.605 114.497 357.25 116.402 356.539 117.934C355.828 119.465 354.835 120.732 353.559 121.734C352.301 122.719 350.833 123.53 349.156 124.168L346.012 125.945H332.859L332.805 118.535H342.539C343.76 118.535 344.772 118.316 345.574 117.879C346.376 117.441 346.978 116.822 347.379 116.02C347.798 115.199 348.008 114.224 348.008 113.094C348.008 111.945 347.798 110.961 347.379 110.141C346.96 109.32 346.34 108.691 345.52 108.254C344.717 107.816 343.724 107.598 342.539 107.598H336.469V140H326.871V100.188ZM348.664 140L339.859 122.391L350.031 122.336L358.945 139.59V140H348.664ZM377.293 140.547C374.887 140.547 372.736 140.173 370.84 139.426C368.944 138.66 367.34 137.612 366.027 136.281C364.733 134.951 363.74 133.419 363.047 131.688C362.372 129.956 362.035 128.124 362.035 126.191V125.152C362.035 122.983 362.336 120.978 362.938 119.137C363.539 117.277 364.432 115.655 365.617 114.27C366.802 112.884 368.288 111.809 370.074 111.043C371.861 110.259 373.939 109.867 376.309 109.867C378.405 109.867 380.283 110.204 381.941 110.879C383.6 111.553 385.004 112.52 386.152 113.777C387.319 115.035 388.203 116.557 388.805 118.344C389.424 120.13 389.734 122.135 389.734 124.359V128.105H365.562V122.336H380.738V121.625C380.757 120.641 380.583 119.802 380.219 119.109C379.872 118.417 379.362 117.888 378.688 117.523C378.013 117.159 377.193 116.977 376.227 116.977C375.224 116.977 374.395 117.195 373.738 117.633C373.1 118.07 372.599 118.672 372.234 119.438C371.888 120.185 371.642 121.051 371.496 122.035C371.35 123.02 371.277 124.059 371.277 125.152V126.191C371.277 127.285 371.423 128.279 371.715 129.172C372.025 130.065 372.462 130.831 373.027 131.469C373.611 132.089 374.303 132.572 375.105 132.918C375.926 133.264 376.855 133.438 377.895 133.438C379.152 133.438 380.392 133.201 381.613 132.727C382.835 132.253 383.883 131.469 384.758 130.375L388.941 135.352C388.34 136.208 387.483 137.038 386.371 137.84C385.277 138.642 383.965 139.298 382.434 139.809C380.902 140.301 379.189 140.547 377.293 140.547ZM408.848 132.562V120.367C408.848 119.529 408.729 118.809 408.492 118.207C408.255 117.605 407.882 117.141 407.371 116.812C406.861 116.466 406.177 116.293 405.32 116.293C404.628 116.293 404.035 116.411 403.543 116.648C403.051 116.885 402.677 117.241 402.422 117.715C402.167 118.189 402.039 118.79 402.039 119.52H392.824C392.824 118.152 393.125 116.885 393.727 115.719C394.346 114.534 395.221 113.504 396.352 112.629C397.5 111.754 398.867 111.079 400.453 110.605C402.057 110.113 403.844 109.867 405.812 109.867C408.164 109.867 410.26 110.259 412.102 111.043C413.961 111.827 415.428 113.003 416.504 114.57C417.579 116.12 418.117 118.07 418.117 120.422V132.535C418.117 134.467 418.227 135.935 418.445 136.938C418.664 137.922 418.974 138.788 419.375 139.535V140H410.133C409.695 139.089 409.367 137.977 409.148 136.664C408.948 135.333 408.848 133.966 408.848 132.562ZM409.969 121.926L410.023 126.848H405.949C405.092 126.848 404.363 126.966 403.762 127.203C403.178 127.44 402.704 127.768 402.34 128.188C401.993 128.589 401.738 129.044 401.574 129.555C401.428 130.065 401.355 130.603 401.355 131.168C401.355 131.715 401.483 132.207 401.738 132.645C402.012 133.064 402.376 133.392 402.832 133.629C403.288 133.866 403.798 133.984 404.363 133.984C405.384 133.984 406.25 133.793 406.961 133.41C407.69 133.009 408.246 132.526 408.629 131.961C409.012 131.396 409.203 130.867 409.203 130.375L411.227 134.148C410.862 134.878 410.443 135.616 409.969 136.363C409.513 137.111 408.939 137.803 408.246 138.441C407.572 139.061 406.742 139.572 405.758 139.973C404.773 140.355 403.579 140.547 402.176 140.547C400.353 140.547 398.676 140.173 397.145 139.426C395.632 138.678 394.419 137.639 393.508 136.309C392.596 134.96 392.141 133.41 392.141 131.66C392.141 130.129 392.414 128.762 392.961 127.559C393.526 126.355 394.374 125.335 395.504 124.496C396.634 123.658 398.074 123.02 399.824 122.582C401.574 122.145 403.634 121.926 406.004 121.926H409.969ZM432.965 98V140H423.723V98H432.965ZM480.434 132.617V140H459.215V132.617H480.434ZM462.633 100.188V140H453.035V100.188H462.633ZM477.699 115.992V123.129H459.215V115.992H477.699ZM480.516 100.188V107.598H459.215V100.188H480.516ZM499.438 131.688C499.438 131.177 499.264 130.74 498.918 130.375C498.59 129.992 498.007 129.646 497.168 129.336C496.329 129.008 495.154 128.68 493.641 128.352C492.201 128.042 490.842 127.632 489.566 127.121C488.309 126.611 487.206 125.991 486.258 125.262C485.31 124.533 484.562 123.667 484.016 122.664C483.487 121.661 483.223 120.513 483.223 119.219C483.223 117.961 483.487 116.776 484.016 115.664C484.562 114.534 485.355 113.54 486.395 112.684C487.452 111.809 488.737 111.125 490.25 110.633C491.763 110.122 493.486 109.867 495.418 109.867C498.079 109.867 500.376 110.277 502.309 111.098C504.241 111.9 505.727 113.03 506.766 114.488C507.823 115.928 508.352 117.596 508.352 119.492H499.137C499.137 118.745 499.009 118.107 498.754 117.578C498.517 117.049 498.125 116.648 497.578 116.375C497.031 116.083 496.302 115.938 495.391 115.938C494.753 115.938 494.169 116.056 493.641 116.293C493.13 116.53 492.72 116.858 492.41 117.277C492.1 117.697 491.945 118.189 491.945 118.754C491.945 119.155 492.036 119.52 492.219 119.848C492.419 120.158 492.72 120.449 493.121 120.723C493.522 120.978 494.033 121.215 494.652 121.434C495.272 121.634 496.02 121.816 496.895 121.98C498.882 122.345 500.741 122.865 502.473 123.539C504.204 124.214 505.608 125.171 506.684 126.41C507.777 127.65 508.324 129.318 508.324 131.414C508.324 132.727 508.023 133.939 507.422 135.051C506.82 136.145 505.954 137.111 504.824 137.949C503.694 138.77 502.336 139.408 500.75 139.863C499.164 140.319 497.378 140.547 495.391 140.547C492.565 140.547 490.177 140.046 488.227 139.043C486.276 138.022 484.799 136.746 483.797 135.215C482.812 133.665 482.32 132.098 482.32 130.512H490.906C490.943 131.423 491.161 132.171 491.562 132.754C491.982 133.337 492.538 133.766 493.23 134.039C493.923 134.312 494.725 134.449 495.637 134.449C496.475 134.449 497.168 134.331 497.715 134.094C498.28 133.857 498.708 133.538 499 133.137C499.292 132.717 499.438 132.234 499.438 131.688ZM528.23 110.414V116.812H510.402V110.414H528.23ZM514.148 103.059H523.363V130.348C523.363 131.132 523.454 131.742 523.637 132.18C523.819 132.599 524.129 132.9 524.566 133.082C525.022 133.246 525.624 133.328 526.371 133.328C526.9 133.328 527.337 133.319 527.684 133.301C528.03 133.264 528.358 133.219 528.668 133.164V139.754C527.884 140.009 527.064 140.201 526.207 140.328C525.35 140.474 524.439 140.547 523.473 140.547C521.504 140.547 519.818 140.237 518.414 139.617C517.029 138.997 515.971 138.022 515.242 136.691C514.513 135.361 514.148 133.629 514.148 131.496V103.059ZM547.262 132.562V120.367C547.262 119.529 547.143 118.809 546.906 118.207C546.669 117.605 546.296 117.141 545.785 116.812C545.275 116.466 544.591 116.293 543.734 116.293C543.042 116.293 542.449 116.411 541.957 116.648C541.465 116.885 541.091 117.241 540.836 117.715C540.581 118.189 540.453 118.79 540.453 119.52H531.238C531.238 118.152 531.539 116.885 532.141 115.719C532.76 114.534 533.635 113.504 534.766 112.629C535.914 111.754 537.281 111.079 538.867 110.605C540.471 110.113 542.258 109.867 544.227 109.867C546.578 109.867 548.674 110.259 550.516 111.043C552.375 111.827 553.842 113.003 554.918 114.57C555.993 116.12 556.531 118.07 556.531 120.422V132.535C556.531 134.467 556.641 135.935 556.859 136.938C557.078 137.922 557.388 138.788 557.789 139.535V140H548.547C548.109 139.089 547.781 137.977 547.562 136.664C547.362 135.333 547.262 133.966 547.262 132.562ZM548.383 121.926L548.438 126.848H544.363C543.507 126.848 542.777 126.966 542.176 127.203C541.592 127.44 541.118 127.768 540.754 128.188C540.408 128.589 540.152 129.044 539.988 129.555C539.842 130.065 539.77 130.603 539.77 131.168C539.77 131.715 539.897 132.207 540.152 132.645C540.426 133.064 540.79 133.392 541.246 133.629C541.702 133.866 542.212 133.984 542.777 133.984C543.798 133.984 544.664 133.793 545.375 133.41C546.104 133.009 546.66 132.526 547.043 131.961C547.426 131.396 547.617 130.867 547.617 130.375L549.641 134.148C549.276 134.878 548.857 135.616 548.383 136.363C547.927 137.111 547.353 137.803 546.66 138.441C545.986 139.061 545.156 139.572 544.172 139.973C543.188 140.355 541.993 140.547 540.59 140.547C538.767 140.547 537.09 140.173 535.559 139.426C534.046 138.678 532.833 137.639 531.922 136.309C531.01 134.96 530.555 133.41 530.555 131.66C530.555 130.129 530.828 128.762 531.375 127.559C531.94 126.355 532.788 125.335 533.918 124.496C535.048 123.658 536.488 123.02 538.238 122.582C539.988 122.145 542.048 121.926 544.418 121.926H548.383ZM577.23 110.414V116.812H559.402V110.414H577.23ZM563.148 103.059H572.363V130.348C572.363 131.132 572.454 131.742 572.637 132.18C572.819 132.599 573.129 132.9 573.566 133.082C574.022 133.246 574.624 133.328 575.371 133.328C575.9 133.328 576.337 133.319 576.684 133.301C577.03 133.264 577.358 133.219 577.668 133.164V139.754C576.884 140.009 576.064 140.201 575.207 140.328C574.35 140.474 573.439 140.547 572.473 140.547C570.504 140.547 568.818 140.237 567.414 139.617C566.029 138.997 564.971 138.022 564.242 136.691C563.513 135.361 563.148 133.629 563.148 131.496V103.059ZM595.223 140.547C592.816 140.547 590.665 140.173 588.77 139.426C586.874 138.66 585.27 137.612 583.957 136.281C582.663 134.951 581.669 133.419 580.977 131.688C580.302 129.956 579.965 128.124 579.965 126.191V125.152C579.965 122.983 580.266 120.978 580.867 119.137C581.469 117.277 582.362 115.655 583.547 114.27C584.732 112.884 586.217 111.809 588.004 111.043C589.79 110.259 591.868 109.867 594.238 109.867C596.335 109.867 598.212 110.204 599.871 110.879C601.53 111.553 602.934 112.52 604.082 113.777C605.249 115.035 606.133 116.557 606.734 118.344C607.354 120.13 607.664 122.135 607.664 124.359V128.105H583.492V122.336H598.668V121.625C598.686 120.641 598.513 119.802 598.148 119.109C597.802 118.417 597.292 117.888 596.617 117.523C595.943 117.159 595.122 116.977 594.156 116.977C593.154 116.977 592.324 117.195 591.668 117.633C591.03 118.07 590.529 118.672 590.164 119.438C589.818 120.185 589.572 121.051 589.426 122.035C589.28 123.02 589.207 124.059 589.207 125.152V126.191C589.207 127.285 589.353 128.279 589.645 129.172C589.954 130.065 590.392 130.831 590.957 131.469C591.54 132.089 592.233 132.572 593.035 132.918C593.855 133.264 594.785 133.438 595.824 133.438C597.082 133.438 598.322 133.201 599.543 132.727C600.764 132.253 601.812 131.469 602.688 130.375L606.871 135.352C606.27 136.208 605.413 137.038 604.301 137.84C603.207 138.642 601.895 139.298 600.363 139.809C598.832 140.301 597.118 140.547 595.223 140.547ZM635.992 100.188V140H626.422V100.188H635.992ZM651.359 116.73V140H642.145V110.414H650.785L651.359 116.73ZM650.266 124.195L648.105 124.25C648.105 121.99 648.379 119.975 648.926 118.207C649.473 116.421 650.247 114.908 651.25 113.668C652.253 112.428 653.447 111.49 654.832 110.852C656.236 110.195 657.794 109.867 659.508 109.867C660.875 109.867 662.124 110.068 663.254 110.469C664.402 110.87 665.387 111.517 666.207 112.41C667.046 113.303 667.684 114.488 668.121 115.965C668.577 117.423 668.805 119.228 668.805 121.379V140H659.535V121.352C659.535 120.167 659.371 119.264 659.043 118.645C658.715 118.007 658.241 117.569 657.621 117.332C657.001 117.095 656.245 116.977 655.352 116.977C654.404 116.977 653.602 117.159 652.945 117.523C652.289 117.888 651.76 118.398 651.359 119.055C650.977 119.693 650.694 120.449 650.512 121.324C650.348 122.199 650.266 123.156 650.266 124.195ZM689.422 131.688C689.422 131.177 689.249 130.74 688.902 130.375C688.574 129.992 687.991 129.646 687.152 129.336C686.314 129.008 685.138 128.68 683.625 128.352C682.185 128.042 680.827 127.632 679.551 127.121C678.293 126.611 677.19 125.991 676.242 125.262C675.294 124.533 674.547 123.667 674 122.664C673.471 121.661 673.207 120.513 673.207 119.219C673.207 117.961 673.471 116.776 674 115.664C674.547 114.534 675.34 113.54 676.379 112.684C677.436 111.809 678.721 111.125 680.234 110.633C681.747 110.122 683.47 109.867 685.402 109.867C688.064 109.867 690.361 110.277 692.293 111.098C694.225 111.9 695.711 113.03 696.75 114.488C697.807 115.928 698.336 117.596 698.336 119.492H689.121C689.121 118.745 688.993 118.107 688.738 117.578C688.501 117.049 688.109 116.648 687.562 116.375C687.016 116.083 686.286 115.938 685.375 115.938C684.737 115.938 684.154 116.056 683.625 116.293C683.115 116.53 682.704 116.858 682.395 117.277C682.085 117.697 681.93 118.189 681.93 118.754C681.93 119.155 682.021 119.52 682.203 119.848C682.404 120.158 682.704 120.449 683.105 120.723C683.507 120.978 684.017 121.215 684.637 121.434C685.257 121.634 686.004 121.816 686.879 121.98C688.866 122.345 690.725 122.865 692.457 123.539C694.189 124.214 695.592 125.171 696.668 126.41C697.762 127.65 698.309 129.318 698.309 131.414C698.309 132.727 698.008 133.939 697.406 135.051C696.805 136.145 695.939 137.111 694.809 137.949C693.678 138.77 692.32 139.408 690.734 139.863C689.148 140.319 687.362 140.547 685.375 140.547C682.549 140.547 680.161 140.046 678.211 139.043C676.26 138.022 674.784 136.746 673.781 135.215C672.797 133.665 672.305 132.098 672.305 130.512H680.891C680.927 131.423 681.146 132.171 681.547 132.754C681.966 133.337 682.522 133.766 683.215 134.039C683.908 134.312 684.71 134.449 685.621 134.449C686.46 134.449 687.152 134.331 687.699 134.094C688.264 133.857 688.693 133.538 688.984 133.137C689.276 132.717 689.422 132.234 689.422 131.688ZM712.363 110.414V140H703.121V110.414H712.363ZM702.574 102.785C702.574 101.473 703.048 100.397 703.996 99.5586C704.944 98.7201 706.174 98.3008 707.688 98.3008C709.201 98.3008 710.431 98.7201 711.379 99.5586C712.327 100.397 712.801 101.473 712.801 102.785C712.801 104.098 712.327 105.173 711.379 106.012C710.431 106.85 709.201 107.27 707.688 107.27C706.174 107.27 704.944 106.85 703.996 106.012C703.048 105.173 702.574 104.098 702.574 102.785ZM736.645 110.414H745.012V138.852C745.012 141.586 744.383 143.901 743.125 145.797C741.867 147.711 740.108 149.16 737.848 150.145C735.605 151.147 732.98 151.648 729.973 151.648C728.642 151.648 727.284 151.475 725.898 151.129C724.513 150.801 723.219 150.309 722.016 149.652C720.812 148.996 719.801 148.185 718.98 147.219L722.836 141.805C723.583 142.643 724.522 143.354 725.652 143.938C726.783 144.539 728.113 144.84 729.645 144.84C730.975 144.84 732.087 144.603 732.98 144.129C733.892 143.655 734.585 142.962 735.059 142.051C735.533 141.158 735.77 140.073 735.77 138.797V117.414L736.645 110.414ZM716.984 125.562V124.988C716.984 122.746 717.258 120.704 717.805 118.863C718.37 117.004 719.172 115.409 720.211 114.078C721.268 112.729 722.544 111.69 724.039 110.961C725.534 110.232 727.22 109.867 729.098 109.867C731.121 109.867 732.78 110.259 734.074 111.043C735.387 111.809 736.435 112.884 737.219 114.27C738.021 115.655 738.641 117.277 739.078 119.137C739.534 120.978 739.917 122.965 740.227 125.098V125.781C739.917 127.786 739.488 129.682 738.941 131.469C738.413 133.237 737.72 134.805 736.863 136.172C736.007 137.539 734.931 138.615 733.637 139.398C732.361 140.164 730.829 140.547 729.043 140.547C727.184 140.547 725.507 140.173 724.012 139.426C722.535 138.678 721.268 137.63 720.211 136.281C719.172 134.932 718.37 133.346 717.805 131.523C717.258 129.701 716.984 127.714 716.984 125.562ZM726.199 124.988V125.562C726.199 126.674 726.299 127.704 726.5 128.652C726.719 129.6 727.047 130.439 727.484 131.168C727.922 131.879 728.46 132.435 729.098 132.836C729.754 133.237 730.52 133.438 731.395 133.438C732.725 133.438 733.801 133.155 734.621 132.59C735.441 132.025 736.034 131.223 736.398 130.184C736.763 129.145 736.918 127.923 736.863 126.52V124.359C736.9 123.156 736.818 122.099 736.617 121.188C736.417 120.258 736.098 119.483 735.66 118.863C735.241 118.243 734.676 117.779 733.965 117.469C733.272 117.141 732.434 116.977 731.449 116.977C730.592 116.977 729.836 117.177 729.18 117.578C728.523 117.979 727.977 118.544 727.539 119.273C727.102 119.984 726.764 120.832 726.527 121.816C726.309 122.783 726.199 123.84 726.199 124.988ZM759.34 98V140H750.125V98H759.34ZM758.246 124.195L756.086 124.25C756.086 122.172 756.341 120.258 756.852 118.508C757.362 116.758 758.091 115.236 759.039 113.941C759.987 112.647 761.126 111.645 762.457 110.934C763.788 110.223 765.264 109.867 766.887 109.867C768.345 109.867 769.676 110.077 770.879 110.496C772.1 110.915 773.148 111.59 774.023 112.52C774.917 113.449 775.6 114.661 776.074 116.156C776.566 117.651 776.812 119.474 776.812 121.625V140H767.543V121.57C767.543 120.367 767.37 119.438 767.023 118.781C766.695 118.107 766.221 117.642 765.602 117.387C764.982 117.113 764.225 116.977 763.332 116.977C762.257 116.977 761.382 117.159 760.707 117.523C760.033 117.888 759.513 118.398 759.148 119.055C758.802 119.693 758.565 120.449 758.438 121.324C758.31 122.199 758.246 123.156 758.246 124.195ZM797.512 110.414V116.812H779.684V110.414H797.512ZM783.43 103.059H792.645V130.348C792.645 131.132 792.736 131.742 792.918 132.18C793.1 132.599 793.41 132.9 793.848 133.082C794.303 133.246 794.905 133.328 795.652 133.328C796.181 133.328 796.618 133.319 796.965 133.301C797.311 133.264 797.639 133.219 797.949 133.164V139.754C797.165 140.009 796.345 140.201 795.488 140.328C794.632 140.474 793.72 140.547 792.754 140.547C790.785 140.547 789.099 140.237 787.695 139.617C786.31 138.997 785.253 138.022 784.523 136.691C783.794 135.361 783.43 133.629 783.43 131.496V103.059ZM816.68 131.688C816.68 131.177 816.507 130.74 816.16 130.375C815.832 129.992 815.249 129.646 814.41 129.336C813.572 129.008 812.396 128.68 810.883 128.352C809.443 128.042 808.085 127.632 806.809 127.121C805.551 126.611 804.448 125.991 803.5 125.262C802.552 124.533 801.805 123.667 801.258 122.664C800.729 121.661 800.465 120.513 800.465 119.219C800.465 117.961 800.729 116.776 801.258 115.664C801.805 114.534 802.598 113.54 803.637 112.684C804.694 111.809 805.979 111.125 807.492 110.633C809.005 110.122 810.728 109.867 812.66 109.867C815.322 109.867 817.618 110.277 819.551 111.098C821.483 111.9 822.969 113.03 824.008 114.488C825.065 115.928 825.594 117.596 825.594 119.492H816.379C816.379 118.745 816.251 118.107 815.996 117.578C815.759 117.049 815.367 116.648 814.82 116.375C814.273 116.083 813.544 115.938 812.633 115.938C811.995 115.938 811.411 116.056 810.883 116.293C810.372 116.53 809.962 116.858 809.652 117.277C809.342 117.697 809.188 118.189 809.188 118.754C809.188 119.155 809.279 119.52 809.461 119.848C809.661 120.158 809.962 120.449 810.363 120.723C810.764 120.978 811.275 121.215 811.895 121.434C812.514 121.634 813.262 121.816 814.137 121.98C816.124 122.345 817.983 122.865 819.715 123.539C821.447 124.214 822.85 125.171 823.926 126.41C825.02 127.65 825.566 129.318 825.566 131.414C825.566 132.727 825.266 133.939 824.664 135.051C824.062 136.145 823.197 137.111 822.066 137.949C820.936 138.77 819.578 139.408 817.992 139.863C816.406 140.319 814.62 140.547 812.633 140.547C809.807 140.547 807.419 140.046 805.469 139.043C803.518 138.022 802.042 136.746 801.039 135.215C800.055 133.665 799.562 132.098 799.562 130.512H808.148C808.185 131.423 808.404 132.171 808.805 132.754C809.224 133.337 809.78 133.766 810.473 134.039C811.165 134.312 811.967 134.449 812.879 134.449C813.717 134.449 814.41 134.331 814.957 134.094C815.522 133.857 815.951 133.538 816.242 133.137C816.534 132.717 816.68 132.234 816.68 131.688Z" fill="black"/>
<rect x="93" y="178" width="917" height="77" rx="10" fill="#D3D3D3"/>
<rect x="111" y="196" width="102" height="41" rx="3" fill="#424242"/>
<path d="M139.641 210.203H144.677C145.661 210.203 146.517 210.35 147.243 210.643C147.97 210.936 148.529 211.369 148.922 211.943C149.32 212.518 149.52 213.227 149.52 214.07C149.52 214.803 149.405 215.415 149.177 215.907C148.948 216.399 148.629 216.807 148.219 217.129C147.814 217.445 147.343 217.706 146.804 217.911L145.793 218.482H141.565L141.548 216.101H144.677C145.069 216.101 145.395 216.03 145.652 215.89C145.91 215.749 146.104 215.55 146.232 215.292C146.367 215.028 146.435 214.715 146.435 214.352C146.435 213.982 146.367 213.666 146.232 213.402C146.098 213.139 145.898 212.937 145.635 212.796C145.377 212.655 145.058 212.585 144.677 212.585H142.726V223H139.641V210.203ZM146.646 223L143.815 217.34L147.085 217.322L149.95 222.868V223H146.646ZM155.848 223.176C155.074 223.176 154.383 223.056 153.773 222.815C153.164 222.569 152.648 222.232 152.227 221.805C151.811 221.377 151.491 220.885 151.269 220.328C151.052 219.771 150.943 219.183 150.943 218.562V218.228C150.943 217.53 151.04 216.886 151.233 216.294C151.427 215.696 151.714 215.175 152.095 214.729C152.476 214.284 152.953 213.938 153.527 213.692C154.102 213.44 154.77 213.314 155.531 213.314C156.205 213.314 156.809 213.423 157.342 213.64C157.875 213.856 158.326 214.167 158.695 214.571C159.07 214.976 159.354 215.465 159.548 216.039C159.747 216.613 159.847 217.258 159.847 217.973V219.177H152.077V217.322H156.955V217.094C156.961 216.777 156.905 216.508 156.788 216.285C156.677 216.062 156.513 215.893 156.296 215.775C156.079 215.658 155.815 215.6 155.505 215.6C155.183 215.6 154.916 215.67 154.705 215.811C154.5 215.951 154.339 216.145 154.222 216.391C154.11 216.631 154.031 216.909 153.984 217.226C153.938 217.542 153.914 217.876 153.914 218.228V218.562C153.914 218.913 153.961 219.232 154.055 219.52C154.154 219.807 154.295 220.053 154.477 220.258C154.664 220.457 154.887 220.612 155.145 220.724C155.408 220.835 155.707 220.891 156.041 220.891C156.445 220.891 156.844 220.814 157.236 220.662C157.629 220.51 157.966 220.258 158.247 219.906L159.592 221.506C159.398 221.781 159.123 222.048 158.766 222.306C158.414 222.563 157.992 222.774 157.5 222.938C157.008 223.097 156.457 223.176 155.848 223.176ZM165.99 220.609V216.689C165.99 216.42 165.952 216.188 165.876 215.995C165.8 215.802 165.68 215.652 165.516 215.547C165.352 215.436 165.132 215.38 164.856 215.38C164.634 215.38 164.443 215.418 164.285 215.494C164.127 215.57 164.007 215.685 163.925 215.837C163.843 215.989 163.802 216.183 163.802 216.417H160.84C160.84 215.978 160.937 215.57 161.13 215.195C161.329 214.814 161.61 214.483 161.974 214.202C162.343 213.921 162.782 213.704 163.292 213.552C163.808 213.394 164.382 213.314 165.015 213.314C165.771 213.314 166.444 213.44 167.036 213.692C167.634 213.944 168.105 214.322 168.451 214.826C168.797 215.324 168.97 215.951 168.97 216.707V220.601C168.97 221.222 169.005 221.693 169.075 222.016C169.146 222.332 169.245 222.61 169.374 222.851V223H166.403C166.263 222.707 166.157 222.35 166.087 221.928C166.022 221.5 165.99 221.061 165.99 220.609ZM166.351 217.19L166.368 218.772H165.059C164.783 218.772 164.549 218.811 164.355 218.887C164.168 218.963 164.016 219.068 163.898 219.203C163.787 219.332 163.705 219.479 163.652 219.643C163.605 219.807 163.582 219.979 163.582 220.161C163.582 220.337 163.623 220.495 163.705 220.636C163.793 220.771 163.91 220.876 164.057 220.952C164.203 221.028 164.367 221.066 164.549 221.066C164.877 221.066 165.155 221.005 165.384 220.882C165.618 220.753 165.797 220.598 165.92 220.416C166.043 220.234 166.104 220.064 166.104 219.906L166.755 221.119C166.638 221.354 166.503 221.591 166.351 221.831C166.204 222.071 166.02 222.294 165.797 222.499C165.58 222.698 165.313 222.862 164.997 222.991C164.681 223.114 164.297 223.176 163.846 223.176C163.26 223.176 162.721 223.056 162.229 222.815C161.742 222.575 161.353 222.241 161.06 221.813C160.767 221.38 160.62 220.882 160.62 220.319C160.62 219.827 160.708 219.388 160.884 219.001C161.065 218.614 161.338 218.286 161.701 218.017C162.064 217.747 162.527 217.542 163.09 217.401C163.652 217.261 164.314 217.19 165.076 217.19H166.351ZM174.63 220.891C174.905 220.891 175.14 220.841 175.333 220.741C175.532 220.636 175.682 220.489 175.781 220.302C175.887 220.108 175.937 219.877 175.931 219.607H178.717C178.723 220.322 178.547 220.949 178.189 221.488C177.838 222.021 177.357 222.438 176.748 222.736C176.145 223.029 175.462 223.176 174.7 223.176C173.956 223.176 173.306 223.056 172.749 222.815C172.192 222.569 171.727 222.229 171.352 221.796C170.982 221.356 170.704 220.844 170.517 220.258C170.335 219.672 170.244 219.036 170.244 218.351V218.148C170.244 217.463 170.335 216.827 170.517 216.241C170.704 215.649 170.982 215.137 171.352 214.703C171.727 214.264 172.189 213.924 172.74 213.684C173.297 213.438 173.944 213.314 174.683 213.314C175.474 213.314 176.171 213.464 176.774 213.763C177.384 214.062 177.861 214.495 178.207 215.063C178.553 215.632 178.723 216.32 178.717 217.129H175.931C175.937 216.842 175.893 216.584 175.799 216.355C175.705 216.127 175.559 215.945 175.359 215.811C175.166 215.67 174.917 215.6 174.612 215.6C174.308 215.6 174.062 215.667 173.874 215.802C173.687 215.937 173.543 216.124 173.443 216.364C173.35 216.599 173.285 216.868 173.25 217.173C173.221 217.478 173.206 217.803 173.206 218.148V218.351C173.206 218.702 173.221 219.033 173.25 219.344C173.285 219.648 173.353 219.918 173.452 220.152C173.552 220.381 173.695 220.562 173.883 220.697C174.07 220.826 174.319 220.891 174.63 220.891ZM184.992 213.49V215.547H179.262V213.49H184.992ZM180.466 211.126H183.428V219.897C183.428 220.149 183.457 220.346 183.516 220.486C183.574 220.621 183.674 220.718 183.814 220.776C183.961 220.829 184.154 220.855 184.395 220.855C184.564 220.855 184.705 220.853 184.816 220.847C184.928 220.835 185.033 220.82 185.133 220.803V222.921C184.881 223.003 184.617 223.064 184.342 223.105C184.066 223.152 183.773 223.176 183.463 223.176C182.83 223.176 182.288 223.076 181.837 222.877C181.392 222.678 181.052 222.364 180.817 221.937C180.583 221.509 180.466 220.952 180.466 220.267V211.126Z" fill="white"/>
<rect x="111" y="196" width="102" height="41" rx="3" stroke="#424242" stroke-width="4"/>
<rect x="233" y="196" width="104" height="41" rx="3" fill="#424242"/>
<path d="M264.812 220.627V223H258.343V220.627H264.812ZM259.441 210.203V223H256.356V210.203H259.441ZM270.911 220.609V216.689C270.911 216.42 270.873 216.188 270.797 215.995C270.721 215.802 270.601 215.652 270.437 215.547C270.272 215.436 270.053 215.38 269.777 215.38C269.555 215.38 269.364 215.418 269.206 215.494C269.048 215.57 268.928 215.685 268.846 215.837C268.764 215.989 268.723 216.183 268.723 216.417H265.761C265.761 215.978 265.857 215.57 266.051 215.195C266.25 214.814 266.531 214.483 266.895 214.202C267.264 213.921 267.703 213.704 268.213 213.552C268.729 213.394 269.303 213.314 269.936 213.314C270.691 213.314 271.365 213.44 271.957 213.692C272.555 213.944 273.026 214.322 273.372 214.826C273.718 215.324 273.891 215.951 273.891 216.707V220.601C273.891 221.222 273.926 221.693 273.996 222.016C274.066 222.332 274.166 222.61 274.295 222.851V223H271.324C271.184 222.707 271.078 222.35 271.008 221.928C270.943 221.5 270.911 221.061 270.911 220.609ZM271.271 217.19L271.289 218.772H269.979C269.704 218.772 269.47 218.811 269.276 218.887C269.089 218.963 268.937 219.068 268.819 219.203C268.708 219.332 268.626 219.479 268.573 219.643C268.526 219.807 268.503 219.979 268.503 220.161C268.503 220.337 268.544 220.495 268.626 220.636C268.714 220.771 268.831 220.876 268.978 220.952C269.124 221.028 269.288 221.066 269.47 221.066C269.798 221.066 270.076 221.005 270.305 220.882C270.539 220.753 270.718 220.598 270.841 220.416C270.964 220.234 271.025 220.064 271.025 219.906L271.676 221.119C271.559 221.354 271.424 221.591 271.271 221.831C271.125 222.071 270.94 222.294 270.718 222.499C270.501 222.698 270.234 222.862 269.918 222.991C269.602 223.114 269.218 223.176 268.767 223.176C268.181 223.176 267.642 223.056 267.149 222.815C266.663 222.575 266.273 222.241 265.98 221.813C265.688 221.38 265.541 220.882 265.541 220.319C265.541 219.827 265.629 219.388 265.805 219.001C265.986 218.614 266.259 218.286 266.622 218.017C266.985 217.747 267.448 217.542 268.011 217.401C268.573 217.261 269.235 217.19 269.997 217.19H271.271ZM278.522 215.846V223H275.561V213.49H278.329L278.522 215.846ZM281.335 213.42L281.282 216.171C281.165 216.159 281.007 216.145 280.808 216.127C280.608 216.109 280.441 216.101 280.307 216.101C279.961 216.101 279.662 216.142 279.41 216.224C279.164 216.3 278.959 216.417 278.795 216.575C278.637 216.728 278.52 216.921 278.443 217.155C278.373 217.39 278.341 217.662 278.347 217.973L277.811 217.621C277.811 216.982 277.872 216.402 277.995 215.881C278.124 215.354 278.306 214.899 278.54 214.519C278.774 214.132 279.059 213.836 279.393 213.631C279.727 213.42 280.102 213.314 280.518 213.314C280.664 213.314 280.808 213.323 280.948 213.341C281.095 213.358 281.224 213.385 281.335 213.42ZM287.03 220.609V216.689C287.03 216.42 286.992 216.188 286.916 215.995C286.84 215.802 286.72 215.652 286.556 215.547C286.392 215.436 286.172 215.38 285.896 215.38C285.674 215.38 285.483 215.418 285.325 215.494C285.167 215.57 285.047 215.685 284.965 215.837C284.883 215.989 284.842 216.183 284.842 216.417H281.88C281.88 215.978 281.977 215.57 282.17 215.195C282.369 214.814 282.65 214.483 283.014 214.202C283.383 213.921 283.822 213.704 284.332 213.552C284.848 213.394 285.422 213.314 286.055 213.314C286.811 213.314 287.484 213.44 288.076 213.692C288.674 213.944 289.146 214.322 289.491 214.826C289.837 215.324 290.01 215.951 290.01 216.707V220.601C290.01 221.222 290.045 221.693 290.115 222.016C290.186 222.332 290.285 222.61 290.414 222.851V223H287.443C287.303 222.707 287.197 222.35 287.127 221.928C287.062 221.5 287.03 221.061 287.03 220.609ZM287.391 217.19L287.408 218.772H286.099C285.823 218.772 285.589 218.811 285.396 218.887C285.208 218.963 285.056 219.068 284.938 219.203C284.827 219.332 284.745 219.479 284.692 219.643C284.646 219.807 284.622 219.979 284.622 220.161C284.622 220.337 284.663 220.495 284.745 220.636C284.833 220.771 284.95 220.876 285.097 220.952C285.243 221.028 285.407 221.066 285.589 221.066C285.917 221.066 286.195 221.005 286.424 220.882C286.658 220.753 286.837 220.598 286.96 220.416C287.083 220.234 287.145 220.064 287.145 219.906L287.795 221.119C287.678 221.354 287.543 221.591 287.391 221.831C287.244 222.071 287.06 222.294 286.837 222.499C286.62 222.698 286.354 222.862 286.037 222.991C285.721 223.114 285.337 223.176 284.886 223.176C284.3 223.176 283.761 223.056 283.269 222.815C282.782 222.575 282.393 222.241 282.1 221.813C281.807 221.38 281.66 220.882 281.66 220.319C281.66 219.827 281.748 219.388 281.924 219.001C282.105 218.614 282.378 218.286 282.741 218.017C283.104 217.747 283.567 217.542 284.13 217.401C284.692 217.261 285.354 217.19 286.116 217.19H287.391ZM294.94 220.97L296.812 213.49H299.933L296.821 223H294.976L294.94 220.97ZM293.833 213.49L295.679 220.97L295.661 223H293.807L290.704 213.49H293.833ZM305.294 223.176C304.521 223.176 303.829 223.056 303.22 222.815C302.61 222.569 302.095 222.232 301.673 221.805C301.257 221.377 300.938 220.885 300.715 220.328C300.498 219.771 300.39 219.183 300.39 218.562V218.228C300.39 217.53 300.486 216.886 300.68 216.294C300.873 215.696 301.16 215.175 301.541 214.729C301.922 214.284 302.399 213.938 302.974 213.692C303.548 213.44 304.216 213.314 304.978 213.314C305.651 213.314 306.255 213.423 306.788 213.64C307.321 213.856 307.772 214.167 308.142 214.571C308.517 214.976 308.801 215.465 308.994 216.039C309.193 216.613 309.293 217.258 309.293 217.973V219.177H301.523V217.322H306.401V217.094C306.407 216.777 306.352 216.508 306.234 216.285C306.123 216.062 305.959 215.893 305.742 215.775C305.525 215.658 305.262 215.6 304.951 215.6C304.629 215.6 304.362 215.67 304.151 215.811C303.946 215.951 303.785 216.145 303.668 216.391C303.557 216.631 303.478 216.909 303.431 217.226C303.384 217.542 303.36 217.876 303.36 218.228V218.562C303.36 218.913 303.407 219.232 303.501 219.52C303.601 219.807 303.741 220.053 303.923 220.258C304.11 220.457 304.333 220.612 304.591 220.724C304.854 220.835 305.153 220.891 305.487 220.891C305.892 220.891 306.29 220.814 306.683 220.662C307.075 220.51 307.412 220.258 307.693 219.906L309.038 221.506C308.845 221.781 308.569 222.048 308.212 222.306C307.86 222.563 307.438 222.774 306.946 222.938C306.454 223.097 305.903 223.176 305.294 223.176ZM313.626 209.5V223H310.655V209.5H313.626Z" fill="white"/>
<rect x="233" y="196" width="104" height="41" rx="3" stroke="#424242" stroke-width="4"/>
<rect x="357" y="196" width="147" height="41" rx="3" fill="#424242"/>
<path d="M386.467 210.203V223H383.382V210.203H386.467ZM390.316 210.203V212.585H379.62V210.203H390.316ZM394.931 220.609V216.689C394.931 216.42 394.893 216.188 394.816 215.995C394.74 215.802 394.62 215.652 394.456 215.547C394.292 215.436 394.072 215.38 393.797 215.38C393.574 215.38 393.384 215.418 393.226 215.494C393.067 215.57 392.947 215.685 392.865 215.837C392.783 215.989 392.742 216.183 392.742 216.417H389.78C389.78 215.978 389.877 215.57 390.07 215.195C390.27 214.814 390.551 214.483 390.914 214.202C391.283 213.921 391.723 213.704 392.232 213.552C392.748 213.394 393.322 213.314 393.955 213.314C394.711 213.314 395.385 213.44 395.977 213.692C396.574 213.944 397.046 214.322 397.392 214.826C397.737 215.324 397.91 215.951 397.91 216.707V220.601C397.91 221.222 397.945 221.693 398.016 222.016C398.086 222.332 398.186 222.61 398.314 222.851V223H395.344C395.203 222.707 395.098 222.35 395.027 221.928C394.963 221.5 394.931 221.061 394.931 220.609ZM395.291 217.19L395.309 218.772H393.999C393.724 218.772 393.489 218.811 393.296 218.887C393.108 218.963 392.956 219.068 392.839 219.203C392.728 219.332 392.646 219.479 392.593 219.643C392.546 219.807 392.522 219.979 392.522 220.161C392.522 220.337 392.563 220.495 392.646 220.636C392.733 220.771 392.851 220.876 392.997 220.952C393.144 221.028 393.308 221.066 393.489 221.066C393.817 221.066 394.096 221.005 394.324 220.882C394.559 220.753 394.737 220.598 394.86 220.416C394.983 220.234 395.045 220.064 395.045 219.906L395.695 221.119C395.578 221.354 395.443 221.591 395.291 221.831C395.145 222.071 394.96 222.294 394.737 222.499C394.521 222.698 394.254 222.862 393.938 222.991C393.621 223.114 393.237 223.176 392.786 223.176C392.2 223.176 391.661 223.056 391.169 222.815C390.683 222.575 390.293 222.241 390 221.813C389.707 221.38 389.561 220.882 389.561 220.319C389.561 219.827 389.648 219.388 389.824 219.001C390.006 218.614 390.278 218.286 390.642 218.017C391.005 217.747 391.468 217.542 392.03 217.401C392.593 217.261 393.255 217.19 394.017 217.19H395.291ZM402.683 213.49V223H399.712V213.49H402.683ZM399.536 211.038C399.536 210.616 399.688 210.271 399.993 210.001C400.298 209.731 400.693 209.597 401.18 209.597C401.666 209.597 402.062 209.731 402.366 210.001C402.671 210.271 402.823 210.616 402.823 211.038C402.823 211.46 402.671 211.806 402.366 212.075C402.062 212.345 401.666 212.479 401.18 212.479C400.693 212.479 400.298 212.345 399.993 212.075C399.688 211.806 399.536 211.46 399.536 211.038ZM407.64 209.5V223H404.669V209.5H407.64ZM412.359 220.17L414.117 213.49H415.972L415.312 216.839L413.572 223H412.087L412.359 220.17ZM411.665 213.49L412.755 220.117L412.878 223H411.076L408.826 213.49H411.665ZM417.536 219.977L418.635 213.49H421.474L419.241 223H417.439L417.536 219.977ZM416.183 213.49L417.958 220.152L418.23 223H416.728L415.022 216.856L414.39 213.49H416.183ZM425.675 213.49V223H422.704V213.49H425.675ZM422.528 211.038C422.528 210.616 422.681 210.271 422.985 210.001C423.29 209.731 423.686 209.597 424.172 209.597C424.658 209.597 425.054 209.731 425.358 210.001C425.663 210.271 425.815 210.616 425.815 211.038C425.815 211.46 425.663 211.806 425.358 212.075C425.054 212.345 424.658 212.479 424.172 212.479C423.686 212.479 423.29 212.345 422.985 212.075C422.681 211.806 422.528 211.46 422.528 211.038ZM430.412 215.521V223H427.45V213.49H430.228L430.412 215.521ZM430.061 217.92L429.366 217.938C429.366 217.211 429.454 216.563 429.63 215.995C429.806 215.421 430.055 214.935 430.377 214.536C430.699 214.138 431.083 213.836 431.528 213.631C431.979 213.42 432.48 213.314 433.031 213.314C433.471 213.314 433.872 213.379 434.235 213.508C434.604 213.637 434.921 213.845 435.185 214.132C435.454 214.419 435.659 214.8 435.8 215.274C435.946 215.743 436.02 216.323 436.02 217.015V223H433.04V217.006C433.04 216.625 432.987 216.335 432.882 216.136C432.776 215.931 432.624 215.79 432.425 215.714C432.226 215.638 431.982 215.6 431.695 215.6C431.391 215.6 431.133 215.658 430.922 215.775C430.711 215.893 430.541 216.057 430.412 216.268C430.289 216.473 430.198 216.716 430.14 216.997C430.087 217.278 430.061 217.586 430.061 217.92ZM443.13 220.82V209.5H446.109V223H443.438L443.13 220.82ZM437.294 218.359V218.175C437.294 217.454 437.373 216.798 437.531 216.206C437.689 215.608 437.924 215.096 438.234 214.668C438.545 214.234 438.932 213.9 439.395 213.666C439.857 213.432 440.391 213.314 440.994 213.314C441.533 213.314 442.005 213.44 442.409 213.692C442.813 213.938 443.159 214.284 443.446 214.729C443.733 215.175 443.968 215.696 444.149 216.294C444.331 216.886 444.469 217.524 444.562 218.21V218.43C444.469 219.074 444.331 219.684 444.149 220.258C443.968 220.826 443.733 221.33 443.446 221.77C443.159 222.209 442.811 222.555 442.4 222.807C441.996 223.053 441.521 223.176 440.977 223.176C440.373 223.176 439.84 223.056 439.377 222.815C438.92 222.575 438.536 222.238 438.226 221.805C437.921 221.371 437.689 220.861 437.531 220.275C437.373 219.689 437.294 219.051 437.294 218.359ZM440.256 218.175V218.359C440.256 218.717 440.279 219.048 440.326 219.353C440.373 219.657 440.452 219.927 440.563 220.161C440.681 220.39 440.833 220.568 441.021 220.697C441.214 220.826 441.451 220.891 441.732 220.891C442.113 220.891 442.427 220.8 442.673 220.618C442.925 220.437 443.109 220.179 443.227 219.845C443.35 219.511 443.402 219.118 443.385 218.667V217.973C443.396 217.586 443.37 217.246 443.306 216.953C443.241 216.654 443.139 216.405 442.998 216.206C442.863 216.007 442.69 215.857 442.479 215.758C442.274 215.652 442.031 215.6 441.75 215.6C441.475 215.6 441.24 215.664 441.047 215.793C440.859 215.922 440.707 216.104 440.59 216.338C440.473 216.566 440.388 216.839 440.335 217.155C440.282 217.466 440.256 217.806 440.256 218.175ZM459.688 218.667H462.765C462.724 219.558 462.483 220.343 462.044 221.022C461.604 221.702 460.995 222.232 460.216 222.613C459.442 222.988 458.528 223.176 457.474 223.176C456.618 223.176 455.854 223.032 455.18 222.745C454.512 222.458 453.943 222.045 453.475 221.506C453.012 220.967 452.657 220.313 452.411 219.546C452.171 218.778 452.051 217.914 452.051 216.953V216.259C452.051 215.298 452.177 214.434 452.429 213.666C452.687 212.893 453.05 212.236 453.519 211.697C453.993 211.152 454.562 210.736 455.224 210.449C455.886 210.162 456.621 210.019 457.43 210.019C458.543 210.019 459.483 210.218 460.251 210.616C461.019 211.015 461.613 211.562 462.035 212.26C462.457 212.951 462.706 213.739 462.782 214.624H459.706C459.694 214.144 459.612 213.742 459.46 213.42C459.308 213.092 459.067 212.846 458.739 212.682C458.411 212.518 457.975 212.436 457.43 212.436C457.049 212.436 456.718 212.506 456.437 212.646C456.155 212.787 455.921 213.01 455.733 213.314C455.546 213.619 455.405 214.015 455.312 214.501C455.224 214.981 455.18 215.562 455.18 216.241V216.953C455.18 217.633 455.221 218.213 455.303 218.693C455.385 219.174 455.517 219.566 455.698 219.871C455.88 220.176 456.114 220.401 456.401 220.548C456.694 220.688 457.052 220.759 457.474 220.759C457.942 220.759 458.338 220.686 458.66 220.539C458.982 220.387 459.231 220.158 459.407 219.854C459.583 219.543 459.677 219.147 459.688 218.667ZM469.066 220.328C469.066 220.164 469.011 220.023 468.899 219.906C468.794 219.783 468.606 219.672 468.337 219.572C468.067 219.467 467.689 219.361 467.203 219.256C466.74 219.156 466.304 219.024 465.894 218.86C465.489 218.696 465.135 218.497 464.83 218.263C464.525 218.028 464.285 217.75 464.109 217.428C463.939 217.105 463.854 216.736 463.854 216.32C463.854 215.916 463.939 215.535 464.109 215.178C464.285 214.814 464.54 214.495 464.874 214.22C465.214 213.938 465.627 213.719 466.113 213.561C466.6 213.396 467.153 213.314 467.774 213.314C468.63 213.314 469.368 213.446 469.989 213.71C470.61 213.968 471.088 214.331 471.422 214.8C471.762 215.263 471.932 215.799 471.932 216.408H468.97C468.97 216.168 468.929 215.963 468.847 215.793C468.771 215.623 468.645 215.494 468.469 215.406C468.293 215.312 468.059 215.266 467.766 215.266C467.561 215.266 467.373 215.304 467.203 215.38C467.039 215.456 466.907 215.562 466.808 215.696C466.708 215.831 466.658 215.989 466.658 216.171C466.658 216.3 466.688 216.417 466.746 216.522C466.811 216.622 466.907 216.716 467.036 216.804C467.165 216.886 467.329 216.962 467.528 217.032C467.728 217.097 467.968 217.155 468.249 217.208C468.888 217.325 469.485 217.492 470.042 217.709C470.599 217.926 471.05 218.233 471.396 218.632C471.747 219.03 471.923 219.566 471.923 220.24C471.923 220.662 471.826 221.052 471.633 221.409C471.439 221.761 471.161 222.071 470.798 222.341C470.435 222.604 469.998 222.81 469.488 222.956C468.979 223.103 468.404 223.176 467.766 223.176C466.857 223.176 466.09 223.015 465.463 222.692C464.836 222.364 464.361 221.954 464.039 221.462C463.723 220.964 463.564 220.46 463.564 219.95H466.324C466.336 220.243 466.406 220.483 466.535 220.671C466.67 220.858 466.849 220.996 467.071 221.084C467.294 221.172 467.552 221.216 467.845 221.216C468.114 221.216 468.337 221.178 468.513 221.102C468.694 221.025 468.832 220.923 468.926 220.794C469.02 220.659 469.066 220.504 469.066 220.328ZM478.295 220.328C478.295 220.164 478.239 220.023 478.128 219.906C478.022 219.783 477.835 219.672 477.565 219.572C477.296 219.467 476.918 219.361 476.432 219.256C475.969 219.156 475.532 219.024 475.122 218.86C474.718 218.696 474.363 218.497 474.059 218.263C473.754 218.028 473.514 217.75 473.338 217.428C473.168 217.105 473.083 216.736 473.083 216.32C473.083 215.916 473.168 215.535 473.338 215.178C473.514 214.814 473.769 214.495 474.103 214.22C474.442 213.938 474.855 213.719 475.342 213.561C475.828 213.396 476.382 213.314 477.003 213.314C477.858 213.314 478.597 213.446 479.218 213.71C479.839 213.968 480.316 214.331 480.65 214.8C480.99 215.263 481.16 215.799 481.16 216.408H478.198C478.198 216.168 478.157 215.963 478.075 215.793C477.999 215.623 477.873 215.494 477.697 215.406C477.521 215.312 477.287 215.266 476.994 215.266C476.789 215.266 476.602 215.304 476.432 215.38C476.268 215.456 476.136 215.562 476.036 215.696C475.937 215.831 475.887 215.989 475.887 216.171C475.887 216.3 475.916 216.417 475.975 216.522C476.039 216.622 476.136 216.716 476.265 216.804C476.394 216.886 476.558 216.962 476.757 217.032C476.956 217.097 477.196 217.155 477.478 217.208C478.116 217.325 478.714 217.492 479.271 217.709C479.827 217.926 480.278 218.233 480.624 218.632C480.976 219.03 481.151 219.566 481.151 220.24C481.151 220.662 481.055 221.052 480.861 221.409C480.668 221.761 480.39 222.071 480.026 222.341C479.663 222.604 479.227 222.81 478.717 222.956C478.207 223.103 477.633 223.176 476.994 223.176C476.086 223.176 475.318 223.015 474.691 222.692C474.064 222.364 473.59 221.954 473.268 221.462C472.951 220.964 472.793 220.46 472.793 219.95H475.553C475.564 220.243 475.635 220.483 475.764 220.671C475.898 220.858 476.077 220.996 476.3 221.084C476.522 221.172 476.78 221.216 477.073 221.216C477.343 221.216 477.565 221.178 477.741 221.102C477.923 221.025 478.061 220.923 478.154 220.794C478.248 220.659 478.295 220.504 478.295 220.328Z" fill="white"/>
<rect x="357" y="196" width="147" height="41" rx="3" stroke="#424242" stroke-width="4"/>
<rect x="524" y="196" width="119" height="41" rx="3" fill="#424242"/>
<path d="M564.041 210.203V223H560.965L556.438 215.037V223H553.354V210.203H556.438L560.965 218.166V210.203H564.041ZM565.482 218.342V218.157C565.482 217.46 565.582 216.818 565.781 216.232C565.98 215.641 566.273 215.128 566.66 214.694C567.047 214.261 567.524 213.924 568.093 213.684C568.661 213.438 569.317 213.314 570.062 213.314C570.812 213.314 571.471 213.438 572.039 213.684C572.613 213.924 573.094 214.261 573.48 214.694C573.867 215.128 574.16 215.641 574.359 216.232C574.559 216.818 574.658 217.46 574.658 218.157V218.342C574.658 219.033 574.559 219.675 574.359 220.267C574.16 220.853 573.867 221.365 573.48 221.805C573.094 222.238 572.616 222.575 572.048 222.815C571.479 223.056 570.823 223.176 570.079 223.176C569.335 223.176 568.676 223.056 568.102 222.815C567.527 222.575 567.047 222.238 566.66 221.805C566.273 221.365 565.98 220.853 565.781 220.267C565.582 219.675 565.482 219.033 565.482 218.342ZM568.444 218.157V218.342C568.444 218.699 568.471 219.033 568.523 219.344C568.576 219.654 568.664 219.927 568.787 220.161C568.91 220.39 569.077 220.568 569.288 220.697C569.499 220.826 569.763 220.891 570.079 220.891C570.39 220.891 570.647 220.826 570.853 220.697C571.063 220.568 571.23 220.39 571.354 220.161C571.477 219.927 571.564 219.654 571.617 219.344C571.67 219.033 571.696 218.699 571.696 218.342V218.157C571.696 217.812 571.67 217.486 571.617 217.182C571.564 216.871 571.477 216.599 571.354 216.364C571.23 216.124 571.063 215.937 570.853 215.802C570.642 215.667 570.378 215.6 570.062 215.6C569.751 215.6 569.49 215.667 569.279 215.802C569.074 215.937 568.91 216.124 568.787 216.364C568.664 216.599 568.576 216.871 568.523 217.182C568.471 217.486 568.444 217.812 568.444 218.157ZM581.443 220.82V209.5H584.423V223H581.751L581.443 220.82ZM575.607 218.359V218.175C575.607 217.454 575.687 216.798 575.845 216.206C576.003 215.608 576.237 215.096 576.548 214.668C576.858 214.234 577.245 213.9 577.708 213.666C578.171 213.432 578.704 213.314 579.308 213.314C579.847 213.314 580.318 213.44 580.723 213.692C581.127 213.938 581.473 214.284 581.76 214.729C582.047 215.175 582.281 215.696 582.463 216.294C582.645 216.886 582.782 217.524 582.876 218.21V218.43C582.782 219.074 582.645 219.684 582.463 220.258C582.281 220.826 582.047 221.33 581.76 221.77C581.473 222.209 581.124 222.555 580.714 222.807C580.31 223.053 579.835 223.176 579.29 223.176C578.687 223.176 578.153 223.056 577.69 222.815C577.233 222.575 576.85 222.238 576.539 221.805C576.234 221.371 576.003 220.861 575.845 220.275C575.687 219.689 575.607 219.051 575.607 218.359ZM578.569 218.175V218.359C578.569 218.717 578.593 219.048 578.64 219.353C578.687 219.657 578.766 219.927 578.877 220.161C578.994 220.39 579.146 220.568 579.334 220.697C579.527 220.826 579.765 220.891 580.046 220.891C580.427 220.891 580.74 220.8 580.986 220.618C581.238 220.437 581.423 220.179 581.54 219.845C581.663 219.511 581.716 219.118 581.698 218.667V217.973C581.71 217.586 581.684 217.246 581.619 216.953C581.555 216.654 581.452 216.405 581.312 216.206C581.177 216.007 581.004 215.857 580.793 215.758C580.588 215.652 580.345 215.6 580.063 215.6C579.788 215.6 579.554 215.664 579.36 215.793C579.173 215.922 579.021 216.104 578.903 216.338C578.786 216.566 578.701 216.839 578.648 217.155C578.596 217.466 578.569 217.806 578.569 218.175ZM590.707 223.176C589.934 223.176 589.242 223.056 588.633 222.815C588.023 222.569 587.508 222.232 587.086 221.805C586.67 221.377 586.351 220.885 586.128 220.328C585.911 219.771 585.803 219.183 585.803 218.562V218.228C585.803 217.53 585.899 216.886 586.093 216.294C586.286 215.696 586.573 215.175 586.954 214.729C587.335 214.284 587.812 213.938 588.387 213.692C588.961 213.44 589.629 213.314 590.391 213.314C591.064 213.314 591.668 213.423 592.201 213.64C592.734 213.856 593.186 214.167 593.555 214.571C593.93 214.976 594.214 215.465 594.407 216.039C594.606 216.613 594.706 217.258 594.706 217.973V219.177H586.937V217.322H591.814V217.094C591.82 216.777 591.765 216.508 591.647 216.285C591.536 216.062 591.372 215.893 591.155 215.775C590.938 215.658 590.675 215.6 590.364 215.6C590.042 215.6 589.775 215.67 589.564 215.811C589.359 215.951 589.198 216.145 589.081 216.391C588.97 216.631 588.891 216.909 588.844 217.226C588.797 217.542 588.773 217.876 588.773 218.228V218.562C588.773 218.913 588.82 219.232 588.914 219.52C589.014 219.807 589.154 220.053 589.336 220.258C589.523 220.457 589.746 220.612 590.004 220.724C590.268 220.835 590.566 220.891 590.9 220.891C591.305 220.891 591.703 220.814 592.096 220.662C592.488 220.51 592.825 220.258 593.106 219.906L594.451 221.506C594.258 221.781 593.982 222.048 593.625 222.306C593.273 222.563 592.852 222.774 592.359 222.938C591.867 223.097 591.316 223.176 590.707 223.176ZM596.104 221.611C596.104 221.189 596.256 220.838 596.561 220.557C596.865 220.27 597.258 220.126 597.738 220.126C598.225 220.126 598.617 220.27 598.916 220.557C599.221 220.838 599.373 221.189 599.373 221.611C599.373 222.033 599.221 222.388 598.916 222.675C598.617 222.956 598.225 223.097 597.738 223.097C597.258 223.097 596.865 222.956 596.561 222.675C596.256 222.388 596.104 222.033 596.104 221.611ZM601.579 213.49H604.55V223.308C604.55 224.069 604.403 224.711 604.11 225.232C603.817 225.76 603.398 226.158 602.854 226.428C602.309 226.703 601.658 226.841 600.902 226.841C600.65 226.841 600.419 226.829 600.208 226.806C599.991 226.788 599.754 226.75 599.496 226.691V224.45C599.648 224.474 599.789 224.491 599.918 224.503C600.047 224.521 600.188 224.529 600.34 224.529C600.609 224.529 600.835 224.485 601.017 224.397C601.198 224.31 601.336 224.175 601.43 223.993C601.529 223.812 601.579 223.583 601.579 223.308V213.49ZM601.359 211.038C601.359 210.616 601.512 210.271 601.816 210.001C602.121 209.731 602.517 209.597 603.003 209.597C603.489 209.597 603.885 209.731 604.189 210.001C604.494 210.271 604.646 210.616 604.646 211.038C604.646 211.46 604.494 211.806 604.189 212.075C603.885 212.345 603.489 212.479 603.003 212.479C602.517 212.479 602.121 212.345 601.816 212.075C601.512 211.806 601.359 211.46 601.359 211.038ZM611.212 220.328C611.212 220.164 611.156 220.023 611.045 219.906C610.939 219.783 610.752 219.672 610.482 219.572C610.213 219.467 609.835 219.361 609.349 219.256C608.886 219.156 608.449 219.024 608.039 218.86C607.635 218.696 607.28 218.497 606.976 218.263C606.671 218.028 606.431 217.75 606.255 217.428C606.085 217.105 606 216.736 606 216.32C606 215.916 606.085 215.535 606.255 215.178C606.431 214.814 606.686 214.495 607.02 214.22C607.359 213.938 607.772 213.719 608.259 213.561C608.745 213.396 609.299 213.314 609.92 213.314C610.775 213.314 611.514 213.446 612.135 213.71C612.756 213.968 613.233 214.331 613.567 214.8C613.907 215.263 614.077 215.799 614.077 216.408H611.115C611.115 216.168 611.074 215.963 610.992 215.793C610.916 215.623 610.79 215.494 610.614 215.406C610.438 215.312 610.204 215.266 609.911 215.266C609.706 215.266 609.519 215.304 609.349 215.38C609.185 215.456 609.053 215.562 608.953 215.696C608.854 215.831 608.804 215.989 608.804 216.171C608.804 216.3 608.833 216.417 608.892 216.522C608.956 216.622 609.053 216.716 609.182 216.804C609.311 216.886 609.475 216.962 609.674 217.032C609.873 217.097 610.113 217.155 610.395 217.208C611.033 217.325 611.631 217.492 612.188 217.709C612.744 217.926 613.195 218.233 613.541 218.632C613.893 219.03 614.068 219.566 614.068 220.24C614.068 220.662 613.972 221.052 613.778 221.409C613.585 221.761 613.307 222.071 612.943 222.341C612.58 222.604 612.144 222.81 611.634 222.956C611.124 223.103 610.55 223.176 609.911 223.176C609.003 223.176 608.235 223.015 607.608 222.692C606.981 222.364 606.507 221.954 606.185 221.462C605.868 220.964 605.71 220.46 605.71 219.95H608.47C608.481 220.243 608.552 220.483 608.681 220.671C608.815 220.858 608.994 220.996 609.217 221.084C609.439 221.172 609.697 221.216 609.99 221.216C610.26 221.216 610.482 221.178 610.658 221.102C610.84 221.025 610.978 220.923 611.071 220.794C611.165 220.659 611.212 220.504 611.212 220.328Z" fill="white"/>
<rect x="524" y="196" width="119" height="41" rx="3" stroke="#424242" stroke-width="4"/>
<rect x="663" y="196" width="112" height="41" rx="3" fill="#424242"/>
<path d="M695.19 220.627V223H688.37V220.627H695.19ZM689.469 210.203V223H686.384V210.203H689.469ZM694.312 215.283V217.577H688.37V215.283H694.312ZM695.217 210.203V212.585H688.37V210.203H695.217ZM699.444 209.5V223H696.474V209.5H699.444ZM705.878 223.176C705.104 223.176 704.413 223.056 703.804 222.815C703.194 222.569 702.679 222.232 702.257 221.805C701.841 221.377 701.521 220.885 701.299 220.328C701.082 219.771 700.974 219.183 700.974 218.562V218.228C700.974 217.53 701.07 216.886 701.264 216.294C701.457 215.696 701.744 215.175 702.125 214.729C702.506 214.284 702.983 213.938 703.558 213.692C704.132 213.44 704.8 213.314 705.562 213.314C706.235 213.314 706.839 213.423 707.372 213.64C707.905 213.856 708.356 214.167 708.726 214.571C709.101 214.976 709.385 215.465 709.578 216.039C709.777 216.613 709.877 217.258 709.877 217.973V219.177H702.107V217.322H706.985V217.094C706.991 216.777 706.936 216.508 706.818 216.285C706.707 216.062 706.543 215.893 706.326 215.775C706.109 215.658 705.846 215.6 705.535 215.6C705.213 215.6 704.946 215.67 704.735 215.811C704.53 215.951 704.369 216.145 704.252 216.391C704.141 216.631 704.062 216.909 704.015 217.226C703.968 217.542 703.944 217.876 703.944 218.228V218.562C703.944 218.913 703.991 219.232 704.085 219.52C704.185 219.807 704.325 220.053 704.507 220.258C704.694 220.457 704.917 220.612 705.175 220.724C705.438 220.835 705.737 220.891 706.071 220.891C706.476 220.891 706.874 220.814 707.267 220.662C707.659 220.51 707.996 220.258 708.277 219.906L709.622 221.506C709.429 221.781 709.153 222.048 708.796 222.306C708.444 222.563 708.022 222.774 707.53 222.938C707.038 223.097 706.487 223.176 705.878 223.176ZM715.098 220.891C715.373 220.891 715.607 220.841 715.801 220.741C716 220.636 716.149 220.489 716.249 220.302C716.354 220.108 716.404 219.877 716.398 219.607H719.185C719.19 220.322 719.015 220.949 718.657 221.488C718.306 222.021 717.825 222.438 717.216 222.736C716.612 223.029 715.93 223.176 715.168 223.176C714.424 223.176 713.773 223.056 713.217 222.815C712.66 222.569 712.194 222.229 711.819 221.796C711.45 221.356 711.172 220.844 710.984 220.258C710.803 219.672 710.712 219.036 710.712 218.351V218.148C710.712 217.463 710.803 216.827 710.984 216.241C711.172 215.649 711.45 215.137 711.819 214.703C712.194 214.264 712.657 213.924 713.208 213.684C713.765 213.438 714.412 213.314 715.15 213.314C715.941 213.314 716.639 213.464 717.242 213.763C717.852 214.062 718.329 214.495 718.675 215.063C719.021 215.632 719.19 216.32 719.185 217.129H716.398C716.404 216.842 716.36 216.584 716.267 216.355C716.173 216.127 716.026 215.945 715.827 215.811C715.634 215.67 715.385 215.6 715.08 215.6C714.775 215.6 714.529 215.667 714.342 215.802C714.154 215.937 714.011 216.124 713.911 216.364C713.817 216.599 713.753 216.868 713.718 217.173C713.688 217.478 713.674 217.803 713.674 218.148V218.351C713.674 218.702 713.688 219.033 713.718 219.344C713.753 219.648 713.82 219.918 713.92 220.152C714.02 220.381 714.163 220.562 714.351 220.697C714.538 220.826 714.787 220.891 715.098 220.891ZM725.46 213.49V215.547H719.729V213.49H725.46ZM720.934 211.126H723.896V219.897C723.896 220.149 723.925 220.346 723.983 220.486C724.042 220.621 724.142 220.718 724.282 220.776C724.429 220.829 724.622 220.855 724.862 220.855C725.032 220.855 725.173 220.853 725.284 220.847C725.396 220.835 725.501 220.82 725.601 220.803V222.921C725.349 223.003 725.085 223.064 724.81 223.105C724.534 223.152 724.241 223.176 723.931 223.176C723.298 223.176 722.756 223.076 722.305 222.877C721.859 222.678 721.52 222.364 721.285 221.937C721.051 221.509 720.934 220.952 720.934 220.267V211.126ZM729.626 215.846V223H726.664V213.49H729.433L729.626 215.846ZM732.438 213.42L732.386 216.171C732.269 216.159 732.11 216.145 731.911 216.127C731.712 216.109 731.545 216.101 731.41 216.101C731.064 216.101 730.766 216.142 730.514 216.224C730.268 216.3 730.062 216.417 729.898 216.575C729.74 216.728 729.623 216.921 729.547 217.155C729.477 217.39 729.444 217.662 729.45 217.973L728.914 217.621C728.914 216.982 728.976 216.402 729.099 215.881C729.228 215.354 729.409 214.899 729.644 214.519C729.878 214.132 730.162 213.836 730.496 213.631C730.83 213.42 731.205 213.314 731.621 213.314C731.768 213.314 731.911 213.323 732.052 213.341C732.198 213.358 732.327 213.385 732.438 213.42ZM732.772 218.342V218.157C732.772 217.46 732.872 216.818 733.071 216.232C733.271 215.641 733.563 215.128 733.95 214.694C734.337 214.261 734.814 213.924 735.383 213.684C735.951 213.438 736.607 213.314 737.352 213.314C738.102 213.314 738.761 213.438 739.329 213.684C739.903 213.924 740.384 214.261 740.771 214.694C741.157 215.128 741.45 215.641 741.649 216.232C741.849 216.818 741.948 217.46 741.948 218.157V218.342C741.948 219.033 741.849 219.675 741.649 220.267C741.45 220.853 741.157 221.365 740.771 221.805C740.384 222.238 739.906 222.575 739.338 222.815C738.77 223.056 738.113 223.176 737.369 223.176C736.625 223.176 735.966 223.056 735.392 222.815C734.817 222.575 734.337 222.238 733.95 221.805C733.563 221.365 733.271 220.853 733.071 220.267C732.872 219.675 732.772 219.033 732.772 218.342ZM735.734 218.157V218.342C735.734 218.699 735.761 219.033 735.813 219.344C735.866 219.654 735.954 219.927 736.077 220.161C736.2 220.39 736.367 220.568 736.578 220.697C736.789 220.826 737.053 220.891 737.369 220.891C737.68 220.891 737.938 220.826 738.143 220.697C738.354 220.568 738.521 220.39 738.644 220.161C738.767 219.927 738.854 219.654 738.907 219.344C738.96 219.033 738.986 218.699 738.986 218.342V218.157C738.986 217.812 738.96 217.486 738.907 217.182C738.854 216.871 738.767 216.599 738.644 216.364C738.521 216.124 738.354 215.937 738.143 215.802C737.932 215.667 737.668 215.6 737.352 215.6C737.041 215.6 736.78 215.667 736.569 215.802C736.364 215.937 736.2 216.124 736.077 216.364C735.954 216.599 735.866 216.871 735.813 217.182C735.761 217.486 735.734 217.812 735.734 218.157ZM746.176 215.521V223H743.214V213.49H745.991L746.176 215.521ZM745.824 217.92L745.13 217.938C745.13 217.211 745.218 216.563 745.394 215.995C745.569 215.421 745.818 214.935 746.141 214.536C746.463 214.138 746.847 213.836 747.292 213.631C747.743 213.42 748.244 213.314 748.795 213.314C749.234 213.314 749.636 213.379 749.999 213.508C750.368 213.637 750.685 213.845 750.948 214.132C751.218 214.419 751.423 214.8 751.563 215.274C751.71 215.743 751.783 216.323 751.783 217.015V223H748.804V217.006C748.804 216.625 748.751 216.335 748.646 216.136C748.54 215.931 748.388 215.79 748.188 215.714C747.989 215.638 747.746 215.6 747.459 215.6C747.154 215.6 746.896 215.658 746.686 215.775C746.475 215.893 746.305 216.057 746.176 216.268C746.053 216.473 745.962 216.716 745.903 216.997C745.851 217.278 745.824 217.586 745.824 217.92Z" fill="white"/>
<rect x="663" y="196" width="112" height="41" rx="3" stroke="#424242" stroke-width="4"/>
<path d="M1066 0H1348C1356.28 0 1363 6.71573 1363 15V282C1363 290.284 1356.28 297 1348 297H1066V0Z" fill="white"/>
<rect x="1202.3" y="102.019" width="71.9763" height="135.511" fill="#8DB78F"/>
<path d="M1274.28 101.498L1202 147.988V55.0067L1274.28 101.498Z" fill="#8DB78F"/>
<path d="M1133.92 103.864L1130.42 103.916L1130.49 107.415L1133.2 238.621L1133.28 242.12L1136.78 242.068L1215.41 240.908L1218.91 240.857L1218.84 237.357L1216.13 106.152L1216.06 102.652L1212.56 102.704L1133.92 103.864Z" fill="#587259" stroke="white" stroke-width="7"/>
<rect width="18.2975" height="12.5101" transform="matrix(1.00009 0.000161399 0.000223442 0.99988 1182.8 142.682)" fill="white"/>
<rect width="18.2975" height="12.5101" transform="matrix(1.00009 0.000161399 0.000223442 0.99988 1182.79 120.792)" fill="white"/>
<path d="M1182.81 186.462L1201.11 186.465L1201.11 198.973L1182.81 198.97L1182.81 186.462Z" fill="white"/>
<rect width="18.2975" height="12.5101" transform="matrix(1.00009 0.000161399 0.000223442 0.99988 1182.8 164.572)" fill="white"/>
<rect width="107.583" height="186.255" transform="matrix(0.999891 -0.0147515 0.0206474 0.999787 1118.12 62.97)" stroke="#587259"/>
<rect x="1263.74" y="142.757" width="49.1377" height="96.7726" fill="#8DB78F" stroke="white" stroke-width="4"/>
</svg>
