<svg width="92" height="96" viewBox="0 0 92 96" fill="none" xmlns="http://www.w3.org/2000/svg">
<rect x="38.4304" y="25.3024" width="32.8608" height="63.2561" fill="#8DB78F"/>
<path d="M71.2911 25.0591L38.2911 46.761V3.35729L71.2911 25.0591Z" fill="#8DB78F"/>
<path d="M6.76856 24.8031L3.76891 24.8489L3.82884 27.8483L5.05253 89.0952L5.11246 92.0946L8.11211 92.0488L41.846 91.5344L44.8457 91.4887L44.7857 88.4893L43.562 27.2424L43.5021 24.243L40.5025 24.2887L6.76856 24.8031Z" fill="#587259" stroke="white" stroke-width="6"/>
<rect width="7.84959" height="5.83944" transform="matrix(1.00008 0.000979585 0.0012058 0.999911 27.7822 44.3057)" fill="white"/>
<rect width="7.8496" height="5.83944" transform="matrix(1.00008 0.000979581 0.00120579 0.999911 27.7699 34.0876)" fill="white"/>
<path d="M27.8069 64.7419L35.6571 64.7496L35.6641 70.5886L27.8139 70.5809L27.8069 64.7419Z" fill="white"/>
<rect width="7.8496" height="5.83944" transform="matrix(1.00008 0.000979581 0.00120579 0.999911 27.7946 54.5238)" fill="white"/>
<rect x="65.3924" y="43.2524" width="24.6076" height="47.3061" fill="#8DB78F" stroke="white" stroke-width="4"/>
</svg>
